%FSLAX25Y25*%
%MOIN*%
G70*
G01*
G75*
G04 Layer_Color=32896*
%ADD10O,0.02362X0.08661*%
%ADD11O,0.06890X0.02165*%
%ADD12O,0.02165X0.06890*%
G04:AMPARAMS|DCode=13|XSize=83mil|YSize=55mil|CornerRadius=13.75mil|HoleSize=0mil|Usage=FLASHONLY|Rotation=0.000|XOffset=0mil|YOffset=0mil|HoleType=Round|Shape=RoundedRectangle|*
%AMROUNDEDRECTD13*
21,1,0.08300,0.02750,0,0,0.0*
21,1,0.05550,0.05500,0,0,0.0*
1,1,0.02750,0.02775,-0.01375*
1,1,0.02750,-0.02775,-0.01375*
1,1,0.02750,-0.02775,0.01375*
1,1,0.02750,0.02775,0.01375*
%
%ADD13ROUNDEDRECTD13*%
%ADD14R,0.03937X0.03937*%
%ADD15R,0.03937X0.03937*%
%ADD16C,0.01500*%
%ADD17C,0.02000*%
%ADD18C,0.03000*%
%ADD19C,0.04000*%
%ADD20C,0.07874*%
%ADD21R,0.05906X0.05906*%
%ADD22C,0.05906*%
%ADD23R,0.05906X0.05906*%
%ADD24C,0.11000*%
%ADD25C,0.12500*%
%ADD26C,0.09843*%
%ADD27C,0.12795*%
%ADD28C,0.06299*%
%ADD29C,0.05000*%
%ADD30O,0.06299X0.01969*%
%ADD31R,0.03937X0.09449*%
%ADD32R,0.12992X0.09449*%
%ADD33O,0.02165X0.05512*%
%ADD34R,0.03347X0.01575*%
%ADD35O,0.02362X0.08858*%
G04:AMPARAMS|DCode=36|XSize=82.68mil|YSize=62.99mil|CornerRadius=15.75mil|HoleSize=0mil|Usage=FLASHONLY|Rotation=90.000|XOffset=0mil|YOffset=0mil|HoleType=Round|Shape=RoundedRectangle|*
%AMROUNDEDRECTD36*
21,1,0.08268,0.03150,0,0,90.0*
21,1,0.05118,0.06299,0,0,90.0*
1,1,0.03150,0.01575,0.02559*
1,1,0.03150,0.01575,-0.02559*
1,1,0.03150,-0.01575,-0.02559*
1,1,0.03150,-0.01575,0.02559*
%
%ADD36ROUNDEDRECTD36*%
G04:AMPARAMS|DCode=37|XSize=70.87mil|YSize=74.8mil|CornerRadius=17.72mil|HoleSize=0mil|Usage=FLASHONLY|Rotation=90.000|XOffset=0mil|YOffset=0mil|HoleType=Round|Shape=RoundedRectangle|*
%AMROUNDEDRECTD37*
21,1,0.07087,0.03937,0,0,90.0*
21,1,0.03543,0.07480,0,0,90.0*
1,1,0.03543,0.01969,0.01772*
1,1,0.03543,0.01969,-0.01772*
1,1,0.03543,-0.01969,-0.01772*
1,1,0.03543,-0.01969,0.01772*
%
%ADD37ROUNDEDRECTD37*%
G04:AMPARAMS|DCode=38|XSize=15.75mil|YSize=53.15mil|CornerRadius=3.94mil|HoleSize=0mil|Usage=FLASHONLY|Rotation=90.000|XOffset=0mil|YOffset=0mil|HoleType=Round|Shape=RoundedRectangle|*
%AMROUNDEDRECTD38*
21,1,0.01575,0.04528,0,0,90.0*
21,1,0.00787,0.05315,0,0,90.0*
1,1,0.00787,0.02264,0.00394*
1,1,0.00787,0.02264,-0.00394*
1,1,0.00787,-0.02264,-0.00394*
1,1,0.00787,-0.02264,0.00394*
%
%ADD38ROUNDEDRECTD38*%
G04:AMPARAMS|DCode=39|XSize=74.8mil|YSize=74.8mil|CornerRadius=18.7mil|HoleSize=0mil|Usage=FLASHONLY|Rotation=90.000|XOffset=0mil|YOffset=0mil|HoleType=Round|Shape=RoundedRectangle|*
%AMROUNDEDRECTD39*
21,1,0.07480,0.03740,0,0,90.0*
21,1,0.03740,0.07480,0,0,90.0*
1,1,0.03740,0.01870,0.01870*
1,1,0.03740,0.01870,-0.01870*
1,1,0.03740,-0.01870,-0.01870*
1,1,0.03740,-0.01870,0.01870*
%
%ADD39ROUNDEDRECTD39*%
%ADD40R,0.04724X0.06693*%
%ADD41R,0.08071X0.09843*%
%ADD42R,0.06496X0.04724*%
%ADD43R,0.03937X0.03740*%
%ADD44R,0.03740X0.03937*%
%ADD45R,0.04724X0.07677*%
%ADD46C,0.01000*%
%ADD47C,0.05000*%
%ADD48C,0.03500*%
%ADD49C,0.02362*%
%ADD50C,0.00984*%
%ADD51C,0.00100*%
%ADD52C,0.00787*%
%ADD53O,0.03162X0.09461*%
%ADD54O,0.07690X0.02965*%
%ADD55O,0.02965X0.07690*%
G04:AMPARAMS|DCode=56|XSize=91mil|YSize=63mil|CornerRadius=17.75mil|HoleSize=0mil|Usage=FLASHONLY|Rotation=0.000|XOffset=0mil|YOffset=0mil|HoleType=Round|Shape=RoundedRectangle|*
%AMROUNDEDRECTD56*
21,1,0.09100,0.02750,0,0,0.0*
21,1,0.05550,0.06300,0,0,0.0*
1,1,0.03550,0.02775,-0.01375*
1,1,0.03550,-0.02775,-0.01375*
1,1,0.03550,-0.02775,0.01375*
1,1,0.03550,0.02775,0.01375*
%
%ADD56ROUNDEDRECTD56*%
%ADD57R,0.04737X0.04737*%
%ADD58R,0.04737X0.04737*%
%ADD59C,0.08674*%
%ADD60R,0.06706X0.06706*%
%ADD61C,0.06706*%
%ADD62R,0.06706X0.06706*%
%ADD63C,0.11800*%
%ADD64C,0.13300*%
%ADD65C,0.10642*%
%ADD66C,0.13595*%
%ADD67C,0.07099*%
%ADD68O,0.07099X0.02769*%
%ADD69R,0.04737X0.10249*%
%ADD70R,0.13792X0.10249*%
%ADD71O,0.02965X0.06312*%
%ADD72R,0.04147X0.02375*%
%ADD73O,0.03162X0.09658*%
G04:AMPARAMS|DCode=74|XSize=90.68mil|YSize=70.99mil|CornerRadius=19.75mil|HoleSize=0mil|Usage=FLASHONLY|Rotation=90.000|XOffset=0mil|YOffset=0mil|HoleType=Round|Shape=RoundedRectangle|*
%AMROUNDEDRECTD74*
21,1,0.09068,0.03150,0,0,90.0*
21,1,0.05118,0.07099,0,0,90.0*
1,1,0.03950,0.01575,0.02559*
1,1,0.03950,0.01575,-0.02559*
1,1,0.03950,-0.01575,-0.02559*
1,1,0.03950,-0.01575,0.02559*
%
%ADD74ROUNDEDRECTD74*%
G04:AMPARAMS|DCode=75|XSize=78.87mil|YSize=82.8mil|CornerRadius=21.72mil|HoleSize=0mil|Usage=FLASHONLY|Rotation=90.000|XOffset=0mil|YOffset=0mil|HoleType=Round|Shape=RoundedRectangle|*
%AMROUNDEDRECTD75*
21,1,0.07887,0.03937,0,0,90.0*
21,1,0.03543,0.08280,0,0,90.0*
1,1,0.04343,0.01969,0.01772*
1,1,0.04343,0.01969,-0.01772*
1,1,0.04343,-0.01969,-0.01772*
1,1,0.04343,-0.01969,0.01772*
%
%ADD75ROUNDEDRECTD75*%
G04:AMPARAMS|DCode=76|XSize=23.75mil|YSize=61.15mil|CornerRadius=7.94mil|HoleSize=0mil|Usage=FLASHONLY|Rotation=90.000|XOffset=0mil|YOffset=0mil|HoleType=Round|Shape=RoundedRectangle|*
%AMROUNDEDRECTD76*
21,1,0.02375,0.04528,0,0,90.0*
21,1,0.00787,0.06115,0,0,90.0*
1,1,0.01587,0.02264,0.00394*
1,1,0.01587,0.02264,-0.00394*
1,1,0.01587,-0.02264,-0.00394*
1,1,0.01587,-0.02264,0.00394*
%
%ADD76ROUNDEDRECTD76*%
G04:AMPARAMS|DCode=77|XSize=82.8mil|YSize=82.8mil|CornerRadius=22.7mil|HoleSize=0mil|Usage=FLASHONLY|Rotation=90.000|XOffset=0mil|YOffset=0mil|HoleType=Round|Shape=RoundedRectangle|*
%AMROUNDEDRECTD77*
21,1,0.08280,0.03740,0,0,90.0*
21,1,0.03740,0.08280,0,0,90.0*
1,1,0.04540,0.01870,0.01870*
1,1,0.04540,0.01870,-0.01870*
1,1,0.04540,-0.01870,-0.01870*
1,1,0.04540,-0.01870,0.01870*
%
%ADD77ROUNDEDRECTD77*%
%ADD78R,0.05524X0.07493*%
%ADD79R,0.08871X0.10642*%
%ADD80R,0.07296X0.05524*%
%ADD81R,0.04737X0.04540*%
%ADD82R,0.04540X0.04737*%
%ADD83R,0.05524X0.08477*%
%ADD84C,0.00394*%
%ADD85R,0.05709X0.02165*%
G36*
X324295Y130000D02*
X323803D01*
Y130492D01*
X324295D01*
Y130000D01*
D02*
G37*
G36*
X327133D02*
X326586D01*
X326375Y130581D01*
X325346D01*
X325124Y130000D01*
X324565D01*
X325594Y132560D01*
X326142D01*
X327133Y130000D01*
D02*
G37*
G36*
X329046D02*
X327240D01*
Y130433D01*
X328528D01*
Y132542D01*
X329046D01*
Y130000D01*
D02*
G37*
G36*
X320906D02*
X318960D01*
Y130433D01*
X320388D01*
Y131129D01*
X319104D01*
Y131561D01*
X320388D01*
Y132127D01*
X319008D01*
Y132560D01*
X320906D01*
Y130000D01*
D02*
G37*
G36*
X305999D02*
X304052D01*
Y130433D01*
X305481D01*
Y131129D01*
X304197D01*
Y131561D01*
X305481D01*
Y132127D01*
X304101D01*
Y132560D01*
X305999D01*
Y130000D01*
D02*
G37*
G36*
X316596D02*
X316048D01*
X315837Y130581D01*
X314808D01*
X314586Y130000D01*
X314028D01*
X315056Y132560D01*
X315604D01*
X316596Y130000D01*
D02*
G37*
G36*
X318508D02*
X316703D01*
Y130433D01*
X317990D01*
Y132542D01*
X318508D01*
Y130000D01*
D02*
G37*
G36*
X333416Y132605D02*
X333512Y132594D01*
X333597Y132575D01*
X333682Y132553D01*
X333756Y132527D01*
X333830Y132498D01*
X333893Y132464D01*
X333952Y132431D01*
X334008Y132398D01*
X334052Y132364D01*
X334093Y132335D01*
X334126Y132309D01*
X334152Y132287D01*
X334171Y132268D01*
X334182Y132257D01*
X334185Y132253D01*
X334244Y132183D01*
X334293Y132109D01*
X334337Y132031D01*
X334374Y131950D01*
X334407Y131865D01*
X334433Y131783D01*
X334455Y131702D01*
X334474Y131624D01*
X334489Y131547D01*
X334496Y131480D01*
X334504Y131417D01*
X334511Y131365D01*
Y131321D01*
X334515Y131288D01*
Y131265D01*
Y131262D01*
Y131258D01*
X334511Y131147D01*
X334500Y131043D01*
X334485Y130944D01*
X334463Y130855D01*
X334441Y130770D01*
X334411Y130688D01*
X334381Y130618D01*
X334352Y130555D01*
X334322Y130496D01*
X334293Y130444D01*
X334263Y130403D01*
X334241Y130366D01*
X334219Y130340D01*
X334204Y130318D01*
X334193Y130307D01*
X334189Y130303D01*
X334126Y130240D01*
X334060Y130189D01*
X333989Y130141D01*
X333919Y130104D01*
X333849Y130070D01*
X333778Y130041D01*
X333712Y130018D01*
X333649Y130000D01*
X333586Y129985D01*
X333530Y129974D01*
X333479Y129967D01*
X333438Y129963D01*
X333401Y129959D01*
X333375Y129956D01*
X333353D01*
X333275Y129959D01*
X333205Y129963D01*
X333135Y129974D01*
X333072Y129989D01*
X333012Y130004D01*
X332957Y130018D01*
X332905Y130037D01*
X332857Y130059D01*
X332816Y130078D01*
X332779Y130096D01*
X332746Y130111D01*
X332720Y130126D01*
X332698Y130141D01*
X332683Y130152D01*
X332676Y130155D01*
X332672Y130159D01*
X332624Y130200D01*
X332579Y130244D01*
X332498Y130344D01*
X332432Y130448D01*
X332380Y130548D01*
X332358Y130596D01*
X332339Y130640D01*
X332324Y130681D01*
X332309Y130714D01*
X332298Y130744D01*
X332291Y130766D01*
X332287Y130781D01*
Y130784D01*
X332790Y130940D01*
X332820Y130840D01*
X332853Y130755D01*
X332887Y130684D01*
X332924Y130625D01*
X332953Y130581D01*
X332979Y130551D01*
X332998Y130533D01*
X333005Y130525D01*
X333064Y130481D01*
X333123Y130451D01*
X333183Y130429D01*
X333234Y130411D01*
X333282Y130403D01*
X333323Y130400D01*
X333338Y130396D01*
X333356D01*
X333408Y130400D01*
X333456Y130403D01*
X333545Y130429D01*
X333623Y130459D01*
X333686Y130499D01*
X333738Y130536D01*
X333775Y130566D01*
X333789Y130581D01*
X333801Y130592D01*
X333804Y130596D01*
X333808Y130599D01*
X333838Y130640D01*
X333863Y130688D01*
X333889Y130740D01*
X333908Y130796D01*
X333937Y130910D01*
X333960Y131025D01*
X333967Y131080D01*
X333971Y131129D01*
X333978Y131177D01*
Y131217D01*
X333982Y131247D01*
Y131273D01*
Y131291D01*
Y131295D01*
X333978Y131380D01*
X333974Y131458D01*
X333967Y131528D01*
X333956Y131595D01*
X333941Y131654D01*
X333926Y131709D01*
X333911Y131757D01*
X333893Y131802D01*
X333878Y131839D01*
X333863Y131872D01*
X333849Y131898D01*
X333834Y131920D01*
X333823Y131939D01*
X333815Y131950D01*
X333808Y131957D01*
Y131961D01*
X333775Y131998D01*
X333738Y132031D01*
X333701Y132057D01*
X333660Y132079D01*
X333582Y132116D01*
X333508Y132142D01*
X333445Y132157D01*
X333416Y132161D01*
X333394Y132165D01*
X333371Y132168D01*
X333345D01*
X333271Y132165D01*
X333205Y132150D01*
X333146Y132131D01*
X333094Y132109D01*
X333053Y132087D01*
X333024Y132068D01*
X333005Y132053D01*
X332998Y132050D01*
X332949Y132005D01*
X332905Y131954D01*
X332872Y131902D01*
X332846Y131850D01*
X332827Y131806D01*
X332816Y131772D01*
X332809Y131757D01*
Y131746D01*
X332805Y131743D01*
Y131739D01*
X332295Y131861D01*
X332332Y131968D01*
X332372Y132061D01*
X332417Y132142D01*
X332457Y132209D01*
X332498Y132261D01*
X332513Y132283D01*
X332528Y132301D01*
X332539Y132313D01*
X332550Y132324D01*
X332554Y132331D01*
X332557D01*
X332613Y132379D01*
X332676Y132423D01*
X332735Y132460D01*
X332798Y132490D01*
X332864Y132520D01*
X332927Y132542D01*
X332990Y132560D01*
X333049Y132575D01*
X333105Y132586D01*
X333157Y132594D01*
X333201Y132601D01*
X333242Y132605D01*
X333275Y132608D01*
X333319D01*
X333416Y132605D01*
D02*
G37*
G36*
X322638Y130000D02*
X322079D01*
X321169Y132560D01*
X321720D01*
X322345Y130666D01*
X322996Y132560D01*
X323555D01*
X322638Y130000D01*
D02*
G37*
G36*
X274082D02*
X273605D01*
Y132013D01*
X273102Y130000D01*
X272603D01*
X272099Y132013D01*
X272096Y130000D01*
X271618D01*
Y132560D01*
X272395D01*
X272850Y130810D01*
X273309Y132560D01*
X274082D01*
Y130000D01*
D02*
G37*
G36*
X278434Y132605D02*
X278530Y132594D01*
X278615Y132575D01*
X278700Y132553D01*
X278774Y132527D01*
X278848Y132498D01*
X278911Y132464D01*
X278970Y132431D01*
X279026Y132398D01*
X279070Y132364D01*
X279111Y132335D01*
X279144Y132309D01*
X279170Y132287D01*
X279188Y132268D01*
X279200Y132257D01*
X279203Y132253D01*
X279262Y132183D01*
X279311Y132109D01*
X279355Y132031D01*
X279392Y131950D01*
X279425Y131865D01*
X279451Y131783D01*
X279473Y131702D01*
X279492Y131624D01*
X279507Y131547D01*
X279514Y131480D01*
X279521Y131417D01*
X279529Y131365D01*
Y131321D01*
X279533Y131288D01*
Y131265D01*
Y131262D01*
Y131258D01*
X279529Y131147D01*
X279518Y131043D01*
X279503Y130944D01*
X279481Y130855D01*
X279459Y130770D01*
X279429Y130688D01*
X279399Y130618D01*
X279370Y130555D01*
X279340Y130496D01*
X279311Y130444D01*
X279281Y130403D01*
X279259Y130366D01*
X279237Y130340D01*
X279222Y130318D01*
X279211Y130307D01*
X279207Y130303D01*
X279144Y130240D01*
X279078Y130189D01*
X279007Y130141D01*
X278937Y130104D01*
X278867Y130070D01*
X278796Y130041D01*
X278730Y130018D01*
X278667Y130000D01*
X278604Y129985D01*
X278548Y129974D01*
X278497Y129967D01*
X278456Y129963D01*
X278419Y129959D01*
X278393Y129956D01*
X278371D01*
X278293Y129959D01*
X278223Y129963D01*
X278152Y129974D01*
X278090Y129989D01*
X278030Y130004D01*
X277975Y130018D01*
X277923Y130037D01*
X277875Y130059D01*
X277834Y130078D01*
X277797Y130096D01*
X277764Y130111D01*
X277738Y130126D01*
X277716Y130141D01*
X277701Y130152D01*
X277694Y130155D01*
X277690Y130159D01*
X277642Y130200D01*
X277597Y130244D01*
X277516Y130344D01*
X277449Y130448D01*
X277398Y130548D01*
X277376Y130596D01*
X277357Y130640D01*
X277342Y130681D01*
X277327Y130714D01*
X277316Y130744D01*
X277309Y130766D01*
X277305Y130781D01*
Y130784D01*
X277808Y130940D01*
X277838Y130840D01*
X277871Y130755D01*
X277905Y130684D01*
X277942Y130625D01*
X277971Y130581D01*
X277997Y130551D01*
X278016Y130533D01*
X278023Y130525D01*
X278082Y130481D01*
X278141Y130451D01*
X278201Y130429D01*
X278252Y130411D01*
X278300Y130403D01*
X278341Y130400D01*
X278356Y130396D01*
X278375D01*
X278426Y130400D01*
X278474Y130403D01*
X278563Y130429D01*
X278641Y130459D01*
X278704Y130499D01*
X278756Y130536D01*
X278793Y130566D01*
X278807Y130581D01*
X278818Y130592D01*
X278822Y130596D01*
X278826Y130599D01*
X278855Y130640D01*
X278881Y130688D01*
X278907Y130740D01*
X278926Y130796D01*
X278955Y130910D01*
X278978Y131025D01*
X278985Y131080D01*
X278989Y131129D01*
X278996Y131177D01*
Y131217D01*
X279000Y131247D01*
Y131273D01*
Y131291D01*
Y131295D01*
X278996Y131380D01*
X278992Y131458D01*
X278985Y131528D01*
X278974Y131595D01*
X278959Y131654D01*
X278944Y131709D01*
X278929Y131757D01*
X278911Y131802D01*
X278896Y131839D01*
X278881Y131872D01*
X278867Y131898D01*
X278852Y131920D01*
X278841Y131939D01*
X278833Y131950D01*
X278826Y131957D01*
Y131961D01*
X278793Y131998D01*
X278756Y132031D01*
X278719Y132057D01*
X278678Y132079D01*
X278600Y132116D01*
X278526Y132142D01*
X278463Y132157D01*
X278434Y132161D01*
X278412Y132165D01*
X278389Y132168D01*
X278363D01*
X278289Y132165D01*
X278223Y132150D01*
X278164Y132131D01*
X278112Y132109D01*
X278071Y132087D01*
X278042Y132068D01*
X278023Y132053D01*
X278016Y132050D01*
X277968Y132005D01*
X277923Y131954D01*
X277890Y131902D01*
X277864Y131850D01*
X277845Y131806D01*
X277834Y131772D01*
X277827Y131757D01*
Y131746D01*
X277823Y131743D01*
Y131739D01*
X277313Y131861D01*
X277350Y131968D01*
X277390Y132061D01*
X277435Y132142D01*
X277475Y132209D01*
X277516Y132261D01*
X277531Y132283D01*
X277546Y132301D01*
X277557Y132313D01*
X277568Y132324D01*
X277572Y132331D01*
X277575D01*
X277631Y132379D01*
X277694Y132423D01*
X277753Y132460D01*
X277816Y132490D01*
X277882Y132520D01*
X277945Y132542D01*
X278008Y132560D01*
X278067Y132575D01*
X278123Y132586D01*
X278175Y132594D01*
X278219Y132601D01*
X278260Y132605D01*
X278293Y132608D01*
X278338D01*
X278434Y132605D01*
D02*
G37*
G36*
X335436Y130000D02*
X334918D01*
Y132560D01*
X335436D01*
Y130000D01*
D02*
G37*
G36*
X290921Y132605D02*
X291040Y132590D01*
X291091Y132579D01*
X291143Y132568D01*
X291191Y132557D01*
X291232Y132546D01*
X291269Y132531D01*
X291306Y132520D01*
X291332Y132509D01*
X291358Y132501D01*
X291376Y132490D01*
X291391Y132486D01*
X291399Y132479D01*
X291402D01*
X291517Y132412D01*
X291565Y132372D01*
X291613Y132335D01*
X291657Y132294D01*
X291698Y132253D01*
X291735Y132213D01*
X291769Y132176D01*
X291794Y132139D01*
X291820Y132105D01*
X291843Y132076D01*
X291861Y132050D01*
X291872Y132028D01*
X291883Y132013D01*
X291887Y132002D01*
X291891Y131998D01*
X291920Y131939D01*
X291946Y131880D01*
X291987Y131757D01*
X292016Y131635D01*
X292035Y131528D01*
X292042Y131476D01*
X292050Y131432D01*
X292053Y131391D01*
Y131354D01*
X292057Y131328D01*
Y131306D01*
Y131291D01*
Y131288D01*
X292050Y131151D01*
X292035Y131025D01*
X292009Y130910D01*
X291998Y130855D01*
X291983Y130807D01*
X291968Y130762D01*
X291957Y130721D01*
X291942Y130688D01*
X291931Y130659D01*
X291924Y130636D01*
X291916Y130618D01*
X291909Y130607D01*
Y130603D01*
X291846Y130492D01*
X291776Y130396D01*
X291702Y130311D01*
X291628Y130244D01*
X291595Y130215D01*
X291561Y130189D01*
X291535Y130166D01*
X291510Y130152D01*
X291491Y130137D01*
X291473Y130126D01*
X291465Y130122D01*
X291461Y130118D01*
X291402Y130089D01*
X291347Y130063D01*
X291225Y130022D01*
X291106Y129993D01*
X290999Y129974D01*
X290947Y129967D01*
X290903Y129959D01*
X290862Y129956D01*
X290825D01*
X290799Y129952D01*
X290758D01*
X290640Y129956D01*
X290529Y129970D01*
X290422Y129989D01*
X290329Y130011D01*
X290288Y130022D01*
X290251Y130033D01*
X290218Y130044D01*
X290189Y130052D01*
X290166Y130059D01*
X290152Y130067D01*
X290141Y130070D01*
X290137D01*
X290026Y130115D01*
X289933Y130163D01*
X289852Y130211D01*
X289782Y130252D01*
X289730Y130289D01*
X289711Y130303D01*
X289693Y130318D01*
X289682Y130329D01*
X289671Y130337D01*
X289663Y130344D01*
Y131373D01*
X290777D01*
Y130940D01*
X290185D01*
Y130611D01*
X290229Y130577D01*
X290277Y130548D01*
X290325Y130522D01*
X290370Y130499D01*
X290407Y130481D01*
X290440Y130466D01*
X290459Y130459D01*
X290462Y130455D01*
X290466D01*
X290525Y130433D01*
X290584Y130418D01*
X290640Y130407D01*
X290688Y130400D01*
X290733Y130396D01*
X290762Y130392D01*
X290792D01*
X290851Y130396D01*
X290910Y130403D01*
X290962Y130414D01*
X291014Y130429D01*
X291106Y130466D01*
X291143Y130485D01*
X291180Y130507D01*
X291213Y130529D01*
X291243Y130548D01*
X291265Y130570D01*
X291287Y130585D01*
X291302Y130599D01*
X291313Y130611D01*
X291321Y130618D01*
X291324Y130622D01*
X291358Y130666D01*
X291391Y130718D01*
X291417Y130770D01*
X291439Y130825D01*
X291476Y130940D01*
X291498Y131051D01*
X291506Y131103D01*
X291513Y131154D01*
X291517Y131195D01*
X291521Y131236D01*
X291524Y131265D01*
Y131291D01*
Y131306D01*
Y131310D01*
X291521Y131387D01*
X291517Y131458D01*
X291506Y131528D01*
X291495Y131591D01*
X291480Y131647D01*
X291461Y131698D01*
X291443Y131746D01*
X291424Y131791D01*
X291410Y131828D01*
X291391Y131861D01*
X291373Y131887D01*
X291358Y131909D01*
X291347Y131928D01*
X291336Y131939D01*
X291332Y131946D01*
X291328Y131950D01*
X291287Y131987D01*
X291247Y132024D01*
X291202Y132050D01*
X291158Y132076D01*
X291114Y132098D01*
X291069Y132116D01*
X290984Y132142D01*
X290943Y132150D01*
X290906Y132157D01*
X290873Y132161D01*
X290844Y132165D01*
X290821Y132168D01*
X290788D01*
X290707Y132165D01*
X290636Y132150D01*
X290573Y132135D01*
X290518Y132113D01*
X290477Y132094D01*
X290444Y132076D01*
X290425Y132061D01*
X290418Y132057D01*
X290366Y132013D01*
X290322Y131965D01*
X290285Y131917D01*
X290259Y131869D01*
X290237Y131824D01*
X290222Y131791D01*
X290214Y131769D01*
X290211Y131765D01*
Y131761D01*
X289697Y131857D01*
X289711Y131920D01*
X289734Y131983D01*
X289756Y132039D01*
X289785Y132090D01*
X289811Y132142D01*
X289841Y132187D01*
X289870Y132227D01*
X289900Y132264D01*
X289930Y132298D01*
X289955Y132327D01*
X289978Y132353D01*
X290000Y132372D01*
X290018Y132387D01*
X290033Y132401D01*
X290041Y132405D01*
X290044Y132409D01*
X290096Y132446D01*
X290152Y132475D01*
X290211Y132501D01*
X290274Y132523D01*
X290396Y132560D01*
X290514Y132583D01*
X290570Y132594D01*
X290621Y132597D01*
X290670Y132601D01*
X290710Y132605D01*
X290744Y132608D01*
X290788D01*
X290921Y132605D01*
D02*
G37*
G36*
X308589Y131191D02*
Y131114D01*
X308585Y131040D01*
Y130969D01*
X308581Y130906D01*
X308578Y130847D01*
X308574Y130796D01*
X308570Y130747D01*
X308563Y130703D01*
X308559Y130666D01*
X308555Y130633D01*
X308552Y130603D01*
X308548Y130581D01*
X308544Y130562D01*
Y130551D01*
X308541Y130544D01*
Y130540D01*
X308522Y130485D01*
X308504Y130433D01*
X308478Y130385D01*
X308455Y130344D01*
X308433Y130307D01*
X308415Y130278D01*
X308400Y130263D01*
X308396Y130255D01*
X308352Y130207D01*
X308304Y130163D01*
X308252Y130126D01*
X308204Y130093D01*
X308163Y130067D01*
X308126Y130048D01*
X308104Y130037D01*
X308100Y130033D01*
X308097D01*
X308060Y130018D01*
X308019Y130007D01*
X307926Y129985D01*
X307834Y129970D01*
X307745Y129963D01*
X307704Y129959D01*
X307664Y129956D01*
X307630D01*
X307597Y129952D01*
X307538D01*
X307431Y129956D01*
X307334Y129963D01*
X307249Y129978D01*
X307179Y129993D01*
X307149Y129996D01*
X307120Y130004D01*
X307098Y130011D01*
X307079Y130018D01*
X307064Y130022D01*
X307053Y130026D01*
X307049Y130030D01*
X307046D01*
X306979Y130059D01*
X306920Y130096D01*
X306868Y130130D01*
X306824Y130163D01*
X306790Y130192D01*
X306765Y130215D01*
X306750Y130229D01*
X306746Y130237D01*
X306705Y130289D01*
X306672Y130344D01*
X306646Y130396D01*
X306624Y130448D01*
X306609Y130492D01*
X306598Y130529D01*
X306594Y130540D01*
Y130551D01*
X306591Y130555D01*
Y130559D01*
X306583Y130599D01*
X306576Y130644D01*
X306569Y130692D01*
X306565Y130740D01*
X306557Y130851D01*
X306550Y130958D01*
Y131006D01*
Y131054D01*
X306546Y131099D01*
Y131136D01*
Y131166D01*
Y131191D01*
Y131206D01*
Y131210D01*
Y132560D01*
X307064D01*
Y131140D01*
Y131084D01*
Y131032D01*
X307068Y130984D01*
Y130940D01*
X307072Y130903D01*
Y130866D01*
X307075Y130833D01*
Y130803D01*
X307083Y130759D01*
X307086Y130725D01*
X307090Y130707D01*
Y130699D01*
X307101Y130651D01*
X307120Y130611D01*
X307142Y130573D01*
X307164Y130540D01*
X307186Y130514D01*
X307205Y130496D01*
X307220Y130485D01*
X307223Y130481D01*
X307268Y130451D01*
X307323Y130429D01*
X307375Y130414D01*
X307431Y130403D01*
X307479Y130396D01*
X307516Y130392D01*
X307553D01*
X307630Y130396D01*
X307697Y130407D01*
X307756Y130422D01*
X307808Y130440D01*
X307845Y130455D01*
X307875Y130470D01*
X307889Y130481D01*
X307897Y130485D01*
X307938Y130522D01*
X307971Y130566D01*
X308000Y130607D01*
X308019Y130648D01*
X308034Y130684D01*
X308045Y130714D01*
X308052Y130733D01*
Y130740D01*
X308056Y130762D01*
X308060Y130784D01*
Y130814D01*
X308063Y130847D01*
X308067Y130918D01*
Y130992D01*
X308071Y131058D01*
Y131088D01*
Y131117D01*
Y131140D01*
Y131154D01*
Y131166D01*
Y131169D01*
Y132560D01*
X308589D01*
Y131191D01*
D02*
G37*
G36*
X293915Y132605D02*
X294007Y132601D01*
X294096Y132590D01*
X294185Y132575D01*
X294262Y132560D01*
X294340Y132542D01*
X294410Y132520D01*
X294477Y132501D01*
X294536Y132483D01*
X294588Y132460D01*
X294632Y132442D01*
X294673Y132427D01*
X294703Y132412D01*
X294725Y132405D01*
X294740Y132398D01*
X294743Y132394D01*
X294817Y132353D01*
X294888Y132305D01*
X294951Y132257D01*
X295013Y132205D01*
X295069Y132153D01*
X295121Y132102D01*
X295169Y132046D01*
X295213Y131998D01*
X295250Y131950D01*
X295284Y131902D01*
X295313Y131861D01*
X295335Y131828D01*
X295354Y131798D01*
X295369Y131776D01*
X295376Y131761D01*
X295380Y131757D01*
X295420Y131676D01*
X295454Y131595D01*
X295487Y131513D01*
X295513Y131436D01*
X295535Y131358D01*
X295554Y131280D01*
X295568Y131206D01*
X295580Y131140D01*
X295591Y131077D01*
X295598Y131017D01*
X295602Y130966D01*
X295605Y130925D01*
X295609Y130888D01*
Y130862D01*
Y130847D01*
Y130840D01*
X295605Y130759D01*
X295602Y130677D01*
X295576Y130522D01*
X295561Y130448D01*
X295546Y130381D01*
X295528Y130318D01*
X295505Y130259D01*
X295487Y130203D01*
X295468Y130155D01*
X295454Y130115D01*
X295439Y130078D01*
X295424Y130048D01*
X295413Y130030D01*
X295409Y130015D01*
X295406Y130011D01*
X295365Y129941D01*
X295321Y129878D01*
X295272Y129819D01*
X295224Y129763D01*
X295173Y129711D01*
X295121Y129663D01*
X295069Y129623D01*
X295017Y129582D01*
X294973Y129549D01*
X294928Y129519D01*
X294888Y129493D01*
X294851Y129475D01*
X294825Y129460D01*
X294802Y129449D01*
X294788Y129441D01*
X294784Y129438D01*
X294703Y129404D01*
X294621Y129375D01*
X294536Y129345D01*
X294451Y129323D01*
X294281Y129290D01*
X294203Y129275D01*
X294125Y129267D01*
X294055Y129256D01*
X293988Y129253D01*
X293933Y129249D01*
X293881Y129245D01*
X293841Y129242D01*
X293785D01*
X293674Y129245D01*
X293570Y129253D01*
X293471Y129264D01*
X293374Y129279D01*
X293285Y129297D01*
X293204Y129315D01*
X293126Y129338D01*
X293056Y129360D01*
X292993Y129378D01*
X292938Y129401D01*
X292890Y129419D01*
X292849Y129438D01*
X292816Y129452D01*
X292793Y129464D01*
X292779Y129471D01*
X292775Y129475D01*
X292708Y129515D01*
X292649Y129556D01*
X292594Y129600D01*
X292538Y129648D01*
X292490Y129693D01*
X292446Y129741D01*
X292409Y129785D01*
X292372Y129830D01*
X292342Y129870D01*
X292312Y129911D01*
X292290Y129945D01*
X292272Y129974D01*
X292257Y130000D01*
X292246Y130018D01*
X292242Y130030D01*
X292238Y130033D01*
X292612D01*
X292686Y129952D01*
X292768Y129882D01*
X292845Y129819D01*
X292923Y129771D01*
X292993Y129730D01*
X293023Y129715D01*
X293049Y129704D01*
X293067Y129693D01*
X293082Y129689D01*
X293093Y129682D01*
X293097D01*
X293215Y129641D01*
X293334Y129615D01*
X293456Y129593D01*
X293567Y129578D01*
X293618Y129575D01*
X293667Y129571D01*
X293707Y129567D01*
X293744D01*
X293774Y129563D01*
X293815D01*
X293970Y129571D01*
X294118Y129586D01*
X294185Y129597D01*
X294248Y129608D01*
X294307Y129619D01*
X294362Y129634D01*
X294410Y129648D01*
X294455Y129660D01*
X294492Y129671D01*
X294525Y129682D01*
X294551Y129693D01*
X294569Y129697D01*
X294581Y129704D01*
X294584D01*
X294647Y129734D01*
X294703Y129763D01*
X294758Y129797D01*
X294806Y129833D01*
X294854Y129867D01*
X294899Y129904D01*
X294936Y129941D01*
X294973Y129978D01*
X295002Y130011D01*
X295028Y130041D01*
X295054Y130070D01*
X295073Y130096D01*
X295087Y130115D01*
X295098Y130130D01*
X295102Y130141D01*
X295106Y130144D01*
X295139Y130203D01*
X295165Y130259D01*
X295191Y130318D01*
X295213Y130377D01*
X295247Y130488D01*
X295269Y130592D01*
X295276Y130640D01*
X295280Y130681D01*
X295284Y130721D01*
X295287Y130751D01*
X295291Y130777D01*
Y130799D01*
Y130810D01*
Y130814D01*
X295287Y130884D01*
X295284Y130955D01*
X295265Y131088D01*
X295239Y131214D01*
X295224Y131269D01*
X295206Y131325D01*
X295191Y131373D01*
X295176Y131417D01*
X295161Y131454D01*
X295150Y131487D01*
X295139Y131513D01*
X295132Y131532D01*
X295124Y131543D01*
Y131547D01*
X295091Y131609D01*
X295054Y131672D01*
X295017Y131728D01*
X294976Y131780D01*
X294936Y131828D01*
X294895Y131872D01*
X294854Y131913D01*
X294814Y131950D01*
X294777Y131983D01*
X294743Y132013D01*
X294710Y132035D01*
X294684Y132053D01*
X294658Y132072D01*
X294643Y132083D01*
X294632Y132087D01*
X294629Y132090D01*
X294566Y132124D01*
X294499Y132157D01*
X294432Y132183D01*
X294366Y132205D01*
X294229Y132238D01*
X294166Y132253D01*
X294103Y132261D01*
X294044Y132272D01*
X293992Y132275D01*
X293944Y132279D01*
X293903Y132283D01*
X293870Y132287D01*
X293826D01*
X293726Y132283D01*
X293630Y132275D01*
X293541Y132261D01*
X293456Y132242D01*
X293378Y132220D01*
X293308Y132194D01*
X293241Y132168D01*
X293186Y132142D01*
X293134Y132113D01*
X293086Y132087D01*
X293049Y132061D01*
X293015Y132039D01*
X292993Y132020D01*
X292975Y132005D01*
X292964Y131998D01*
X292960Y131994D01*
X292904Y131939D01*
X292856Y131880D01*
X292816Y131820D01*
X292779Y131761D01*
X292749Y131698D01*
X292723Y131639D01*
X292701Y131584D01*
X292686Y131528D01*
X292671Y131476D01*
X292660Y131428D01*
X292656Y131384D01*
X292649Y131347D01*
Y131317D01*
X292645Y131295D01*
Y131280D01*
Y131277D01*
X292649Y131188D01*
X292664Y131103D01*
X292679Y131025D01*
X292701Y130955D01*
X292719Y130895D01*
X292730Y130869D01*
X292738Y130851D01*
X292745Y130833D01*
X292753Y130821D01*
X292756Y130814D01*
Y130810D01*
X292801Y130733D01*
X292849Y130662D01*
X292897Y130599D01*
X292941Y130551D01*
X292982Y130511D01*
X293015Y130481D01*
X293038Y130463D01*
X293041Y130455D01*
X293045D01*
X293093Y130422D01*
X293134Y130396D01*
X293171Y130381D01*
X293204Y130366D01*
X293230Y130359D01*
X293249Y130355D01*
X293263D01*
X293282Y130359D01*
X293297Y130366D01*
X293308Y130370D01*
X293311Y130374D01*
X293322Y130392D01*
X293326Y130414D01*
X293330Y130433D01*
Y130440D01*
Y130459D01*
X293326Y130481D01*
X293319Y130533D01*
X293315Y130555D01*
X293311Y130577D01*
X293308Y130592D01*
Y130596D01*
X293041Y131850D01*
X293508D01*
X293548Y131654D01*
X293578Y131695D01*
X293611Y131732D01*
X293644Y131765D01*
X293681Y131795D01*
X293718Y131817D01*
X293759Y131835D01*
X293833Y131865D01*
X293900Y131883D01*
X293929Y131887D01*
X293955Y131891D01*
X293977Y131894D01*
X294007D01*
X294088Y131891D01*
X294162Y131876D01*
X294236Y131857D01*
X294303Y131832D01*
X294366Y131798D01*
X294425Y131765D01*
X294477Y131724D01*
X294529Y131687D01*
X294573Y131650D01*
X294610Y131609D01*
X294643Y131576D01*
X294669Y131547D01*
X294691Y131517D01*
X294710Y131499D01*
X294717Y131484D01*
X294721Y131480D01*
X294762Y131417D01*
X294795Y131351D01*
X294828Y131284D01*
X294854Y131221D01*
X294877Y131154D01*
X294895Y131091D01*
X294910Y131032D01*
X294921Y130977D01*
X294932Y130925D01*
X294939Y130877D01*
X294943Y130836D01*
X294947Y130799D01*
X294951Y130770D01*
Y130747D01*
Y130733D01*
Y130729D01*
X294947Y130670D01*
X294943Y130611D01*
X294921Y130507D01*
X294891Y130418D01*
X294873Y130377D01*
X294854Y130340D01*
X294840Y130307D01*
X294821Y130281D01*
X294806Y130255D01*
X294791Y130237D01*
X294780Y130222D01*
X294769Y130211D01*
X294765Y130203D01*
X294762Y130200D01*
X294725Y130166D01*
X294684Y130133D01*
X294647Y130107D01*
X294606Y130085D01*
X294525Y130048D01*
X294447Y130026D01*
X294381Y130011D01*
X294355Y130007D01*
X294329Y130004D01*
X294310Y130000D01*
X294281D01*
X294233Y130004D01*
X294185Y130007D01*
X294096Y130030D01*
X294014Y130063D01*
X293944Y130100D01*
X293885Y130133D01*
X293863Y130152D01*
X293844Y130166D01*
X293829Y130178D01*
X293818Y130189D01*
X293811Y130192D01*
X293807Y130196D01*
X293796Y130163D01*
X293781Y130133D01*
X293766Y130107D01*
X293748Y130085D01*
X293733Y130070D01*
X293722Y130059D01*
X293715Y130052D01*
X293711Y130048D01*
X293681Y130033D01*
X293644Y130022D01*
X293570Y130007D01*
X293541Y130004D01*
X293515Y130000D01*
X293489D01*
X293389Y130004D01*
X293297Y130018D01*
X293208Y130041D01*
X293126Y130070D01*
X293049Y130104D01*
X292975Y130144D01*
X292908Y130185D01*
X292849Y130226D01*
X292793Y130266D01*
X292745Y130307D01*
X292705Y130348D01*
X292671Y130381D01*
X292645Y130411D01*
X292623Y130433D01*
X292612Y130448D01*
X292608Y130451D01*
X292560Y130522D01*
X292516Y130592D01*
X292479Y130662D01*
X292449Y130729D01*
X292420Y130799D01*
X292397Y130866D01*
X292379Y130929D01*
X292364Y130992D01*
X292353Y131047D01*
X292346Y131099D01*
X292338Y131143D01*
X292335Y131184D01*
X292331Y131214D01*
Y131239D01*
Y131254D01*
Y131258D01*
X292335Y131328D01*
X292338Y131395D01*
X292360Y131524D01*
X292386Y131639D01*
X292405Y131695D01*
X292420Y131743D01*
X292438Y131787D01*
X292453Y131828D01*
X292472Y131861D01*
X292483Y131891D01*
X292494Y131917D01*
X292505Y131931D01*
X292509Y131942D01*
X292512Y131946D01*
X292549Y132005D01*
X292586Y132057D01*
X292671Y132157D01*
X292756Y132242D01*
X292801Y132275D01*
X292842Y132309D01*
X292882Y132338D01*
X292919Y132364D01*
X292952Y132387D01*
X292982Y132405D01*
X293004Y132416D01*
X293023Y132427D01*
X293034Y132431D01*
X293038Y132435D01*
X293101Y132464D01*
X293167Y132494D01*
X293304Y132535D01*
X293433Y132568D01*
X293496Y132579D01*
X293556Y132586D01*
X293611Y132594D01*
X293659Y132601D01*
X293707Y132605D01*
X293744D01*
X293774Y132608D01*
X293818D01*
X293915Y132605D01*
D02*
G37*
G36*
X275840D02*
X275947Y132594D01*
X276040Y132575D01*
X276121Y132557D01*
X276154Y132546D01*
X276188Y132538D01*
X276214Y132531D01*
X276236Y132520D01*
X276254Y132516D01*
X276269Y132509D01*
X276277Y132505D01*
X276280D01*
X276347Y132475D01*
X276410Y132438D01*
X276465Y132398D01*
X276513Y132361D01*
X276554Y132327D01*
X276587Y132298D01*
X276606Y132279D01*
X276610Y132275D01*
X276613Y132272D01*
X276665Y132213D01*
X276713Y132150D01*
X276754Y132094D01*
X276787Y132039D01*
X276813Y131991D01*
X276835Y131954D01*
X276839Y131939D01*
X276846Y131928D01*
X276850Y131924D01*
Y131920D01*
X276887Y131817D01*
X276917Y131706D01*
X276935Y131595D01*
X276950Y131491D01*
X276954Y131443D01*
X276957Y131399D01*
X276961Y131362D01*
Y131328D01*
X276965Y131299D01*
Y131280D01*
Y131265D01*
Y131262D01*
X276961Y131151D01*
X276950Y131043D01*
X276935Y130944D01*
X276913Y130851D01*
X276887Y130766D01*
X276857Y130688D01*
X276828Y130614D01*
X276795Y130551D01*
X276765Y130492D01*
X276735Y130444D01*
X276706Y130400D01*
X276680Y130363D01*
X276658Y130337D01*
X276643Y130315D01*
X276632Y130303D01*
X276628Y130300D01*
X276561Y130237D01*
X276491Y130185D01*
X276421Y130137D01*
X276343Y130100D01*
X276269Y130067D01*
X276191Y130037D01*
X276121Y130015D01*
X276047Y129996D01*
X275981Y129982D01*
X275918Y129970D01*
X275862Y129963D01*
X275814Y129959D01*
X275777Y129956D01*
X275747Y129952D01*
X275722D01*
X275618Y129956D01*
X275522Y129967D01*
X275429Y129985D01*
X275344Y130007D01*
X275263Y130033D01*
X275189Y130063D01*
X275122Y130093D01*
X275059Y130126D01*
X275008Y130159D01*
X274959Y130189D01*
X274919Y130218D01*
X274885Y130244D01*
X274856Y130266D01*
X274837Y130285D01*
X274826Y130296D01*
X274822Y130300D01*
X274763Y130370D01*
X274711Y130444D01*
X274663Y130522D01*
X274626Y130599D01*
X274593Y130681D01*
X274564Y130762D01*
X274541Y130844D01*
X274523Y130921D01*
X274512Y130992D01*
X274501Y131062D01*
X274493Y131121D01*
X274486Y131173D01*
Y131217D01*
X274482Y131251D01*
Y131269D01*
Y131277D01*
X274486Y131391D01*
X274497Y131499D01*
X274512Y131598D01*
X274534Y131695D01*
X274560Y131780D01*
X274589Y131861D01*
X274619Y131935D01*
X274652Y131998D01*
X274686Y132057D01*
X274715Y132109D01*
X274745Y132153D01*
X274771Y132190D01*
X274789Y132216D01*
X274808Y132238D01*
X274819Y132250D01*
X274822Y132253D01*
X274889Y132316D01*
X274959Y132372D01*
X275033Y132420D01*
X275107Y132460D01*
X275185Y132494D01*
X275259Y132523D01*
X275333Y132546D01*
X275403Y132564D01*
X275470Y132579D01*
X275533Y132590D01*
X275588Y132597D01*
X275637Y132605D01*
X275674D01*
X275703Y132608D01*
X275729D01*
X275840Y132605D01*
D02*
G37*
G36*
X310331D02*
X310431Y132594D01*
X310524Y132575D01*
X310613Y132553D01*
X310694Y132527D01*
X310768Y132498D01*
X310835Y132464D01*
X310897Y132435D01*
X310953Y132401D01*
X311001Y132368D01*
X311042Y132338D01*
X311075Y132313D01*
X311105Y132290D01*
X311123Y132272D01*
X311134Y132261D01*
X311138Y132257D01*
X311197Y132190D01*
X311249Y132116D01*
X311293Y132039D01*
X311330Y131957D01*
X311364Y131876D01*
X311390Y131795D01*
X311412Y131717D01*
X311430Y131639D01*
X311441Y131565D01*
X311453Y131499D01*
X311460Y131436D01*
X311467Y131384D01*
Y131339D01*
X311471Y131310D01*
Y131288D01*
Y131280D01*
X311467Y131166D01*
X311456Y131058D01*
X311441Y130955D01*
X311419Y130858D01*
X311393Y130773D01*
X311364Y130692D01*
X311334Y130618D01*
X311304Y130551D01*
X311275Y130496D01*
X311242Y130444D01*
X311216Y130400D01*
X311190Y130363D01*
X311168Y130337D01*
X311153Y130315D01*
X311142Y130303D01*
X311138Y130300D01*
X311071Y130237D01*
X311001Y130185D01*
X310927Y130137D01*
X310853Y130100D01*
X310775Y130067D01*
X310698Y130037D01*
X310624Y130015D01*
X310550Y129996D01*
X310483Y129982D01*
X310417Y129970D01*
X310361Y129963D01*
X310309Y129959D01*
X310268Y129956D01*
X310239Y129952D01*
X310213D01*
X310102Y129956D01*
X309998Y129970D01*
X309902Y129985D01*
X309821Y130007D01*
X309784Y130015D01*
X309754Y130026D01*
X309725Y130033D01*
X309702Y130044D01*
X309684Y130048D01*
X309669Y130055D01*
X309662Y130059D01*
X309658D01*
X309602Y130022D01*
X309551Y129989D01*
X309506Y129959D01*
X309469Y129937D01*
X309436Y129915D01*
X309406Y129896D01*
X309384Y129882D01*
X309366Y129870D01*
X309351Y129859D01*
X309336Y129852D01*
X309321Y129841D01*
X309314Y129837D01*
X309232Y129797D01*
X309192Y129778D01*
X309158Y129763D01*
X309129Y129752D01*
X309103Y129745D01*
X309088Y129737D01*
X309085D01*
X308892Y130107D01*
X308974Y130141D01*
X309051Y130174D01*
X309121Y130211D01*
X309184Y130244D01*
X309236Y130274D01*
X309273Y130300D01*
X309288Y130307D01*
X309299Y130315D01*
X309303Y130322D01*
X309307D01*
X309255Y130388D01*
X309207Y130455D01*
X309170Y130522D01*
X309140Y130577D01*
X309114Y130625D01*
X309099Y130662D01*
X309092Y130677D01*
X309088Y130688D01*
X309085Y130692D01*
Y130696D01*
X309051Y130792D01*
X309029Y130892D01*
X309011Y130992D01*
X308999Y131084D01*
X308996Y131125D01*
X308992Y131162D01*
Y131195D01*
X308988Y131225D01*
Y131247D01*
Y131265D01*
Y131277D01*
Y131280D01*
X308992Y131395D01*
X309003Y131502D01*
X309018Y131606D01*
X309040Y131698D01*
X309066Y131787D01*
X309096Y131865D01*
X309125Y131939D01*
X309155Y132005D01*
X309188Y132065D01*
X309218Y132113D01*
X309247Y132157D01*
X309273Y132194D01*
X309295Y132220D01*
X309310Y132242D01*
X309321Y132253D01*
X309325Y132257D01*
X309392Y132320D01*
X309458Y132372D01*
X309532Y132420D01*
X309606Y132460D01*
X309680Y132494D01*
X309758Y132523D01*
X309832Y132546D01*
X309902Y132564D01*
X309969Y132579D01*
X310028Y132590D01*
X310087Y132597D01*
X310132Y132605D01*
X310172D01*
X310202Y132608D01*
X310228D01*
X310331Y132605D01*
D02*
G37*
G36*
X399289Y173663D02*
X399350Y173574D01*
X399422Y173485D01*
X399489Y173408D01*
X399555Y173341D01*
X399605Y173285D01*
X399628Y173269D01*
X399644Y173252D01*
X399650Y173247D01*
X399655Y173241D01*
X399772Y173147D01*
X399888Y173058D01*
X399999Y172980D01*
X400110Y172919D01*
X400205Y172864D01*
X400244Y172842D01*
X400277Y172825D01*
X400305Y172808D01*
X400327Y172803D01*
X400338Y172792D01*
X400344D01*
Y172336D01*
X400260Y172370D01*
X400177Y172409D01*
X400094Y172448D01*
X400016Y172486D01*
X399950Y172520D01*
X399894Y172547D01*
X399861Y172570D01*
X399855Y172575D01*
X399850D01*
X399750Y172636D01*
X399661Y172697D01*
X399583Y172753D01*
X399522Y172803D01*
X399467Y172842D01*
X399433Y172875D01*
X399406Y172897D01*
X399400Y172903D01*
Y169900D01*
X398928D01*
Y173757D01*
X399234D01*
X399289Y173663D01*
D02*
G37*
G36*
X386900Y184300D02*
X386389D01*
Y186043D01*
X384586D01*
Y186498D01*
X386389D01*
Y187686D01*
X384303D01*
Y188141D01*
X386900D01*
Y184300D01*
D02*
G37*
G36*
X382421Y188063D02*
X382482Y187974D01*
X382554Y187885D01*
X382621Y187808D01*
X382688Y187741D01*
X382737Y187686D01*
X382760Y187669D01*
X382776Y187652D01*
X382782Y187647D01*
X382787Y187641D01*
X382904Y187547D01*
X383021Y187458D01*
X383132Y187380D01*
X383243Y187319D01*
X383337Y187264D01*
X383376Y187241D01*
X383409Y187225D01*
X383437Y187208D01*
X383459Y187203D01*
X383470Y187192D01*
X383476D01*
Y186736D01*
X383392Y186770D01*
X383309Y186809D01*
X383226Y186847D01*
X383148Y186886D01*
X383082Y186920D01*
X383026Y186947D01*
X382993Y186970D01*
X382987Y186975D01*
X382982D01*
X382882Y187036D01*
X382793Y187097D01*
X382715Y187153D01*
X382654Y187203D01*
X382599Y187241D01*
X382565Y187275D01*
X382538Y187297D01*
X382532Y187302D01*
Y184300D01*
X382060D01*
Y188157D01*
X382366D01*
X382421Y188063D01*
D02*
G37*
G36*
X405000Y169900D02*
X404512D01*
Y173169D01*
X403402Y169900D01*
X402947D01*
X401825Y173113D01*
Y169900D01*
X401337D01*
Y173741D01*
X402020D01*
X402941Y171065D01*
X402991Y170921D01*
X403030Y170799D01*
X403069Y170694D01*
X403096Y170605D01*
X403119Y170538D01*
X403135Y170488D01*
X403141Y170460D01*
X403146Y170449D01*
X403168Y170527D01*
X403196Y170616D01*
X403230Y170710D01*
X403257Y170805D01*
X403285Y170888D01*
X403307Y170955D01*
X403318Y170982D01*
X403324Y170999D01*
X403329Y171010D01*
Y171016D01*
X404240Y173741D01*
X405000D01*
Y169900D01*
D02*
G37*
G36*
X283636Y130000D02*
X283118D01*
Y132560D01*
X283636D01*
Y130000D01*
D02*
G37*
G36*
X286463D02*
X285915D01*
X285704Y130581D01*
X284676D01*
X284454Y130000D01*
X283895D01*
X284924Y132560D01*
X285471D01*
X286463Y130000D01*
D02*
G37*
G36*
X303682Y132127D02*
X302487D01*
X303838Y130466D01*
Y130000D01*
X301755D01*
Y130433D01*
X303213D01*
X301810Y132157D01*
Y132560D01*
X303682D01*
Y132127D01*
D02*
G37*
G36*
X282611Y130000D02*
X280805D01*
Y130433D01*
X282093D01*
Y132542D01*
X282611D01*
Y130000D01*
D02*
G37*
G36*
X312966Y132605D02*
X313062Y132594D01*
X313147Y132579D01*
X313221Y132564D01*
X313254Y132553D01*
X313284Y132546D01*
X313306Y132538D01*
X313328Y132531D01*
X313343Y132523D01*
X313354Y132520D01*
X313362Y132516D01*
X313365D01*
X313439Y132479D01*
X313502Y132438D01*
X313558Y132394D01*
X313602Y132353D01*
X313639Y132316D01*
X313661Y132287D01*
X313680Y132264D01*
X313684Y132261D01*
Y132257D01*
X313721Y132194D01*
X313747Y132127D01*
X313765Y132065D01*
X313776Y132009D01*
X313784Y131961D01*
X313791Y131924D01*
Y131909D01*
Y131898D01*
Y131894D01*
Y131891D01*
X313787Y131835D01*
X313780Y131780D01*
X313769Y131732D01*
X313754Y131684D01*
X313717Y131595D01*
X313672Y131517D01*
X313654Y131484D01*
X313632Y131458D01*
X313613Y131432D01*
X313595Y131410D01*
X313580Y131395D01*
X313569Y131384D01*
X313562Y131376D01*
X313558Y131373D01*
X313525Y131347D01*
X313484Y131321D01*
X313443Y131295D01*
X313395Y131273D01*
X313302Y131228D01*
X313206Y131191D01*
X313158Y131177D01*
X313118Y131162D01*
X313077Y131151D01*
X313043Y131140D01*
X313018Y131132D01*
X312995Y131125D01*
X312981Y131121D01*
X312977D01*
X312918Y131106D01*
X312866Y131091D01*
X312818Y131080D01*
X312773Y131069D01*
X312736Y131058D01*
X312703Y131051D01*
X312673Y131040D01*
X312648Y131032D01*
X312625Y131029D01*
X312607Y131021D01*
X312581Y131014D01*
X312566Y131006D01*
X312562D01*
X312514Y130988D01*
X312477Y130969D01*
X312444Y130951D01*
X312418Y130932D01*
X312400Y130918D01*
X312389Y130906D01*
X312381Y130899D01*
X312378Y130895D01*
X312359Y130869D01*
X312344Y130844D01*
X312337Y130818D01*
X312329Y130796D01*
X312326Y130773D01*
X312322Y130755D01*
Y130744D01*
Y130740D01*
X312326Y130688D01*
X312340Y130644D01*
X312363Y130599D01*
X312385Y130562D01*
X312411Y130533D01*
X312429Y130511D01*
X312444Y130496D01*
X312452Y130492D01*
X312503Y130459D01*
X312562Y130433D01*
X312625Y130414D01*
X312685Y130403D01*
X312740Y130396D01*
X312785Y130388D01*
X312825D01*
X312910Y130392D01*
X312984Y130407D01*
X313047Y130426D01*
X313103Y130448D01*
X313147Y130470D01*
X313177Y130488D01*
X313195Y130503D01*
X313203Y130507D01*
X313251Y130559D01*
X313288Y130614D01*
X313321Y130677D01*
X313343Y130740D01*
X313362Y130796D01*
X313376Y130840D01*
X313380Y130855D01*
Y130869D01*
X313384Y130877D01*
Y130881D01*
X313887Y130833D01*
X313876Y130755D01*
X313861Y130681D01*
X313839Y130611D01*
X313821Y130548D01*
X313795Y130488D01*
X313769Y130433D01*
X313743Y130385D01*
X313717Y130340D01*
X313691Y130303D01*
X313665Y130270D01*
X313643Y130240D01*
X313621Y130215D01*
X313606Y130196D01*
X313591Y130185D01*
X313584Y130178D01*
X313580Y130174D01*
X313528Y130133D01*
X313473Y130100D01*
X313414Y130070D01*
X313351Y130044D01*
X313291Y130026D01*
X313229Y130007D01*
X313106Y129982D01*
X313051Y129970D01*
X312999Y129963D01*
X312955Y129959D01*
X312914Y129956D01*
X312881Y129952D01*
X312833D01*
X312714Y129956D01*
X312607Y129967D01*
X312511Y129982D01*
X312470Y129989D01*
X312429Y130000D01*
X312396Y130007D01*
X312366Y130015D01*
X312340Y130022D01*
X312318Y130030D01*
X312300Y130037D01*
X312289Y130041D01*
X312281Y130044D01*
X312278D01*
X312196Y130085D01*
X312130Y130130D01*
X312067Y130174D01*
X312019Y130222D01*
X311982Y130263D01*
X311952Y130300D01*
X311937Y130322D01*
X311930Y130326D01*
Y130329D01*
X311889Y130403D01*
X311856Y130474D01*
X311834Y130544D01*
X311819Y130611D01*
X311811Y130662D01*
X311808Y130688D01*
X311804Y130707D01*
Y130721D01*
Y130733D01*
Y130740D01*
Y130744D01*
X311808Y130833D01*
X311819Y130910D01*
X311837Y130981D01*
X311856Y131040D01*
X311874Y131088D01*
X311893Y131121D01*
X311904Y131143D01*
X311908Y131151D01*
X311948Y131210D01*
X311996Y131262D01*
X312045Y131306D01*
X312089Y131343D01*
X312130Y131373D01*
X312163Y131395D01*
X312185Y131410D01*
X312189Y131413D01*
X312193D01*
X312229Y131432D01*
X312266Y131450D01*
X312355Y131484D01*
X312448Y131513D01*
X312537Y131543D01*
X312577Y131554D01*
X312618Y131565D01*
X312655Y131576D01*
X312685Y131584D01*
X312710Y131591D01*
X312729Y131595D01*
X312744Y131598D01*
X312748D01*
X312814Y131617D01*
X312873Y131632D01*
X312929Y131647D01*
X312981Y131661D01*
X313021Y131676D01*
X313062Y131691D01*
X313095Y131706D01*
X313125Y131717D01*
X313151Y131728D01*
X313169Y131739D01*
X313188Y131746D01*
X313199Y131754D01*
X313217Y131765D01*
X313221Y131769D01*
X313247Y131795D01*
X313265Y131820D01*
X313277Y131846D01*
X313284Y131872D01*
X313291Y131891D01*
X313295Y131909D01*
Y131920D01*
Y131924D01*
X313291Y131961D01*
X313284Y131991D01*
X313269Y132020D01*
X313254Y132042D01*
X313240Y132061D01*
X313225Y132072D01*
X313217Y132079D01*
X313214Y132083D01*
X313162Y132116D01*
X313106Y132139D01*
X313047Y132157D01*
X312992Y132168D01*
X312944Y132176D01*
X312903Y132179D01*
X312866D01*
X312788Y132176D01*
X312722Y132165D01*
X312666Y132150D01*
X312622Y132135D01*
X312585Y132120D01*
X312559Y132105D01*
X312544Y132094D01*
X312540Y132090D01*
X312503Y132053D01*
X312470Y132009D01*
X312444Y131965D01*
X312426Y131917D01*
X312411Y131876D01*
X312403Y131843D01*
X312396Y131817D01*
Y131813D01*
Y131809D01*
X311878Y131828D01*
X311882Y131894D01*
X311893Y131954D01*
X311908Y132013D01*
X311926Y132065D01*
X311945Y132116D01*
X311967Y132165D01*
X311989Y132205D01*
X312011Y132246D01*
X312037Y132279D01*
X312059Y132309D01*
X312082Y132335D01*
X312100Y132357D01*
X312115Y132372D01*
X312126Y132383D01*
X312133Y132390D01*
X312137Y132394D01*
X312185Y132431D01*
X312237Y132464D01*
X312292Y132494D01*
X312352Y132520D01*
X312411Y132538D01*
X312470Y132557D01*
X312588Y132583D01*
X312644Y132590D01*
X312692Y132597D01*
X312740Y132601D01*
X312781Y132605D01*
X312814Y132608D01*
X312859D01*
X312966Y132605D01*
D02*
G37*
G36*
X330822D02*
X330929Y132594D01*
X331022Y132575D01*
X331103Y132557D01*
X331136Y132546D01*
X331170Y132538D01*
X331196Y132531D01*
X331218Y132520D01*
X331236Y132516D01*
X331251Y132509D01*
X331259Y132505D01*
X331262D01*
X331329Y132475D01*
X331392Y132438D01*
X331447Y132398D01*
X331495Y132361D01*
X331536Y132327D01*
X331569Y132298D01*
X331588Y132279D01*
X331592Y132275D01*
X331595Y132272D01*
X331647Y132213D01*
X331695Y132150D01*
X331736Y132094D01*
X331769Y132039D01*
X331795Y131991D01*
X331817Y131954D01*
X331821Y131939D01*
X331828Y131928D01*
X331832Y131924D01*
Y131920D01*
X331869Y131817D01*
X331899Y131706D01*
X331917Y131595D01*
X331932Y131491D01*
X331936Y131443D01*
X331939Y131399D01*
X331943Y131362D01*
Y131328D01*
X331947Y131299D01*
Y131280D01*
Y131265D01*
Y131262D01*
X331943Y131151D01*
X331932Y131043D01*
X331917Y130944D01*
X331895Y130851D01*
X331869Y130766D01*
X331839Y130688D01*
X331810Y130614D01*
X331777Y130551D01*
X331747Y130492D01*
X331717Y130444D01*
X331688Y130400D01*
X331662Y130363D01*
X331640Y130337D01*
X331625Y130315D01*
X331614Y130303D01*
X331610Y130300D01*
X331543Y130237D01*
X331473Y130185D01*
X331403Y130137D01*
X331325Y130100D01*
X331251Y130067D01*
X331173Y130037D01*
X331103Y130015D01*
X331029Y129996D01*
X330963Y129982D01*
X330900Y129970D01*
X330844Y129963D01*
X330796Y129959D01*
X330759Y129956D01*
X330730Y129952D01*
X330704D01*
X330600Y129956D01*
X330504Y129967D01*
X330411Y129985D01*
X330326Y130007D01*
X330245Y130033D01*
X330171Y130063D01*
X330104Y130093D01*
X330041Y130126D01*
X329990Y130159D01*
X329941Y130189D01*
X329901Y130218D01*
X329867Y130244D01*
X329838Y130266D01*
X329819Y130285D01*
X329808Y130296D01*
X329804Y130300D01*
X329745Y130370D01*
X329694Y130444D01*
X329645Y130522D01*
X329608Y130599D01*
X329575Y130681D01*
X329545Y130762D01*
X329523Y130844D01*
X329505Y130921D01*
X329494Y130992D01*
X329483Y131062D01*
X329475Y131121D01*
X329468Y131173D01*
Y131217D01*
X329464Y131251D01*
Y131269D01*
Y131277D01*
X329468Y131391D01*
X329479Y131499D01*
X329494Y131598D01*
X329516Y131695D01*
X329542Y131780D01*
X329571Y131861D01*
X329601Y131935D01*
X329634Y131998D01*
X329668Y132057D01*
X329697Y132109D01*
X329727Y132153D01*
X329753Y132190D01*
X329771Y132216D01*
X329790Y132238D01*
X329801Y132250D01*
X329804Y132253D01*
X329871Y132316D01*
X329941Y132372D01*
X330015Y132420D01*
X330089Y132460D01*
X330167Y132494D01*
X330241Y132523D01*
X330315Y132546D01*
X330385Y132564D01*
X330452Y132579D01*
X330515Y132590D01*
X330570Y132597D01*
X330619Y132605D01*
X330656D01*
X330685Y132608D01*
X330711D01*
X330822Y132605D01*
D02*
G37*
G36*
X280443Y130000D02*
X279951D01*
Y130492D01*
X280443D01*
Y130000D01*
D02*
G37*
G36*
X360209D02*
X359661D01*
X359451Y130581D01*
X358422D01*
X358200Y130000D01*
X357641D01*
X358670Y132560D01*
X359217D01*
X360209Y130000D01*
D02*
G37*
G36*
X362122D02*
X360316D01*
Y130433D01*
X361604D01*
Y132542D01*
X362122D01*
Y130000D01*
D02*
G37*
G36*
X364520D02*
X362573D01*
Y130433D01*
X364001D01*
Y131129D01*
X362718D01*
Y131561D01*
X364001D01*
Y132127D01*
X362621D01*
Y132560D01*
X364520D01*
Y130000D01*
D02*
G37*
G36*
X349612D02*
X347666D01*
Y130433D01*
X349094D01*
Y131129D01*
X347810D01*
Y131561D01*
X349094D01*
Y132127D01*
X347714D01*
Y132560D01*
X349612D01*
Y130000D01*
D02*
G37*
G36*
X369503Y132605D02*
X369600Y132594D01*
X369685Y132579D01*
X369759Y132564D01*
X369792Y132553D01*
X369822Y132546D01*
X369844Y132538D01*
X369866Y132531D01*
X369881Y132523D01*
X369892Y132520D01*
X369899Y132516D01*
X369903D01*
X369977Y132479D01*
X370040Y132438D01*
X370095Y132394D01*
X370140Y132353D01*
X370177Y132316D01*
X370199Y132287D01*
X370217Y132264D01*
X370221Y132261D01*
Y132257D01*
X370258Y132194D01*
X370284Y132127D01*
X370303Y132065D01*
X370314Y132009D01*
X370321Y131961D01*
X370328Y131924D01*
Y131909D01*
Y131898D01*
Y131894D01*
Y131891D01*
X370325Y131835D01*
X370317Y131780D01*
X370306Y131732D01*
X370291Y131684D01*
X370254Y131595D01*
X370210Y131517D01*
X370192Y131484D01*
X370169Y131458D01*
X370151Y131432D01*
X370132Y131410D01*
X370118Y131395D01*
X370107Y131384D01*
X370099Y131376D01*
X370095Y131373D01*
X370062Y131347D01*
X370021Y131321D01*
X369981Y131295D01*
X369933Y131273D01*
X369840Y131228D01*
X369744Y131191D01*
X369696Y131177D01*
X369655Y131162D01*
X369614Y131151D01*
X369581Y131140D01*
X369555Y131132D01*
X369533Y131125D01*
X369518Y131121D01*
X369514D01*
X369455Y131106D01*
X369404Y131091D01*
X369355Y131080D01*
X369311Y131069D01*
X369274Y131058D01*
X369241Y131051D01*
X369211Y131040D01*
X369185Y131032D01*
X369163Y131029D01*
X369145Y131021D01*
X369119Y131014D01*
X369104Y131006D01*
X369100D01*
X369052Y130988D01*
X369015Y130969D01*
X368982Y130951D01*
X368956Y130932D01*
X368937Y130918D01*
X368926Y130906D01*
X368919Y130899D01*
X368915Y130895D01*
X368897Y130869D01*
X368882Y130844D01*
X368874Y130818D01*
X368867Y130796D01*
X368863Y130773D01*
X368860Y130755D01*
Y130744D01*
Y130740D01*
X368863Y130688D01*
X368878Y130644D01*
X368900Y130599D01*
X368922Y130562D01*
X368948Y130533D01*
X368967Y130511D01*
X368982Y130496D01*
X368989Y130492D01*
X369041Y130459D01*
X369100Y130433D01*
X369163Y130414D01*
X369222Y130403D01*
X369278Y130396D01*
X369322Y130388D01*
X369363D01*
X369448Y130392D01*
X369522Y130407D01*
X369585Y130426D01*
X369640Y130448D01*
X369685Y130470D01*
X369714Y130488D01*
X369733Y130503D01*
X369740Y130507D01*
X369788Y130559D01*
X369825Y130614D01*
X369859Y130677D01*
X369881Y130740D01*
X369899Y130796D01*
X369914Y130840D01*
X369918Y130855D01*
Y130869D01*
X369921Y130877D01*
Y130881D01*
X370425Y130833D01*
X370414Y130755D01*
X370399Y130681D01*
X370377Y130611D01*
X370358Y130548D01*
X370332Y130488D01*
X370306Y130433D01*
X370280Y130385D01*
X370254Y130340D01*
X370229Y130303D01*
X370203Y130270D01*
X370181Y130240D01*
X370158Y130215D01*
X370144Y130196D01*
X370129Y130185D01*
X370121Y130178D01*
X370118Y130174D01*
X370066Y130133D01*
X370010Y130100D01*
X369951Y130070D01*
X369888Y130044D01*
X369829Y130026D01*
X369766Y130007D01*
X369644Y129982D01*
X369588Y129970D01*
X369537Y129963D01*
X369492Y129959D01*
X369452Y129956D01*
X369418Y129952D01*
X369370D01*
X369252Y129956D01*
X369145Y129967D01*
X369048Y129982D01*
X369008Y129989D01*
X368967Y130000D01*
X368934Y130007D01*
X368904Y130015D01*
X368878Y130022D01*
X368856Y130030D01*
X368837Y130037D01*
X368826Y130041D01*
X368819Y130044D01*
X368815D01*
X368734Y130085D01*
X368667Y130130D01*
X368604Y130174D01*
X368556Y130222D01*
X368519Y130263D01*
X368490Y130300D01*
X368475Y130322D01*
X368467Y130326D01*
Y130329D01*
X368427Y130403D01*
X368393Y130474D01*
X368371Y130544D01*
X368356Y130611D01*
X368349Y130662D01*
X368345Y130688D01*
X368342Y130707D01*
Y130721D01*
Y130733D01*
Y130740D01*
Y130744D01*
X368345Y130833D01*
X368356Y130910D01*
X368375Y130981D01*
X368393Y131040D01*
X368412Y131088D01*
X368430Y131121D01*
X368442Y131143D01*
X368445Y131151D01*
X368486Y131210D01*
X368534Y131262D01*
X368582Y131306D01*
X368626Y131343D01*
X368667Y131373D01*
X368701Y131395D01*
X368723Y131410D01*
X368726Y131413D01*
X368730D01*
X368767Y131432D01*
X368804Y131450D01*
X368893Y131484D01*
X368985Y131513D01*
X369074Y131543D01*
X369115Y131554D01*
X369156Y131565D01*
X369193Y131576D01*
X369222Y131584D01*
X369248Y131591D01*
X369267Y131595D01*
X369281Y131598D01*
X369285D01*
X369352Y131617D01*
X369411Y131632D01*
X369466Y131647D01*
X369518Y131661D01*
X369559Y131676D01*
X369600Y131691D01*
X369633Y131706D01*
X369662Y131717D01*
X369688Y131728D01*
X369707Y131739D01*
X369725Y131746D01*
X369737Y131754D01*
X369755Y131765D01*
X369759Y131769D01*
X369785Y131795D01*
X369803Y131820D01*
X369814Y131846D01*
X369822Y131872D01*
X369829Y131891D01*
X369833Y131909D01*
Y131920D01*
Y131924D01*
X369829Y131961D01*
X369822Y131991D01*
X369807Y132020D01*
X369792Y132042D01*
X369777Y132061D01*
X369762Y132072D01*
X369755Y132079D01*
X369751Y132083D01*
X369700Y132116D01*
X369644Y132139D01*
X369585Y132157D01*
X369529Y132168D01*
X369481Y132176D01*
X369441Y132179D01*
X369404D01*
X369326Y132176D01*
X369259Y132165D01*
X369204Y132150D01*
X369159Y132135D01*
X369122Y132120D01*
X369096Y132105D01*
X369082Y132094D01*
X369078Y132090D01*
X369041Y132053D01*
X369008Y132009D01*
X368982Y131965D01*
X368963Y131917D01*
X368948Y131876D01*
X368941Y131843D01*
X368934Y131817D01*
Y131813D01*
Y131809D01*
X368416Y131828D01*
X368419Y131894D01*
X368430Y131954D01*
X368445Y132013D01*
X368464Y132065D01*
X368482Y132116D01*
X368504Y132165D01*
X368527Y132205D01*
X368549Y132246D01*
X368575Y132279D01*
X368597Y132309D01*
X368619Y132335D01*
X368638Y132357D01*
X368652Y132372D01*
X368664Y132383D01*
X368671Y132390D01*
X368675Y132394D01*
X368723Y132431D01*
X368775Y132464D01*
X368830Y132494D01*
X368889Y132520D01*
X368948Y132538D01*
X369008Y132557D01*
X369126Y132583D01*
X369181Y132590D01*
X369230Y132597D01*
X369278Y132601D01*
X369318Y132605D01*
X369352Y132608D01*
X369396D01*
X369503Y132605D01*
D02*
G37*
G36*
X376822D02*
X376929Y132594D01*
X377022Y132575D01*
X377103Y132557D01*
X377136Y132546D01*
X377170Y132538D01*
X377196Y132531D01*
X377218Y132520D01*
X377236Y132516D01*
X377251Y132509D01*
X377259Y132505D01*
X377262D01*
X377329Y132475D01*
X377392Y132438D01*
X377447Y132398D01*
X377495Y132361D01*
X377536Y132327D01*
X377569Y132298D01*
X377588Y132279D01*
X377592Y132275D01*
X377595Y132272D01*
X377647Y132213D01*
X377695Y132150D01*
X377736Y132094D01*
X377769Y132039D01*
X377795Y131991D01*
X377817Y131954D01*
X377821Y131939D01*
X377828Y131928D01*
X377832Y131924D01*
Y131920D01*
X377869Y131817D01*
X377899Y131706D01*
X377917Y131595D01*
X377932Y131491D01*
X377936Y131443D01*
X377939Y131399D01*
X377943Y131362D01*
Y131328D01*
X377947Y131299D01*
Y131280D01*
Y131265D01*
Y131262D01*
X377943Y131151D01*
X377932Y131043D01*
X377917Y130944D01*
X377895Y130851D01*
X377869Y130766D01*
X377839Y130688D01*
X377810Y130614D01*
X377777Y130551D01*
X377747Y130492D01*
X377717Y130444D01*
X377688Y130400D01*
X377662Y130363D01*
X377640Y130337D01*
X377625Y130315D01*
X377614Y130303D01*
X377610Y130300D01*
X377543Y130237D01*
X377473Y130185D01*
X377403Y130137D01*
X377325Y130100D01*
X377251Y130067D01*
X377173Y130037D01*
X377103Y130015D01*
X377029Y129996D01*
X376963Y129982D01*
X376900Y129970D01*
X376844Y129963D01*
X376796Y129959D01*
X376759Y129956D01*
X376729Y129952D01*
X376704D01*
X376600Y129956D01*
X376504Y129967D01*
X376411Y129985D01*
X376326Y130007D01*
X376245Y130033D01*
X376171Y130063D01*
X376104Y130093D01*
X376041Y130126D01*
X375990Y130159D01*
X375941Y130189D01*
X375901Y130218D01*
X375867Y130244D01*
X375838Y130266D01*
X375819Y130285D01*
X375808Y130296D01*
X375804Y130300D01*
X375745Y130370D01*
X375693Y130444D01*
X375645Y130522D01*
X375608Y130599D01*
X375575Y130681D01*
X375546Y130762D01*
X375523Y130844D01*
X375505Y130921D01*
X375494Y130992D01*
X375483Y131062D01*
X375475Y131121D01*
X375468Y131173D01*
Y131217D01*
X375464Y131251D01*
Y131269D01*
Y131277D01*
X375468Y131391D01*
X375479Y131499D01*
X375494Y131598D01*
X375516Y131695D01*
X375542Y131780D01*
X375571Y131861D01*
X375601Y131935D01*
X375634Y131998D01*
X375668Y132057D01*
X375697Y132109D01*
X375727Y132153D01*
X375753Y132190D01*
X375771Y132216D01*
X375790Y132238D01*
X375801Y132250D01*
X375804Y132253D01*
X375871Y132316D01*
X375941Y132372D01*
X376015Y132420D01*
X376089Y132460D01*
X376167Y132494D01*
X376241Y132523D01*
X376315Y132546D01*
X376385Y132564D01*
X376452Y132579D01*
X376515Y132590D01*
X376570Y132597D01*
X376619Y132605D01*
X376656D01*
X376685Y132608D01*
X376711D01*
X376822Y132605D01*
D02*
G37*
G36*
X347296Y132127D02*
X346101D01*
X347451Y130466D01*
Y130000D01*
X345368D01*
Y130433D01*
X346826D01*
X345424Y132157D01*
Y132560D01*
X347296D01*
Y132127D01*
D02*
G37*
G36*
X379416Y132605D02*
X379512Y132594D01*
X379597Y132575D01*
X379682Y132553D01*
X379756Y132527D01*
X379830Y132498D01*
X379893Y132464D01*
X379952Y132431D01*
X380008Y132398D01*
X380052Y132364D01*
X380093Y132335D01*
X380126Y132309D01*
X380152Y132287D01*
X380170Y132268D01*
X380182Y132257D01*
X380185Y132253D01*
X380244Y132183D01*
X380293Y132109D01*
X380337Y132031D01*
X380374Y131950D01*
X380407Y131865D01*
X380433Y131783D01*
X380455Y131702D01*
X380474Y131624D01*
X380489Y131547D01*
X380496Y131480D01*
X380504Y131417D01*
X380511Y131365D01*
Y131321D01*
X380515Y131288D01*
Y131265D01*
Y131262D01*
Y131258D01*
X380511Y131147D01*
X380500Y131043D01*
X380485Y130944D01*
X380463Y130855D01*
X380441Y130770D01*
X380411Y130688D01*
X380381Y130618D01*
X380352Y130555D01*
X380322Y130496D01*
X380293Y130444D01*
X380263Y130403D01*
X380241Y130366D01*
X380219Y130340D01*
X380204Y130318D01*
X380193Y130307D01*
X380189Y130303D01*
X380126Y130240D01*
X380060Y130189D01*
X379989Y130141D01*
X379919Y130104D01*
X379849Y130070D01*
X379778Y130041D01*
X379712Y130018D01*
X379649Y130000D01*
X379586Y129985D01*
X379530Y129974D01*
X379479Y129967D01*
X379438Y129963D01*
X379401Y129959D01*
X379375Y129956D01*
X379353D01*
X379275Y129959D01*
X379205Y129963D01*
X379134Y129974D01*
X379072Y129989D01*
X379012Y130004D01*
X378957Y130018D01*
X378905Y130037D01*
X378857Y130059D01*
X378816Y130078D01*
X378779Y130096D01*
X378746Y130111D01*
X378720Y130126D01*
X378698Y130141D01*
X378683Y130152D01*
X378676Y130155D01*
X378672Y130159D01*
X378624Y130200D01*
X378579Y130244D01*
X378498Y130344D01*
X378432Y130448D01*
X378380Y130548D01*
X378358Y130596D01*
X378339Y130640D01*
X378324Y130681D01*
X378309Y130714D01*
X378298Y130744D01*
X378291Y130766D01*
X378287Y130781D01*
Y130784D01*
X378790Y130940D01*
X378820Y130840D01*
X378853Y130755D01*
X378887Y130684D01*
X378924Y130625D01*
X378953Y130581D01*
X378979Y130551D01*
X378998Y130533D01*
X379005Y130525D01*
X379064Y130481D01*
X379123Y130451D01*
X379183Y130429D01*
X379234Y130411D01*
X379282Y130403D01*
X379323Y130400D01*
X379338Y130396D01*
X379357D01*
X379408Y130400D01*
X379456Y130403D01*
X379545Y130429D01*
X379623Y130459D01*
X379686Y130499D01*
X379738Y130536D01*
X379775Y130566D01*
X379789Y130581D01*
X379801Y130592D01*
X379804Y130596D01*
X379808Y130599D01*
X379837Y130640D01*
X379863Y130688D01*
X379889Y130740D01*
X379908Y130796D01*
X379937Y130910D01*
X379960Y131025D01*
X379967Y131080D01*
X379971Y131129D01*
X379978Y131177D01*
Y131217D01*
X379982Y131247D01*
Y131273D01*
Y131291D01*
Y131295D01*
X379978Y131380D01*
X379974Y131458D01*
X379967Y131528D01*
X379956Y131595D01*
X379941Y131654D01*
X379926Y131709D01*
X379911Y131757D01*
X379893Y131802D01*
X379878Y131839D01*
X379863Y131872D01*
X379849Y131898D01*
X379834Y131920D01*
X379823Y131939D01*
X379815Y131950D01*
X379808Y131957D01*
Y131961D01*
X379775Y131998D01*
X379738Y132031D01*
X379701Y132057D01*
X379660Y132079D01*
X379582Y132116D01*
X379508Y132142D01*
X379445Y132157D01*
X379416Y132161D01*
X379394Y132165D01*
X379371Y132168D01*
X379345D01*
X379271Y132165D01*
X379205Y132150D01*
X379146Y132131D01*
X379094Y132109D01*
X379053Y132087D01*
X379024Y132068D01*
X379005Y132053D01*
X378998Y132050D01*
X378949Y132005D01*
X378905Y131954D01*
X378872Y131902D01*
X378846Y131850D01*
X378827Y131806D01*
X378816Y131772D01*
X378809Y131757D01*
Y131746D01*
X378805Y131743D01*
Y131739D01*
X378295Y131861D01*
X378332Y131968D01*
X378372Y132061D01*
X378417Y132142D01*
X378457Y132209D01*
X378498Y132261D01*
X378513Y132283D01*
X378528Y132301D01*
X378539Y132313D01*
X378550Y132324D01*
X378554Y132331D01*
X378557D01*
X378613Y132379D01*
X378676Y132423D01*
X378735Y132460D01*
X378798Y132490D01*
X378864Y132520D01*
X378927Y132542D01*
X378990Y132560D01*
X379049Y132575D01*
X379105Y132586D01*
X379157Y132594D01*
X379201Y132601D01*
X379242Y132605D01*
X379275Y132608D01*
X379320D01*
X379416Y132605D01*
D02*
G37*
G36*
X366251Y130000D02*
X365692D01*
X364782Y132560D01*
X365334D01*
X365959Y130666D01*
X366610Y132560D01*
X367169D01*
X366251Y130000D01*
D02*
G37*
G36*
X384000D02*
X383523D01*
Y131687D01*
X382483Y130000D01*
X381965D01*
Y132560D01*
X382442D01*
Y130836D01*
X383501Y132560D01*
X384000D01*
Y130000D01*
D02*
G37*
G36*
X352202Y131191D02*
Y131114D01*
X352199Y131040D01*
Y130969D01*
X352195Y130906D01*
X352191Y130847D01*
X352187Y130796D01*
X352184Y130747D01*
X352176Y130703D01*
X352173Y130666D01*
X352169Y130633D01*
X352165Y130603D01*
X352162Y130581D01*
X352158Y130562D01*
Y130551D01*
X352154Y130544D01*
Y130540D01*
X352136Y130485D01*
X352117Y130433D01*
X352091Y130385D01*
X352069Y130344D01*
X352047Y130307D01*
X352028Y130278D01*
X352013Y130263D01*
X352010Y130255D01*
X351965Y130207D01*
X351917Y130163D01*
X351866Y130126D01*
X351817Y130093D01*
X351777Y130067D01*
X351740Y130048D01*
X351717Y130037D01*
X351714Y130033D01*
X351710D01*
X351673Y130018D01*
X351632Y130007D01*
X351540Y129985D01*
X351447Y129970D01*
X351359Y129963D01*
X351318Y129959D01*
X351277Y129956D01*
X351244D01*
X351211Y129952D01*
X351151D01*
X351044Y129956D01*
X350948Y129963D01*
X350863Y129978D01*
X350793Y129993D01*
X350763Y129996D01*
X350733Y130004D01*
X350711Y130011D01*
X350693Y130018D01*
X350678Y130022D01*
X350667Y130026D01*
X350663Y130030D01*
X350659D01*
X350593Y130059D01*
X350534Y130096D01*
X350482Y130130D01*
X350437Y130163D01*
X350404Y130192D01*
X350378Y130215D01*
X350363Y130229D01*
X350360Y130237D01*
X350319Y130289D01*
X350286Y130344D01*
X350260Y130396D01*
X350237Y130448D01*
X350223Y130492D01*
X350212Y130529D01*
X350208Y130540D01*
Y130551D01*
X350204Y130555D01*
Y130559D01*
X350197Y130599D01*
X350189Y130644D01*
X350182Y130692D01*
X350178Y130740D01*
X350171Y130851D01*
X350164Y130958D01*
Y131006D01*
Y131054D01*
X350160Y131099D01*
Y131136D01*
Y131166D01*
Y131191D01*
Y131206D01*
Y131210D01*
Y132560D01*
X350678D01*
Y131140D01*
Y131084D01*
Y131032D01*
X350681Y130984D01*
Y130940D01*
X350685Y130903D01*
Y130866D01*
X350689Y130833D01*
Y130803D01*
X350696Y130759D01*
X350700Y130725D01*
X350704Y130707D01*
Y130699D01*
X350715Y130651D01*
X350733Y130611D01*
X350756Y130573D01*
X350778Y130540D01*
X350800Y130514D01*
X350818Y130496D01*
X350833Y130485D01*
X350837Y130481D01*
X350881Y130451D01*
X350937Y130429D01*
X350989Y130414D01*
X351044Y130403D01*
X351092Y130396D01*
X351129Y130392D01*
X351166D01*
X351244Y130396D01*
X351310Y130407D01*
X351370Y130422D01*
X351421Y130440D01*
X351459Y130455D01*
X351488Y130470D01*
X351503Y130481D01*
X351510Y130485D01*
X351551Y130522D01*
X351584Y130566D01*
X351614Y130607D01*
X351632Y130648D01*
X351647Y130684D01*
X351658Y130714D01*
X351666Y130733D01*
Y130740D01*
X351669Y130762D01*
X351673Y130784D01*
Y130814D01*
X351677Y130847D01*
X351680Y130918D01*
Y130992D01*
X351684Y131058D01*
Y131088D01*
Y131117D01*
Y131140D01*
Y131154D01*
Y131166D01*
Y131169D01*
Y132560D01*
X352202D01*
Y131191D01*
D02*
G37*
G36*
X373133Y130000D02*
X372586D01*
X372375Y130581D01*
X371346D01*
X371124Y130000D01*
X370565D01*
X371594Y132560D01*
X372142D01*
X373133Y130000D01*
D02*
G37*
G36*
X375046D02*
X373240D01*
Y130433D01*
X374528D01*
Y132542D01*
X375046D01*
Y130000D01*
D02*
G37*
G36*
X381436D02*
X380918D01*
Y132560D01*
X381436D01*
Y130000D01*
D02*
G37*
G36*
X338000D02*
X337523D01*
Y131687D01*
X336483Y130000D01*
X335965D01*
Y132560D01*
X336442D01*
Y130836D01*
X337501Y132560D01*
X338000D01*
Y130000D01*
D02*
G37*
G36*
X296738Y132490D02*
X296786Y132412D01*
X296837Y132338D01*
X296889Y132279D01*
X296934Y132231D01*
X296974Y132194D01*
X296989Y132179D01*
X297000Y132168D01*
X297008Y132165D01*
X297011Y132161D01*
X297093Y132102D01*
X297170Y132050D01*
X297241Y132009D01*
X297304Y131980D01*
X297356Y131957D01*
X297393Y131939D01*
X297407Y131935D01*
X297418Y131931D01*
X297422Y131928D01*
X297426D01*
Y131484D01*
X297293Y131535D01*
X297174Y131591D01*
X297119Y131621D01*
X297067Y131654D01*
X297019Y131684D01*
X296974Y131713D01*
X296934Y131743D01*
X296897Y131769D01*
X296867Y131791D01*
X296841Y131813D01*
X296819Y131832D01*
X296804Y131843D01*
X296797Y131850D01*
X296793Y131854D01*
Y130000D01*
X296301D01*
Y132575D01*
X296701D01*
X296738Y132490D01*
D02*
G37*
G36*
X289190Y130000D02*
X288712D01*
Y132013D01*
X288209Y130000D01*
X287710D01*
X287206Y132013D01*
X287203Y130000D01*
X286725D01*
Y132560D01*
X287502D01*
X287958Y130810D01*
X288416Y132560D01*
X289190D01*
Y130000D01*
D02*
G37*
G36*
X301470Y131191D02*
X301074Y131136D01*
X301041Y131169D01*
X301007Y131199D01*
X300974Y131225D01*
X300941Y131247D01*
X300878Y131280D01*
X300819Y131302D01*
X300767Y131314D01*
X300730Y131321D01*
X300715Y131325D01*
X300693D01*
X300634Y131321D01*
X300578Y131306D01*
X300530Y131288D01*
X300489Y131265D01*
X300460Y131239D01*
X300434Y131221D01*
X300419Y131206D01*
X300415Y131202D01*
X300378Y131154D01*
X300353Y131099D01*
X300334Y131040D01*
X300323Y130981D01*
X300312Y130929D01*
X300308Y130888D01*
Y130869D01*
Y130858D01*
Y130851D01*
Y130847D01*
X300312Y130759D01*
X300323Y130681D01*
X300341Y130618D01*
X300360Y130566D01*
X300382Y130522D01*
X300397Y130492D01*
X300412Y130477D01*
X300415Y130470D01*
X300456Y130429D01*
X300500Y130396D01*
X300545Y130374D01*
X300586Y130359D01*
X300623Y130351D01*
X300652Y130348D01*
X300671Y130344D01*
X300678D01*
X300726Y130348D01*
X300774Y130359D01*
X300815Y130374D01*
X300848Y130392D01*
X300878Y130411D01*
X300900Y130426D01*
X300915Y130437D01*
X300919Y130440D01*
X300952Y130481D01*
X300981Y130522D01*
X301004Y130566D01*
X301019Y130607D01*
X301030Y130644D01*
X301037Y130677D01*
X301041Y130696D01*
Y130703D01*
X301529Y130651D01*
X301518Y130592D01*
X301507Y130536D01*
X301470Y130437D01*
X301429Y130348D01*
X301407Y130311D01*
X301381Y130274D01*
X301359Y130244D01*
X301340Y130218D01*
X301318Y130196D01*
X301303Y130174D01*
X301289Y130159D01*
X301277Y130148D01*
X301270Y130144D01*
X301266Y130141D01*
X301222Y130107D01*
X301178Y130078D01*
X301130Y130052D01*
X301081Y130033D01*
X300981Y129996D01*
X300893Y129974D01*
X300848Y129967D01*
X300811Y129963D01*
X300774Y129959D01*
X300745Y129956D01*
X300719Y129952D01*
X300686D01*
X300604Y129956D01*
X300526Y129967D01*
X300456Y129982D01*
X300390Y130004D01*
X300327Y130030D01*
X300271Y130059D01*
X300219Y130089D01*
X300171Y130122D01*
X300131Y130152D01*
X300094Y130181D01*
X300060Y130211D01*
X300034Y130237D01*
X300016Y130259D01*
X300001Y130274D01*
X299994Y130285D01*
X299990Y130289D01*
X299957Y130337D01*
X299927Y130385D01*
X299905Y130433D01*
X299883Y130485D01*
X299849Y130581D01*
X299827Y130670D01*
X299820Y130707D01*
X299816Y130744D01*
X299809Y130777D01*
Y130807D01*
X299805Y130829D01*
Y130844D01*
Y130855D01*
Y130858D01*
X299809Y130929D01*
X299816Y130995D01*
X299827Y131058D01*
X299842Y131117D01*
X299857Y131169D01*
X299879Y131221D01*
X299897Y131269D01*
X299920Y131310D01*
X299942Y131347D01*
X299960Y131380D01*
X299983Y131410D01*
X299997Y131432D01*
X300012Y131450D01*
X300023Y131465D01*
X300031Y131473D01*
X300034Y131476D01*
X300079Y131517D01*
X300123Y131554D01*
X300171Y131587D01*
X300219Y131617D01*
X300264Y131639D01*
X300312Y131658D01*
X300397Y131687D01*
X300438Y131698D01*
X300475Y131706D01*
X300508Y131709D01*
X300534Y131713D01*
X300556Y131717D01*
X300589D01*
X300652Y131713D01*
X300715Y131702D01*
X300771Y131691D01*
X300822Y131676D01*
X300863Y131658D01*
X300896Y131647D01*
X300919Y131635D01*
X300922Y131632D01*
X300926D01*
X300848Y132068D01*
X299920D01*
Y132527D01*
X301218D01*
X301470Y131191D01*
D02*
G37*
G36*
X356579Y132605D02*
X356676Y132594D01*
X356761Y132579D01*
X356835Y132564D01*
X356868Y132553D01*
X356897Y132546D01*
X356920Y132538D01*
X356942Y132531D01*
X356957Y132523D01*
X356968Y132520D01*
X356975Y132516D01*
X356979D01*
X357053Y132479D01*
X357116Y132438D01*
X357171Y132394D01*
X357216Y132353D01*
X357253Y132316D01*
X357275Y132287D01*
X357293Y132264D01*
X357297Y132261D01*
Y132257D01*
X357334Y132194D01*
X357360Y132127D01*
X357379Y132065D01*
X357390Y132009D01*
X357397Y131961D01*
X357404Y131924D01*
Y131909D01*
Y131898D01*
Y131894D01*
Y131891D01*
X357401Y131835D01*
X357393Y131780D01*
X357382Y131732D01*
X357367Y131684D01*
X357330Y131595D01*
X357286Y131517D01*
X357267Y131484D01*
X357245Y131458D01*
X357227Y131432D01*
X357208Y131410D01*
X357193Y131395D01*
X357182Y131384D01*
X357175Y131376D01*
X357171Y131373D01*
X357138Y131347D01*
X357097Y131321D01*
X357057Y131295D01*
X357009Y131273D01*
X356916Y131228D01*
X356820Y131191D01*
X356772Y131177D01*
X356731Y131162D01*
X356690Y131151D01*
X356657Y131140D01*
X356631Y131132D01*
X356609Y131125D01*
X356594Y131121D01*
X356590D01*
X356531Y131106D01*
X356479Y131091D01*
X356431Y131080D01*
X356387Y131069D01*
X356350Y131058D01*
X356317Y131051D01*
X356287Y131040D01*
X356261Y131032D01*
X356239Y131029D01*
X356220Y131021D01*
X356194Y131014D01*
X356180Y131006D01*
X356176D01*
X356128Y130988D01*
X356091Y130969D01*
X356058Y130951D01*
X356032Y130932D01*
X356013Y130918D01*
X356002Y130906D01*
X355995Y130899D01*
X355991Y130895D01*
X355973Y130869D01*
X355958Y130844D01*
X355950Y130818D01*
X355943Y130796D01*
X355939Y130773D01*
X355936Y130755D01*
Y130744D01*
Y130740D01*
X355939Y130688D01*
X355954Y130644D01*
X355976Y130599D01*
X355998Y130562D01*
X356024Y130533D01*
X356043Y130511D01*
X356058Y130496D01*
X356065Y130492D01*
X356117Y130459D01*
X356176Y130433D01*
X356239Y130414D01*
X356298Y130403D01*
X356354Y130396D01*
X356398Y130388D01*
X356439D01*
X356524Y130392D01*
X356598Y130407D01*
X356661Y130426D01*
X356716Y130448D01*
X356761Y130470D01*
X356790Y130488D01*
X356809Y130503D01*
X356816Y130507D01*
X356864Y130559D01*
X356901Y130614D01*
X356934Y130677D01*
X356957Y130740D01*
X356975Y130796D01*
X356990Y130840D01*
X356994Y130855D01*
Y130869D01*
X356997Y130877D01*
Y130881D01*
X357501Y130833D01*
X357489Y130755D01*
X357475Y130681D01*
X357453Y130611D01*
X357434Y130548D01*
X357408Y130488D01*
X357382Y130433D01*
X357356Y130385D01*
X357330Y130340D01*
X357305Y130303D01*
X357279Y130270D01*
X357256Y130240D01*
X357234Y130215D01*
X357219Y130196D01*
X357205Y130185D01*
X357197Y130178D01*
X357193Y130174D01*
X357142Y130133D01*
X357086Y130100D01*
X357027Y130070D01*
X356964Y130044D01*
X356905Y130026D01*
X356842Y130007D01*
X356720Y129982D01*
X356664Y129970D01*
X356613Y129963D01*
X356568Y129959D01*
X356527Y129956D01*
X356494Y129952D01*
X356446D01*
X356328Y129956D01*
X356220Y129967D01*
X356124Y129982D01*
X356083Y129989D01*
X356043Y130000D01*
X356010Y130007D01*
X355980Y130015D01*
X355954Y130022D01*
X355932Y130030D01*
X355913Y130037D01*
X355902Y130041D01*
X355895Y130044D01*
X355891D01*
X355810Y130085D01*
X355743Y130130D01*
X355680Y130174D01*
X355632Y130222D01*
X355595Y130263D01*
X355566Y130300D01*
X355551Y130322D01*
X355543Y130326D01*
Y130329D01*
X355503Y130403D01*
X355469Y130474D01*
X355447Y130544D01*
X355432Y130611D01*
X355425Y130662D01*
X355421Y130688D01*
X355417Y130707D01*
Y130721D01*
Y130733D01*
Y130740D01*
Y130744D01*
X355421Y130833D01*
X355432Y130910D01*
X355451Y130981D01*
X355469Y131040D01*
X355488Y131088D01*
X355506Y131121D01*
X355517Y131143D01*
X355521Y131151D01*
X355562Y131210D01*
X355610Y131262D01*
X355658Y131306D01*
X355702Y131343D01*
X355743Y131373D01*
X355776Y131395D01*
X355799Y131410D01*
X355802Y131413D01*
X355806D01*
X355843Y131432D01*
X355880Y131450D01*
X355969Y131484D01*
X356061Y131513D01*
X356150Y131543D01*
X356191Y131554D01*
X356231Y131565D01*
X356269Y131576D01*
X356298Y131584D01*
X356324Y131591D01*
X356343Y131595D01*
X356357Y131598D01*
X356361D01*
X356428Y131617D01*
X356487Y131632D01*
X356542Y131647D01*
X356594Y131661D01*
X356635Y131676D01*
X356676Y131691D01*
X356709Y131706D01*
X356738Y131717D01*
X356764Y131728D01*
X356783Y131739D01*
X356801Y131746D01*
X356812Y131754D01*
X356831Y131765D01*
X356835Y131769D01*
X356860Y131795D01*
X356879Y131820D01*
X356890Y131846D01*
X356897Y131872D01*
X356905Y131891D01*
X356909Y131909D01*
Y131920D01*
Y131924D01*
X356905Y131961D01*
X356897Y131991D01*
X356883Y132020D01*
X356868Y132042D01*
X356853Y132061D01*
X356838Y132072D01*
X356831Y132079D01*
X356827Y132083D01*
X356775Y132116D01*
X356720Y132139D01*
X356661Y132157D01*
X356605Y132168D01*
X356557Y132176D01*
X356516Y132179D01*
X356479D01*
X356402Y132176D01*
X356335Y132165D01*
X356280Y132150D01*
X356235Y132135D01*
X356198Y132120D01*
X356172Y132105D01*
X356157Y132094D01*
X356154Y132090D01*
X356117Y132053D01*
X356083Y132009D01*
X356058Y131965D01*
X356039Y131917D01*
X356024Y131876D01*
X356017Y131843D01*
X356010Y131817D01*
Y131813D01*
Y131809D01*
X355491Y131828D01*
X355495Y131894D01*
X355506Y131954D01*
X355521Y132013D01*
X355540Y132065D01*
X355558Y132116D01*
X355580Y132165D01*
X355603Y132205D01*
X355625Y132246D01*
X355651Y132279D01*
X355673Y132309D01*
X355695Y132335D01*
X355714Y132357D01*
X355728Y132372D01*
X355739Y132383D01*
X355747Y132390D01*
X355750Y132394D01*
X355799Y132431D01*
X355850Y132464D01*
X355906Y132494D01*
X355965Y132520D01*
X356024Y132538D01*
X356083Y132557D01*
X356202Y132583D01*
X356257Y132590D01*
X356306Y132597D01*
X356354Y132601D01*
X356394Y132605D01*
X356428Y132608D01*
X356472D01*
X356579Y132605D01*
D02*
G37*
G36*
X353945D02*
X354045Y132594D01*
X354137Y132575D01*
X354226Y132553D01*
X354308Y132527D01*
X354381Y132498D01*
X354448Y132464D01*
X354511Y132435D01*
X354567Y132401D01*
X354615Y132368D01*
X354655Y132338D01*
X354689Y132313D01*
X354718Y132290D01*
X354737Y132272D01*
X354748Y132261D01*
X354751Y132257D01*
X354811Y132190D01*
X354862Y132116D01*
X354907Y132039D01*
X354944Y131957D01*
X354977Y131876D01*
X355003Y131795D01*
X355025Y131717D01*
X355044Y131639D01*
X355055Y131565D01*
X355066Y131499D01*
X355073Y131436D01*
X355081Y131384D01*
Y131339D01*
X355084Y131310D01*
Y131288D01*
Y131280D01*
X355081Y131166D01*
X355070Y131058D01*
X355055Y130955D01*
X355033Y130858D01*
X355007Y130773D01*
X354977Y130692D01*
X354948Y130618D01*
X354918Y130551D01*
X354888Y130496D01*
X354855Y130444D01*
X354829Y130400D01*
X354803Y130363D01*
X354781Y130337D01*
X354766Y130315D01*
X354755Y130303D01*
X354751Y130300D01*
X354685Y130237D01*
X354615Y130185D01*
X354541Y130137D01*
X354467Y130100D01*
X354389Y130067D01*
X354311Y130037D01*
X354237Y130015D01*
X354163Y129996D01*
X354097Y129982D01*
X354030Y129970D01*
X353975Y129963D01*
X353923Y129959D01*
X353882Y129956D01*
X353852Y129952D01*
X353826D01*
X353715Y129956D01*
X353612Y129970D01*
X353516Y129985D01*
X353434Y130007D01*
X353397Y130015D01*
X353368Y130026D01*
X353338Y130033D01*
X353316Y130044D01*
X353297Y130048D01*
X353283Y130055D01*
X353275Y130059D01*
X353272D01*
X353216Y130022D01*
X353164Y129989D01*
X353120Y129959D01*
X353083Y129937D01*
X353049Y129915D01*
X353020Y129896D01*
X352998Y129882D01*
X352979Y129870D01*
X352964Y129859D01*
X352950Y129852D01*
X352935Y129841D01*
X352927Y129837D01*
X352846Y129797D01*
X352805Y129778D01*
X352772Y129763D01*
X352742Y129752D01*
X352716Y129745D01*
X352702Y129737D01*
X352698D01*
X352506Y130107D01*
X352587Y130141D01*
X352665Y130174D01*
X352735Y130211D01*
X352798Y130244D01*
X352850Y130274D01*
X352887Y130300D01*
X352902Y130307D01*
X352913Y130315D01*
X352916Y130322D01*
X352920D01*
X352868Y130388D01*
X352820Y130455D01*
X352783Y130522D01*
X352753Y130577D01*
X352728Y130625D01*
X352713Y130662D01*
X352705Y130677D01*
X352702Y130688D01*
X352698Y130692D01*
Y130696D01*
X352665Y130792D01*
X352642Y130892D01*
X352624Y130992D01*
X352613Y131084D01*
X352609Y131125D01*
X352606Y131162D01*
Y131195D01*
X352602Y131225D01*
Y131247D01*
Y131265D01*
Y131277D01*
Y131280D01*
X352606Y131395D01*
X352617Y131502D01*
X352631Y131606D01*
X352654Y131698D01*
X352679Y131787D01*
X352709Y131865D01*
X352739Y131939D01*
X352768Y132005D01*
X352802Y132065D01*
X352831Y132113D01*
X352861Y132157D01*
X352887Y132194D01*
X352909Y132220D01*
X352924Y132242D01*
X352935Y132253D01*
X352939Y132257D01*
X353005Y132320D01*
X353072Y132372D01*
X353146Y132420D01*
X353220Y132460D01*
X353294Y132494D01*
X353371Y132523D01*
X353445Y132546D01*
X353516Y132564D01*
X353582Y132579D01*
X353642Y132590D01*
X353701Y132597D01*
X353745Y132605D01*
X353786D01*
X353815Y132608D01*
X353841D01*
X353945Y132605D01*
D02*
G37*
G36*
X298817Y132571D02*
X298887Y132564D01*
X298954Y132549D01*
X299009Y132535D01*
X299054Y132520D01*
X299091Y132505D01*
X299113Y132498D01*
X299117Y132494D01*
X299120D01*
X299180Y132460D01*
X299235Y132423D01*
X299279Y132387D01*
X299317Y132353D01*
X299346Y132320D01*
X299368Y132294D01*
X299383Y132279D01*
X299387Y132272D01*
X299420Y132216D01*
X299450Y132157D01*
X299472Y132094D01*
X299494Y132035D01*
X299509Y131980D01*
X299520Y131939D01*
X299524Y131920D01*
Y131909D01*
X299527Y131902D01*
Y131898D01*
X299076Y131824D01*
X299065Y131883D01*
X299050Y131935D01*
X299035Y131980D01*
X299017Y132013D01*
X298998Y132042D01*
X298984Y132065D01*
X298972Y132076D01*
X298969Y132079D01*
X298935Y132109D01*
X298898Y132131D01*
X298861Y132146D01*
X298828Y132157D01*
X298798Y132165D01*
X298776Y132168D01*
X298754D01*
X298710Y132165D01*
X298665Y132157D01*
X298632Y132142D01*
X298602Y132131D01*
X298576Y132116D01*
X298562Y132102D01*
X298551Y132094D01*
X298547Y132090D01*
X298521Y132061D01*
X298502Y132024D01*
X298488Y131991D01*
X298480Y131957D01*
X298473Y131928D01*
X298469Y131905D01*
Y131891D01*
Y131883D01*
X298473Y131828D01*
X298484Y131780D01*
X298502Y131739D01*
X298521Y131706D01*
X298543Y131676D01*
X298558Y131658D01*
X298573Y131643D01*
X298576Y131639D01*
X298621Y131609D01*
X298669Y131587D01*
X298721Y131572D01*
X298769Y131561D01*
X298813Y131558D01*
X298850Y131554D01*
X298884D01*
X298935Y131158D01*
X298887Y131169D01*
X298847Y131180D01*
X298806Y131188D01*
X298773Y131191D01*
X298747Y131195D01*
X298710D01*
X298658Y131191D01*
X298614Y131177D01*
X298573Y131162D01*
X298536Y131140D01*
X298510Y131121D01*
X298488Y131103D01*
X298473Y131088D01*
X298469Y131084D01*
X298436Y131040D01*
X298410Y130992D01*
X298392Y130944D01*
X298377Y130895D01*
X298369Y130851D01*
X298366Y130818D01*
Y130796D01*
Y130792D01*
Y130788D01*
X298369Y130718D01*
X298380Y130655D01*
X298399Y130599D01*
X298417Y130555D01*
X298440Y130522D01*
X298454Y130496D01*
X298469Y130477D01*
X298473Y130474D01*
X298514Y130437D01*
X298558Y130407D01*
X298599Y130388D01*
X298639Y130374D01*
X298676Y130366D01*
X298702Y130363D01*
X298721Y130359D01*
X298728D01*
X298780Y130363D01*
X298824Y130374D01*
X298865Y130388D01*
X298902Y130407D01*
X298928Y130422D01*
X298950Y130437D01*
X298965Y130448D01*
X298969Y130451D01*
X299002Y130492D01*
X299032Y130536D01*
X299050Y130585D01*
X299069Y130629D01*
X299080Y130670D01*
X299087Y130703D01*
X299091Y130725D01*
Y130729D01*
Y130733D01*
X299564Y130673D01*
X299557Y130614D01*
X299542Y130559D01*
X299509Y130455D01*
X299468Y130366D01*
X299442Y130329D01*
X299420Y130292D01*
X299398Y130259D01*
X299376Y130233D01*
X299357Y130207D01*
X299339Y130189D01*
X299324Y130174D01*
X299313Y130163D01*
X299305Y130155D01*
X299302Y130152D01*
X299257Y130118D01*
X299209Y130085D01*
X299165Y130059D01*
X299113Y130037D01*
X299017Y130000D01*
X298928Y129978D01*
X298884Y129970D01*
X298847Y129963D01*
X298813Y129959D01*
X298784Y129956D01*
X298758Y129952D01*
X298725D01*
X298658Y129956D01*
X298591Y129963D01*
X298532Y129974D01*
X298473Y129989D01*
X298421Y130007D01*
X298369Y130026D01*
X298321Y130048D01*
X298281Y130070D01*
X298243Y130093D01*
X298206Y130115D01*
X298181Y130133D01*
X298155Y130152D01*
X298136Y130166D01*
X298121Y130178D01*
X298114Y130185D01*
X298110Y130189D01*
X298066Y130233D01*
X298029Y130281D01*
X297996Y130329D01*
X297966Y130377D01*
X297944Y130429D01*
X297922Y130477D01*
X297892Y130566D01*
X297885Y130607D01*
X297877Y130648D01*
X297870Y130681D01*
X297866Y130710D01*
X297862Y130733D01*
Y130751D01*
Y130762D01*
Y130766D01*
X297870Y130851D01*
X297885Y130925D01*
X297903Y130995D01*
X297929Y131051D01*
X297955Y131099D01*
X297973Y131132D01*
X297988Y131154D01*
X297996Y131162D01*
X298047Y131217D01*
X298107Y131265D01*
X298166Y131302D01*
X298221Y131332D01*
X298269Y131354D01*
X298310Y131365D01*
X298325Y131373D01*
X298336D01*
X298343Y131376D01*
X298347D01*
X298281Y131417D01*
X298225Y131458D01*
X298177Y131502D01*
X298132Y131547D01*
X298095Y131591D01*
X298066Y131635D01*
X298044Y131680D01*
X298022Y131720D01*
X298007Y131761D01*
X297996Y131798D01*
X297988Y131832D01*
X297985Y131861D01*
X297981Y131883D01*
X297977Y131902D01*
Y131913D01*
Y131917D01*
X297981Y131961D01*
X297985Y132002D01*
X298007Y132083D01*
X298033Y132157D01*
X298066Y132220D01*
X298099Y132272D01*
X298129Y132309D01*
X298140Y132324D01*
X298151Y132335D01*
X298155Y132338D01*
X298158Y132342D01*
X298199Y132383D01*
X298247Y132420D01*
X298292Y132449D01*
X298340Y132475D01*
X298392Y132501D01*
X298440Y132520D01*
X298532Y132546D01*
X298573Y132557D01*
X298614Y132564D01*
X298647Y132568D01*
X298680Y132571D01*
X298706Y132575D01*
X298739D01*
X298817Y132571D01*
D02*
G37*
%LPC*%
G36*
X376733Y132168D02*
X376704D01*
X376644Y132165D01*
X376589Y132157D01*
X376537Y132150D01*
X376489Y132135D01*
X376404Y132098D01*
X376363Y132079D01*
X376330Y132061D01*
X376297Y132039D01*
X376271Y132020D01*
X376249Y132002D01*
X376226Y131983D01*
X376212Y131968D01*
X376200Y131961D01*
X376197Y131954D01*
X376193Y131950D01*
X376160Y131905D01*
X376126Y131857D01*
X376100Y131809D01*
X376078Y131754D01*
X376045Y131643D01*
X376023Y131535D01*
X376012Y131487D01*
X376008Y131439D01*
X376004Y131399D01*
X376001Y131362D01*
X375997Y131328D01*
Y131306D01*
Y131291D01*
Y131288D01*
X376001Y131206D01*
X376004Y131129D01*
X376015Y131058D01*
X376027Y130995D01*
X376041Y130932D01*
X376060Y130877D01*
X376078Y130829D01*
X376097Y130784D01*
X376115Y130744D01*
X376134Y130710D01*
X376149Y130681D01*
X376167Y130655D01*
X376178Y130636D01*
X376189Y130625D01*
X376193Y130618D01*
X376197Y130614D01*
X376234Y130573D01*
X376274Y130540D01*
X376319Y130511D01*
X376360Y130485D01*
X376404Y130466D01*
X376445Y130448D01*
X376526Y130422D01*
X376596Y130403D01*
X376626Y130400D01*
X376652Y130396D01*
X376674Y130392D01*
X376704D01*
X376759Y130396D01*
X376815Y130403D01*
X376866Y130414D01*
X376915Y130429D01*
X377003Y130463D01*
X377074Y130507D01*
X377107Y130525D01*
X377133Y130548D01*
X377159Y130566D01*
X377177Y130585D01*
X377192Y130596D01*
X377203Y130607D01*
X377210Y130614D01*
X377214Y130618D01*
X377248Y130662D01*
X377281Y130710D01*
X377307Y130762D01*
X377329Y130818D01*
X377366Y130925D01*
X377388Y131032D01*
X377396Y131084D01*
X377403Y131129D01*
X377407Y131173D01*
X377410Y131210D01*
X377414Y131239D01*
Y131262D01*
Y131277D01*
Y131280D01*
X377410Y131362D01*
X377407Y131436D01*
X377396Y131506D01*
X377384Y131572D01*
X377370Y131632D01*
X377355Y131687D01*
X377336Y131735D01*
X377318Y131780D01*
X377299Y131820D01*
X377281Y131854D01*
X377266Y131880D01*
X377251Y131905D01*
X377240Y131924D01*
X377229Y131935D01*
X377225Y131942D01*
X377222Y131946D01*
X377185Y131987D01*
X377144Y132020D01*
X377099Y132050D01*
X377059Y132076D01*
X377014Y132098D01*
X376970Y132113D01*
X376889Y132142D01*
X376815Y132157D01*
X376785Y132161D01*
X376755Y132165D01*
X376733Y132168D01*
D02*
G37*
G36*
X285201Y131965D02*
X284842Y131014D01*
X285549D01*
X285201Y131965D01*
D02*
G37*
G36*
X371871D02*
X371513Y131014D01*
X372219D01*
X371871Y131965D01*
D02*
G37*
G36*
X358947D02*
X358588Y131014D01*
X359295D01*
X358947Y131965D01*
D02*
G37*
G36*
X315334D02*
X314975Y131014D01*
X315682D01*
X315334Y131965D01*
D02*
G37*
G36*
X275751Y132168D02*
X275722D01*
X275662Y132165D01*
X275607Y132157D01*
X275555Y132150D01*
X275507Y132135D01*
X275422Y132098D01*
X275381Y132079D01*
X275348Y132061D01*
X275315Y132039D01*
X275289Y132020D01*
X275267Y132002D01*
X275244Y131983D01*
X275230Y131968D01*
X275218Y131961D01*
X275215Y131954D01*
X275211Y131950D01*
X275178Y131905D01*
X275144Y131857D01*
X275118Y131809D01*
X275096Y131754D01*
X275063Y131643D01*
X275041Y131535D01*
X275030Y131487D01*
X275026Y131439D01*
X275022Y131399D01*
X275019Y131362D01*
X275015Y131328D01*
Y131306D01*
Y131291D01*
Y131288D01*
X275019Y131206D01*
X275022Y131129D01*
X275033Y131058D01*
X275044Y130995D01*
X275059Y130932D01*
X275078Y130877D01*
X275096Y130829D01*
X275115Y130784D01*
X275133Y130744D01*
X275152Y130710D01*
X275167Y130681D01*
X275185Y130655D01*
X275196Y130636D01*
X275207Y130625D01*
X275211Y130618D01*
X275215Y130614D01*
X275252Y130573D01*
X275292Y130540D01*
X275337Y130511D01*
X275377Y130485D01*
X275422Y130466D01*
X275463Y130448D01*
X275544Y130422D01*
X275614Y130403D01*
X275644Y130400D01*
X275670Y130396D01*
X275692Y130392D01*
X275722D01*
X275777Y130396D01*
X275833Y130403D01*
X275884Y130414D01*
X275933Y130429D01*
X276021Y130463D01*
X276092Y130507D01*
X276125Y130525D01*
X276151Y130548D01*
X276177Y130566D01*
X276195Y130585D01*
X276210Y130596D01*
X276221Y130607D01*
X276228Y130614D01*
X276232Y130618D01*
X276266Y130662D01*
X276299Y130710D01*
X276325Y130762D01*
X276347Y130818D01*
X276384Y130925D01*
X276406Y131032D01*
X276413Y131084D01*
X276421Y131129D01*
X276425Y131173D01*
X276428Y131210D01*
X276432Y131239D01*
Y131262D01*
Y131277D01*
Y131280D01*
X276428Y131362D01*
X276425Y131436D01*
X276413Y131506D01*
X276402Y131572D01*
X276388Y131632D01*
X276373Y131687D01*
X276354Y131735D01*
X276336Y131780D01*
X276317Y131820D01*
X276299Y131854D01*
X276284Y131880D01*
X276269Y131905D01*
X276258Y131924D01*
X276247Y131935D01*
X276243Y131942D01*
X276240Y131946D01*
X276203Y131987D01*
X276162Y132020D01*
X276117Y132050D01*
X276077Y132076D01*
X276032Y132098D01*
X275988Y132113D01*
X275907Y132142D01*
X275833Y132157D01*
X275803Y132161D01*
X275773Y132165D01*
X275751Y132168D01*
D02*
G37*
G36*
X310261D02*
X310231D01*
X310172Y132165D01*
X310117Y132157D01*
X310065Y132146D01*
X310017Y132135D01*
X309928Y132098D01*
X309891Y132079D01*
X309854Y132057D01*
X309824Y132035D01*
X309795Y132017D01*
X309773Y131998D01*
X309754Y131980D01*
X309736Y131968D01*
X309725Y131957D01*
X309721Y131950D01*
X309717Y131946D01*
X309684Y131902D01*
X309651Y131854D01*
X309625Y131802D01*
X309602Y131750D01*
X309569Y131639D01*
X309547Y131532D01*
X309536Y131480D01*
X309532Y131432D01*
X309528Y131391D01*
X309525Y131354D01*
X309521Y131325D01*
Y131299D01*
Y131284D01*
Y131280D01*
X309525Y131202D01*
X309528Y131129D01*
X309536Y131062D01*
X309547Y131006D01*
X309558Y130958D01*
X309565Y130925D01*
X309569Y130903D01*
X309573Y130899D01*
Y130895D01*
X309595Y130836D01*
X309617Y130781D01*
X309643Y130733D01*
X309669Y130692D01*
X309691Y130659D01*
X309710Y130633D01*
X309721Y130614D01*
X309725Y130611D01*
X309810Y130673D01*
X309898Y130729D01*
X309980Y130773D01*
X310054Y130810D01*
X310117Y130840D01*
X310143Y130851D01*
X310165Y130862D01*
X310183Y130869D01*
X310198Y130873D01*
X310206Y130877D01*
X310209D01*
X310354Y130577D01*
X310294Y130555D01*
X310235Y130525D01*
X310183Y130499D01*
X310135Y130474D01*
X310095Y130451D01*
X310061Y130433D01*
X310043Y130418D01*
X310035Y130414D01*
X310109Y130396D01*
X310146Y130388D01*
X310180Y130385D01*
X310206D01*
X310228Y130381D01*
X310246D01*
X310302Y130385D01*
X310354Y130392D01*
X310402Y130403D01*
X310450Y130414D01*
X310535Y130451D01*
X310605Y130492D01*
X310638Y130514D01*
X310664Y130533D01*
X310687Y130551D01*
X310705Y130570D01*
X310724Y130581D01*
X310735Y130592D01*
X310738Y130599D01*
X310742Y130603D01*
X310775Y130648D01*
X310805Y130696D01*
X310835Y130751D01*
X310857Y130803D01*
X310890Y130918D01*
X310912Y131025D01*
X310923Y131077D01*
X310927Y131125D01*
X310931Y131169D01*
X310934Y131206D01*
X310938Y131236D01*
Y131262D01*
Y131277D01*
Y131280D01*
X310934Y131362D01*
X310931Y131436D01*
X310920Y131506D01*
X310909Y131572D01*
X310894Y131632D01*
X310875Y131687D01*
X310857Y131735D01*
X310838Y131780D01*
X310823Y131820D01*
X310805Y131854D01*
X310787Y131880D01*
X310772Y131905D01*
X310761Y131924D01*
X310750Y131935D01*
X310746Y131942D01*
X310742Y131946D01*
X310705Y131987D01*
X310664Y132020D01*
X310624Y132050D01*
X310579Y132076D01*
X310535Y132098D01*
X310494Y132113D01*
X310413Y132142D01*
X310343Y132157D01*
X310309Y132161D01*
X310283Y132165D01*
X310261Y132168D01*
D02*
G37*
G36*
X293992Y131580D02*
X293966D01*
X293918Y131576D01*
X293874Y131565D01*
X293833Y131547D01*
X293800Y131528D01*
X293774Y131506D01*
X293752Y131491D01*
X293741Y131476D01*
X293737Y131473D01*
X293707Y131428D01*
X293685Y131380D01*
X293667Y131328D01*
X293655Y131280D01*
X293648Y131236D01*
X293644Y131202D01*
Y131188D01*
Y131177D01*
Y131173D01*
Y131169D01*
X293648Y131103D01*
X293655Y131036D01*
X293667Y130969D01*
X293678Y130910D01*
X293692Y130858D01*
X293704Y130821D01*
X293707Y130807D01*
X293711Y130796D01*
X293715Y130788D01*
Y130784D01*
X293741Y130714D01*
X293766Y130651D01*
X293792Y130599D01*
X293818Y130555D01*
X293837Y130522D01*
X293855Y130496D01*
X293866Y130481D01*
X293870Y130477D01*
X293896Y130451D01*
X293918Y130426D01*
X293940Y130407D01*
X293963Y130392D01*
X293977Y130381D01*
X293992Y130374D01*
X294000Y130366D01*
X294003D01*
X294037Y130351D01*
X294066Y130340D01*
X294099Y130329D01*
X294129Y130326D01*
X294151Y130322D01*
X294170Y130318D01*
X294188D01*
X294236Y130322D01*
X294277Y130333D01*
X294314Y130351D01*
X294347Y130370D01*
X294373Y130388D01*
X294392Y130407D01*
X294403Y130418D01*
X294407Y130422D01*
X294436Y130466D01*
X294458Y130518D01*
X294473Y130570D01*
X294484Y130625D01*
X294492Y130673D01*
X294495Y130710D01*
Y130725D01*
Y130736D01*
Y130744D01*
Y130747D01*
X294492Y130810D01*
X294484Y130877D01*
X294477Y130940D01*
X294462Y130999D01*
X294451Y131051D01*
X294444Y131091D01*
X294440Y131106D01*
X294436Y131117D01*
X294432Y131125D01*
Y131129D01*
X294407Y131206D01*
X294377Y131273D01*
X294344Y131328D01*
X294314Y131376D01*
X294288Y131413D01*
X294266Y131439D01*
X294248Y131458D01*
X294244Y131462D01*
X294196Y131502D01*
X294144Y131532D01*
X294099Y131550D01*
X294055Y131565D01*
X294018Y131572D01*
X293992Y131580D01*
D02*
G37*
G36*
X353875Y132168D02*
X353845D01*
X353786Y132165D01*
X353730Y132157D01*
X353678Y132146D01*
X353630Y132135D01*
X353542Y132098D01*
X353505Y132079D01*
X353468Y132057D01*
X353438Y132035D01*
X353408Y132017D01*
X353386Y131998D01*
X353368Y131980D01*
X353349Y131968D01*
X353338Y131957D01*
X353334Y131950D01*
X353331Y131946D01*
X353297Y131902D01*
X353264Y131854D01*
X353238Y131802D01*
X353216Y131750D01*
X353183Y131639D01*
X353161Y131532D01*
X353149Y131480D01*
X353146Y131432D01*
X353142Y131391D01*
X353138Y131354D01*
X353135Y131325D01*
Y131299D01*
Y131284D01*
Y131280D01*
X353138Y131202D01*
X353142Y131129D01*
X353149Y131062D01*
X353161Y131006D01*
X353172Y130958D01*
X353179Y130925D01*
X353183Y130903D01*
X353186Y130899D01*
Y130895D01*
X353209Y130836D01*
X353231Y130781D01*
X353257Y130733D01*
X353283Y130692D01*
X353305Y130659D01*
X353323Y130633D01*
X353334Y130614D01*
X353338Y130611D01*
X353423Y130673D01*
X353512Y130729D01*
X353593Y130773D01*
X353667Y130810D01*
X353730Y130840D01*
X353756Y130851D01*
X353778Y130862D01*
X353797Y130869D01*
X353812Y130873D01*
X353819Y130877D01*
X353823D01*
X353967Y130577D01*
X353908Y130555D01*
X353849Y130525D01*
X353797Y130499D01*
X353749Y130474D01*
X353708Y130451D01*
X353675Y130433D01*
X353656Y130418D01*
X353649Y130414D01*
X353723Y130396D01*
X353760Y130388D01*
X353793Y130385D01*
X353819D01*
X353841Y130381D01*
X353860D01*
X353915Y130385D01*
X353967Y130392D01*
X354015Y130403D01*
X354063Y130414D01*
X354148Y130451D01*
X354219Y130492D01*
X354252Y130514D01*
X354278Y130533D01*
X354300Y130551D01*
X354319Y130570D01*
X354337Y130581D01*
X354348Y130592D01*
X354352Y130599D01*
X354356Y130603D01*
X354389Y130648D01*
X354418Y130696D01*
X354448Y130751D01*
X354470Y130803D01*
X354504Y130918D01*
X354526Y131025D01*
X354537Y131077D01*
X354541Y131125D01*
X354544Y131169D01*
X354548Y131206D01*
X354552Y131236D01*
Y131262D01*
Y131277D01*
Y131280D01*
X354548Y131362D01*
X354544Y131436D01*
X354533Y131506D01*
X354522Y131572D01*
X354507Y131632D01*
X354489Y131687D01*
X354470Y131735D01*
X354452Y131780D01*
X354437Y131820D01*
X354418Y131854D01*
X354400Y131880D01*
X354385Y131905D01*
X354374Y131924D01*
X354363Y131935D01*
X354359Y131942D01*
X354356Y131946D01*
X354319Y131987D01*
X354278Y132020D01*
X354237Y132050D01*
X354193Y132076D01*
X354148Y132098D01*
X354108Y132113D01*
X354026Y132142D01*
X353956Y132157D01*
X353923Y132161D01*
X353897Y132165D01*
X353875Y132168D01*
D02*
G37*
G36*
X330733D02*
X330704D01*
X330644Y132165D01*
X330589Y132157D01*
X330537Y132150D01*
X330489Y132135D01*
X330404Y132098D01*
X330363Y132079D01*
X330330Y132061D01*
X330297Y132039D01*
X330271Y132020D01*
X330248Y132002D01*
X330226Y131983D01*
X330211Y131968D01*
X330200Y131961D01*
X330197Y131954D01*
X330193Y131950D01*
X330160Y131905D01*
X330126Y131857D01*
X330100Y131809D01*
X330078Y131754D01*
X330045Y131643D01*
X330023Y131535D01*
X330012Y131487D01*
X330008Y131439D01*
X330004Y131399D01*
X330001Y131362D01*
X329997Y131328D01*
Y131306D01*
Y131291D01*
Y131288D01*
X330001Y131206D01*
X330004Y131129D01*
X330015Y131058D01*
X330027Y130995D01*
X330041Y130932D01*
X330060Y130877D01*
X330078Y130829D01*
X330097Y130784D01*
X330115Y130744D01*
X330134Y130710D01*
X330149Y130681D01*
X330167Y130655D01*
X330178Y130636D01*
X330189Y130625D01*
X330193Y130618D01*
X330197Y130614D01*
X330234Y130573D01*
X330274Y130540D01*
X330319Y130511D01*
X330360Y130485D01*
X330404Y130466D01*
X330445Y130448D01*
X330526Y130422D01*
X330596Y130403D01*
X330626Y130400D01*
X330652Y130396D01*
X330674Y130392D01*
X330704D01*
X330759Y130396D01*
X330815Y130403D01*
X330866Y130414D01*
X330914Y130429D01*
X331003Y130463D01*
X331074Y130507D01*
X331107Y130525D01*
X331133Y130548D01*
X331159Y130566D01*
X331177Y130585D01*
X331192Y130596D01*
X331203Y130607D01*
X331210Y130614D01*
X331214Y130618D01*
X331247Y130662D01*
X331281Y130710D01*
X331307Y130762D01*
X331329Y130818D01*
X331366Y130925D01*
X331388Y131032D01*
X331396Y131084D01*
X331403Y131129D01*
X331407Y131173D01*
X331410Y131210D01*
X331414Y131239D01*
Y131262D01*
Y131277D01*
Y131280D01*
X331410Y131362D01*
X331407Y131436D01*
X331396Y131506D01*
X331384Y131572D01*
X331370Y131632D01*
X331355Y131687D01*
X331336Y131735D01*
X331318Y131780D01*
X331299Y131820D01*
X331281Y131854D01*
X331266Y131880D01*
X331251Y131905D01*
X331240Y131924D01*
X331229Y131935D01*
X331225Y131942D01*
X331222Y131946D01*
X331185Y131987D01*
X331144Y132020D01*
X331100Y132050D01*
X331059Y132076D01*
X331014Y132098D01*
X330970Y132113D01*
X330889Y132142D01*
X330815Y132157D01*
X330785Y132161D01*
X330755Y132165D01*
X330733Y132168D01*
D02*
G37*
G36*
X325871Y131965D02*
X325513Y131014D01*
X326219D01*
X325871Y131965D01*
D02*
G37*
%LPD*%
D46*
X172760Y297220D02*
Y324681D01*
D49*
X401653Y230854D02*
G03*
X401653Y230854I-1181J0D01*
G01*
X361653D02*
G03*
X361653Y230854I-1181J0D01*
G01*
X321654D02*
G03*
X321654Y230854I-1181J0D01*
G01*
X281653D02*
G03*
X281653Y230854I-1181J0D01*
G01*
X241653D02*
G03*
X241653Y230854I-1181J0D01*
G01*
X201654D02*
G03*
X201654Y230854I-1181J0D01*
G01*
X381653D02*
G03*
X381653Y230854I-1181J0D01*
G01*
X341653D02*
G03*
X341653Y230854I-1181J0D01*
G01*
X301654D02*
G03*
X301654Y230854I-1181J0D01*
G01*
X261653D02*
G03*
X261653Y230854I-1181J0D01*
G01*
X221654D02*
G03*
X221654Y230854I-1181J0D01*
G01*
X181653D02*
G03*
X181653Y230854I-1181J0D01*
G01*
X182244Y348583D02*
G03*
X182244Y348583I-1181J0D01*
G01*
X322244D02*
G03*
X322244Y348583I-1181J0D01*
G01*
X269744D02*
G03*
X269744Y348583I-1181J0D01*
G01*
X217244D02*
G03*
X217244Y348583I-1181J0D01*
G01*
X357244D02*
G03*
X357244Y348583I-1181J0D01*
G01*
X304744D02*
G03*
X304744Y348583I-1181J0D01*
G01*
X252244D02*
G03*
X252244Y348583I-1181J0D01*
G01*
X199744D02*
G03*
X199744Y348583I-1181J0D01*
G01*
X339744D02*
G03*
X339744Y348583I-1181J0D01*
G01*
X287244D02*
G03*
X287244Y348583I-1181J0D01*
G01*
X234744D02*
G03*
X234744Y348583I-1181J0D01*
G01*
X374744D02*
G03*
X374744Y348583I-1181J0D01*
G01*
D50*
X397244Y239122D02*
G03*
X397244Y239122I-492J0D01*
G01*
X357244D02*
G03*
X357244Y239122I-492J0D01*
G01*
X317244D02*
G03*
X317244Y239122I-492J0D01*
G01*
X277244D02*
G03*
X277244Y239122I-492J0D01*
G01*
X237244D02*
G03*
X237244Y239122I-492J0D01*
G01*
X197244D02*
G03*
X197244Y239122I-492J0D01*
G01*
X377244D02*
G03*
X377244Y239122I-492J0D01*
G01*
X337244D02*
G03*
X337244Y239122I-492J0D01*
G01*
X297244D02*
G03*
X297244Y239122I-492J0D01*
G01*
X257244D02*
G03*
X257244Y239122I-492J0D01*
G01*
X217244D02*
G03*
X217244Y239122I-492J0D01*
G01*
X177244D02*
G03*
X177244Y239122I-492J0D01*
G01*
X191693Y389508D02*
G03*
X191693Y389508I-492J0D01*
G01*
X209193D02*
G03*
X209193Y389508I-492J0D01*
G01*
X349193D02*
G03*
X349193Y389508I-492J0D01*
G01*
X314193D02*
G03*
X314193Y389508I-492J0D01*
G01*
X384193D02*
G03*
X384193Y389508I-492J0D01*
G01*
X226693D02*
G03*
X226693Y389508I-492J0D01*
G01*
X296693D02*
G03*
X296693Y389508I-492J0D01*
G01*
X366693D02*
G03*
X366693Y389508I-492J0D01*
G01*
X244193D02*
G03*
X244193Y389508I-492J0D01*
G01*
X279193D02*
G03*
X279193Y389508I-492J0D01*
G01*
X331693D02*
G03*
X331693Y389508I-492J0D01*
G01*
X261693D02*
G03*
X261693Y389508I-492J0D01*
G01*
X177146Y358524D02*
G03*
X177146Y358524I-492J0D01*
G01*
X317146D02*
G03*
X317146Y358524I-492J0D01*
G01*
X264646D02*
G03*
X264646Y358524I-492J0D01*
G01*
X212146D02*
G03*
X212146Y358524I-492J0D01*
G01*
X352146D02*
G03*
X352146Y358524I-492J0D01*
G01*
X299646D02*
G03*
X299646Y358524I-492J0D01*
G01*
X247146D02*
G03*
X247146Y358524I-492J0D01*
G01*
X194646D02*
G03*
X194646Y358524I-492J0D01*
G01*
X334646D02*
G03*
X334646Y358524I-492J0D01*
G01*
X282146D02*
G03*
X282146Y358524I-492J0D01*
G01*
X229646D02*
G03*
X229646Y358524I-492J0D01*
G01*
X369646D02*
G03*
X369646Y358524I-492J0D01*
G01*
X284232Y253512D02*
G03*
X284232Y253512I-492J0D01*
G01*
X244232D02*
G03*
X244232Y253512I-492J0D01*
G01*
X204232D02*
G03*
X204232Y253512I-492J0D01*
G01*
X324232D02*
G03*
X324232Y253512I-492J0D01*
G01*
X364232D02*
G03*
X364232Y253512I-492J0D01*
G01*
X404232D02*
G03*
X404232Y253512I-492J0D01*
G01*
X434693Y181008D02*
G03*
X434693Y181008I-492J0D01*
G01*
Y207008D02*
G03*
X434693Y207008I-492J0D01*
G01*
X438291Y225992D02*
G03*
X438291Y225992I-492J0D01*
G01*
X429681Y281583D02*
G03*
X429681Y281583I-492J0D01*
G01*
X217823Y315890D02*
G03*
X217823Y315890I-492J0D01*
G01*
D52*
X395728Y190453D02*
X399272D01*
X395728Y184547D02*
X399272D01*
X413465Y221209D02*
Y234791D01*
X396535Y221209D02*
Y234791D01*
Y221209D02*
X413465D01*
X396535Y234791D02*
X413465D01*
X373465Y221209D02*
Y234791D01*
X356535Y221209D02*
Y234791D01*
Y221209D02*
X373465D01*
X356535Y234791D02*
X373465D01*
X333465Y221209D02*
Y234791D01*
X316535Y221209D02*
Y234791D01*
Y221209D02*
X333465D01*
X316535Y234791D02*
X333465D01*
X293465Y221209D02*
Y234791D01*
X276535Y221209D02*
Y234791D01*
Y221209D02*
X293465D01*
X276535Y234791D02*
X293465D01*
X253465Y221209D02*
Y234791D01*
X236535Y221209D02*
Y234791D01*
Y221209D02*
X253465D01*
X236535Y234791D02*
X253465D01*
X213465Y221209D02*
Y234791D01*
X196535Y221209D02*
Y234791D01*
Y221209D02*
X213465D01*
X196535Y234791D02*
X213465D01*
X393465Y221209D02*
Y234791D01*
X376535Y221209D02*
Y234791D01*
Y221209D02*
X393465D01*
X376535Y234791D02*
X393465D01*
X353465Y221209D02*
Y234791D01*
X336535Y221209D02*
Y234791D01*
Y221209D02*
X353465D01*
X336535Y234791D02*
X353465D01*
X313465Y221209D02*
Y234791D01*
X296535Y221209D02*
Y234791D01*
Y221209D02*
X313465D01*
X296535Y234791D02*
X313465D01*
X273465Y221209D02*
Y234791D01*
X256535Y221209D02*
Y234791D01*
Y221209D02*
X273465D01*
X256535Y234791D02*
X273465D01*
X233465Y221209D02*
Y234791D01*
X216535Y221209D02*
Y234791D01*
Y221209D02*
X233465D01*
X216535Y234791D02*
X233465D01*
X193465Y221209D02*
Y234791D01*
X176535Y221209D02*
Y234791D01*
Y221209D02*
X193465D01*
X176535Y234791D02*
X193465D01*
X292146Y437441D02*
Y442559D01*
X297854Y437441D02*
Y442559D01*
X292146Y437441D02*
X297854D01*
X232146Y427441D02*
Y432559D01*
X237854Y427441D02*
Y432559D01*
X232146Y427441D02*
X237854D01*
X272146D02*
Y432559D01*
X277854Y427441D02*
Y432559D01*
X272146Y427441D02*
X277854D01*
X352146Y437441D02*
Y442559D01*
X357854Y437441D02*
Y442559D01*
X352146Y437441D02*
X357854D01*
X227854Y417441D02*
Y422559D01*
X222146Y417441D02*
Y422559D01*
X227854D01*
X267854Y417441D02*
Y422559D01*
X262146Y417441D02*
Y422559D01*
X267854D01*
X332146Y437441D02*
Y442559D01*
X337854Y437441D02*
Y442559D01*
X332146Y437441D02*
X337854D01*
X212146Y427441D02*
Y432559D01*
X217854Y427441D02*
Y432559D01*
X212146Y427441D02*
X217854D01*
X252146D02*
Y432559D01*
X257854Y427441D02*
Y432559D01*
X252146Y427441D02*
X257854D01*
X312146Y437441D02*
Y442559D01*
X317854Y437441D02*
Y442559D01*
X312146Y437441D02*
X317854D01*
X207854Y422441D02*
Y427559D01*
X202146Y422441D02*
Y427559D01*
X207854D01*
X247854Y417441D02*
Y422559D01*
X242146Y417441D02*
Y422559D01*
X247854D01*
X192874Y368051D02*
Y386949D01*
X177126Y368051D02*
Y386949D01*
X190610Y368051D02*
X192874D01*
X190610Y386949D02*
X192874D01*
X177126Y368051D02*
X179390D01*
X177126Y386949D02*
X179390D01*
X210374Y368051D02*
Y386949D01*
X194626Y368051D02*
Y386949D01*
X208110Y368051D02*
X210374D01*
X208110Y386949D02*
X210374D01*
X194626Y368051D02*
X196890D01*
X194626Y386949D02*
X196890D01*
X350374Y368051D02*
Y386949D01*
X334626Y368051D02*
Y386949D01*
X348110Y368051D02*
X350374D01*
X348110Y386949D02*
X350374D01*
X334626Y368051D02*
X336890D01*
X334626Y386949D02*
X336890D01*
X315374Y368051D02*
Y386949D01*
X299626Y368051D02*
Y386949D01*
X313110Y368051D02*
X315374D01*
X313110Y386949D02*
X315374D01*
X299626Y368051D02*
X301890D01*
X299626Y386949D02*
X301890D01*
X385374Y368051D02*
Y386949D01*
X369626Y368051D02*
Y386949D01*
X383110Y368051D02*
X385374D01*
X383110Y386949D02*
X385374D01*
X369626Y368051D02*
X371890D01*
X369626Y386949D02*
X371890D01*
X227874Y368051D02*
Y386949D01*
X212126Y368051D02*
Y386949D01*
X225610Y368051D02*
X227874D01*
X225610Y386949D02*
X227874D01*
X212126Y368051D02*
X214390D01*
X212126Y386949D02*
X214390D01*
X297874Y368051D02*
Y386949D01*
X282126Y368051D02*
Y386949D01*
X295610Y368051D02*
X297874D01*
X295610Y386949D02*
X297874D01*
X282126Y368051D02*
X284390D01*
X282126Y386949D02*
X284390D01*
X367874Y368051D02*
Y386949D01*
X352126Y368051D02*
Y386949D01*
X365610Y368051D02*
X367874D01*
X365610Y386949D02*
X367874D01*
X352126Y368051D02*
X354390D01*
X352126Y386949D02*
X354390D01*
X245374Y368051D02*
Y386949D01*
X229626Y368051D02*
Y386949D01*
X243110Y368051D02*
X245374D01*
X243110Y386949D02*
X245374D01*
X229626Y368051D02*
X231890D01*
X229626Y386949D02*
X231890D01*
X280374Y368051D02*
Y386949D01*
X264626Y368051D02*
Y386949D01*
X278110Y368051D02*
X280374D01*
X278110Y386949D02*
X280374D01*
X264626Y368051D02*
X266890D01*
X264626Y386949D02*
X266890D01*
X332874Y368051D02*
Y386949D01*
X317126Y368051D02*
Y386949D01*
X330610Y368051D02*
X332874D01*
X330610Y386949D02*
X332874D01*
X317126Y368051D02*
X319390D01*
X317126Y386949D02*
X319390D01*
X262874Y368051D02*
Y386949D01*
X247126Y368051D02*
Y386949D01*
X260610Y368051D02*
X262874D01*
X260610Y386949D02*
X262874D01*
X247126Y368051D02*
X249390D01*
X247126Y386949D02*
X249390D01*
X177126Y352520D02*
X192874D01*
X177126Y342480D02*
X192874D01*
X177126D02*
Y352520D01*
X192874Y342480D02*
Y352520D01*
X317126D02*
X332874D01*
X317126Y342480D02*
X332874D01*
X317126D02*
Y352520D01*
X332874Y342480D02*
Y352520D01*
X264626D02*
X280374D01*
X264626Y342480D02*
X280374D01*
X264626D02*
Y352520D01*
X280374Y342480D02*
Y352520D01*
X212126D02*
X227874D01*
X212126Y342480D02*
X227874D01*
X212126D02*
Y352520D01*
X227874Y342480D02*
Y352520D01*
X352126D02*
X367874D01*
X352126Y342480D02*
X367874D01*
X352126D02*
Y352520D01*
X367874Y342480D02*
Y352520D01*
X299626D02*
X315374D01*
X299626Y342480D02*
X315374D01*
X299626D02*
Y352520D01*
X315374Y342480D02*
Y352520D01*
X247126D02*
X262874D01*
X247126Y342480D02*
X262874D01*
X247126D02*
Y352520D01*
X262874Y342480D02*
Y352520D01*
X194626D02*
X210374D01*
X194626Y342480D02*
X210374D01*
X194626D02*
Y352520D01*
X210374Y342480D02*
Y352520D01*
X334626D02*
X350374D01*
X334626Y342480D02*
X350374D01*
X334626D02*
Y352520D01*
X350374Y342480D02*
Y352520D01*
X282126D02*
X297874D01*
X282126Y342480D02*
X297874D01*
X282126D02*
Y352520D01*
X297874Y342480D02*
Y352520D01*
X229626D02*
X245374D01*
X229626Y342480D02*
X245374D01*
X229626D02*
Y352520D01*
X245374Y342480D02*
Y352520D01*
X369626D02*
X385374D01*
X369626Y342480D02*
X385374D01*
X369626D02*
Y352520D01*
X385374Y342480D02*
Y352520D01*
X279409Y243669D02*
Y252331D01*
X280591Y243669D02*
Y252331D01*
X279409Y243669D02*
X280591D01*
X279409Y252331D02*
X280591D01*
X239409Y243669D02*
Y252331D01*
X240591Y243669D02*
Y252331D01*
X239409Y243669D02*
X240591D01*
X239409Y252331D02*
X240591D01*
X199409Y243669D02*
Y252331D01*
X200590Y243669D02*
Y252331D01*
X199409Y243669D02*
X200590D01*
X199409Y252331D02*
X200590D01*
X319409Y243669D02*
Y252331D01*
X320590Y243669D02*
Y252331D01*
X319409Y243669D02*
X320590D01*
X319409Y252331D02*
X320590D01*
X359409Y243669D02*
Y252331D01*
X360591Y243669D02*
Y252331D01*
X359409Y243669D02*
X360591D01*
X359409Y252331D02*
X360591D01*
X399409Y243669D02*
Y252331D01*
X400591Y243669D02*
Y252331D01*
X399409Y243669D02*
X400591D01*
X399409Y252331D02*
X400591D01*
X435874Y159551D02*
Y178449D01*
X420126Y159551D02*
Y178449D01*
X433610Y159551D02*
X435874D01*
X433610Y178449D02*
X435874D01*
X420126Y159551D02*
X422390D01*
X420126Y178449D02*
X422390D01*
X435874Y185551D02*
Y204449D01*
X420126Y185551D02*
Y204449D01*
X433610Y185551D02*
X435874D01*
X433610Y204449D02*
X435874D01*
X420126Y185551D02*
X422390D01*
X420126Y204449D02*
X422390D01*
X436126Y228551D02*
Y247449D01*
X451874Y228551D02*
Y247449D01*
X436126D02*
X438390D01*
X436126Y228551D02*
X438390D01*
X449610Y247449D02*
X451874D01*
X449610Y228551D02*
X451874D01*
X432260Y275307D02*
Y288693D01*
X439740Y275307D02*
Y288693D01*
X402811Y287488D02*
X429189D01*
X402811Y298512D02*
X429189D01*
Y287488D02*
Y298512D01*
X402811Y287488D02*
Y298512D01*
X399740Y292307D02*
Y305693D01*
X392260Y292307D02*
Y305693D01*
X212606Y315102D02*
X213394D01*
X212606Y302898D02*
X213394D01*
D84*
X439937Y273732D02*
G03*
X439937Y273732I-197J0D01*
G01*
X392457Y307268D02*
G03*
X392457Y307268I-197J0D01*
G01*
D85*
X295000Y438524D02*
D03*
X235000Y428524D02*
D03*
X275000D02*
D03*
X355000Y438524D02*
D03*
X225000Y421476D02*
D03*
X265000D02*
D03*
X335000Y438524D02*
D03*
X215000Y428524D02*
D03*
X255000Y428524D02*
D03*
X315000Y438524D02*
D03*
X205000Y426476D02*
D03*
X245000Y421476D02*
D03*
M02*
