G04 Layer_Color=2752767*
%FSLAX25Y25*%
%MOIN*%
G70*
G01*
G75*
%ADD86C,0.00200*%
%ADD87C,0.00267*%
D86*
X409200Y412200D02*
Y413800D01*
X410800D01*
Y412200D01*
X409200D01*
X399200Y417200D02*
Y418800D01*
X400800D01*
Y417200D01*
X399200D01*
X409200Y422200D02*
Y423800D01*
X410800D01*
Y422200D01*
X409200D01*
X399200Y427200D02*
Y428800D01*
X400800D01*
Y427200D01*
X399200D01*
X409200Y432200D02*
Y433800D01*
X410800D01*
Y432200D01*
X409200D01*
X399200Y437200D02*
Y438800D01*
X400800D01*
Y437200D01*
X399200D01*
X409200Y442200D02*
Y443800D01*
X410800D01*
Y442200D01*
X409200D01*
X399200Y447200D02*
Y448800D01*
X400800D01*
Y447200D01*
X399200D01*
X447000Y460700D02*
X446200Y462300D01*
X447800D01*
X447000Y460700D01*
Y398700D02*
X447400Y399100D01*
X447800D01*
X447400Y399500D01*
X447800Y399900D01*
X447400D01*
X447000Y400300D01*
X446600Y399900D01*
X446200D01*
X446600Y399500D01*
X446200Y399100D01*
X446600D01*
X447000Y398700D01*
X184200Y459200D02*
X184600Y460000D01*
X184200Y460800D01*
X185000Y460400D01*
X185800Y460800D01*
X185400Y460000D01*
X185800Y459200D01*
X185000Y459600D01*
X184200Y459200D01*
X437600Y137700D02*
X438000Y138500D01*
X437600Y139300D01*
X438400Y138900D01*
X439200Y139300D01*
X438800Y138500D01*
X439200Y137700D01*
X438400Y138100D01*
X437600Y137700D01*
X234600Y397100D02*
Y396700D01*
X235400D01*
Y397100D01*
X235800D01*
Y397900D01*
X235400D01*
Y398300D01*
X234600D01*
Y397900D01*
X234200D01*
Y397100D01*
X234600D01*
X214600D02*
Y396700D01*
X215400D01*
Y397100D01*
X215800D01*
Y397900D01*
X215400D01*
Y398300D01*
X214600D01*
Y397900D01*
X214200D01*
Y397100D01*
X214600D01*
X224600Y457100D02*
Y456700D01*
X225400D01*
Y457100D01*
X225800D01*
Y457900D01*
X225400D01*
Y458300D01*
X224600D01*
Y457900D01*
X224200D01*
Y457100D01*
X224600D01*
X204600D02*
Y456700D01*
X205400D01*
Y457100D01*
X205800D01*
Y457900D01*
X205400D01*
Y458300D01*
X204600D01*
Y457900D01*
X204200D01*
Y457100D01*
X204600D01*
X189600Y204600D02*
Y204200D01*
X190400D01*
Y204600D01*
X190800D01*
Y205400D01*
X190400D01*
Y205800D01*
X189600D01*
Y205400D01*
X189200D01*
Y204600D01*
X189600D01*
X209600D02*
Y204200D01*
X210400D01*
Y204600D01*
X210800D01*
Y205400D01*
X210400D01*
Y205800D01*
X209600D01*
Y205400D01*
X209200D01*
Y204600D01*
X209600D01*
X199600Y144600D02*
Y144200D01*
X200400D01*
Y144600D01*
X200800D01*
Y145400D01*
X200400D01*
Y145800D01*
X199600D01*
Y145400D01*
X199200D01*
Y144600D01*
X199600D01*
X219600D02*
Y144200D01*
X220400D01*
Y144600D01*
X220800D01*
Y145400D01*
X220400D01*
Y145800D01*
X219600D01*
Y145400D01*
X219200D01*
Y144600D01*
X219600D01*
X274600Y397100D02*
Y396700D01*
X275400D01*
Y397100D01*
X275800D01*
Y397900D01*
X275400D01*
Y398300D01*
X274600D01*
Y397900D01*
X274200D01*
Y397100D01*
X274600D01*
X254600D02*
Y396700D01*
X255400D01*
Y397100D01*
X255800D01*
Y397900D01*
X255400D01*
Y398300D01*
X254600D01*
Y397900D01*
X254200D01*
Y397100D01*
X254600D01*
X264600Y457100D02*
Y456700D01*
X265400D01*
Y457100D01*
X265800D01*
Y457900D01*
X265400D01*
Y458300D01*
X264600D01*
Y457900D01*
X264200D01*
Y457100D01*
X264600D01*
X244600D02*
Y456700D01*
X245400D01*
Y457100D01*
X245800D01*
Y457900D01*
X245400D01*
Y458300D01*
X244600D01*
Y457900D01*
X244200D01*
Y457100D01*
X244600D01*
X229600Y204600D02*
Y204200D01*
X230400D01*
Y204600D01*
X230800D01*
Y205400D01*
X230400D01*
Y205800D01*
X229600D01*
Y205400D01*
X229200D01*
Y204600D01*
X229600D01*
X249600D02*
Y204200D01*
X250400D01*
Y204600D01*
X250800D01*
Y205400D01*
X250400D01*
Y205800D01*
X249600D01*
Y205400D01*
X249200D01*
Y204600D01*
X249600D01*
X239600Y144600D02*
Y144200D01*
X240400D01*
Y144600D01*
X240800D01*
Y145400D01*
X240400D01*
Y145800D01*
X239600D01*
Y145400D01*
X239200D01*
Y144600D01*
X239600D01*
X259600D02*
Y144200D01*
X260400D01*
Y144600D01*
X260800D01*
Y145400D01*
X260400D01*
Y145800D01*
X259600D01*
Y145400D01*
X259200D01*
Y144600D01*
X259600D01*
X314600Y397100D02*
Y396700D01*
X315400D01*
Y397100D01*
X315800D01*
Y397900D01*
X315400D01*
Y398300D01*
X314600D01*
Y397900D01*
X314200D01*
Y397100D01*
X314600D01*
X294600D02*
Y396700D01*
X295400D01*
Y397100D01*
X295800D01*
Y397900D01*
X295400D01*
Y398300D01*
X294600D01*
Y397900D01*
X294200D01*
Y397100D01*
X294600D01*
X304600Y457100D02*
Y456700D01*
X305400D01*
Y457100D01*
X305800D01*
Y457900D01*
X305400D01*
Y458300D01*
X304600D01*
Y457900D01*
X304200D01*
Y457100D01*
X304600D01*
X284600D02*
Y456700D01*
X285400D01*
Y457100D01*
X285800D01*
Y457900D01*
X285400D01*
Y458300D01*
X284600D01*
Y457900D01*
X284200D01*
Y457100D01*
X284600D01*
X269600Y204600D02*
Y204200D01*
X270400D01*
Y204600D01*
X270800D01*
Y205400D01*
X270400D01*
Y205800D01*
X269600D01*
Y205400D01*
X269200D01*
Y204600D01*
X269600D01*
X289600D02*
Y204200D01*
X290400D01*
Y204600D01*
X290800D01*
Y205400D01*
X290400D01*
Y205800D01*
X289600D01*
Y205400D01*
X289200D01*
Y204600D01*
X289600D01*
X279600Y144600D02*
Y144200D01*
X280400D01*
Y144600D01*
X280800D01*
Y145400D01*
X280400D01*
Y145800D01*
X279600D01*
Y145400D01*
X279200D01*
Y144600D01*
X279600D01*
X299600D02*
Y144200D01*
X300400D01*
Y144600D01*
X300800D01*
Y145400D01*
X300400D01*
Y145800D01*
X299600D01*
Y145400D01*
X299200D01*
Y144600D01*
X299600D01*
X324600Y457100D02*
Y456700D01*
X325400D01*
Y457100D01*
X325800D01*
Y457900D01*
X325400D01*
Y458300D01*
X324600D01*
Y457900D01*
X324200D01*
Y457100D01*
X324600D01*
X344600D02*
Y456700D01*
X345400D01*
Y457100D01*
X345800D01*
Y457900D01*
X345400D01*
Y458300D01*
X344600D01*
Y457900D01*
X344200D01*
Y457100D01*
X344600D01*
X334600Y397100D02*
Y396700D01*
X335400D01*
Y397100D01*
X335800D01*
Y397900D01*
X335400D01*
Y398300D01*
X334600D01*
Y397900D01*
X334200D01*
Y397100D01*
X334600D01*
X364600Y457100D02*
Y456700D01*
X365400D01*
Y457100D01*
X365800D01*
Y457900D01*
X365400D01*
Y458300D01*
X364600D01*
Y457900D01*
X364200D01*
Y457100D01*
X364600D01*
X354600Y397100D02*
Y396700D01*
X355400D01*
Y397100D01*
X355800D01*
Y397900D01*
X355400D01*
Y398300D01*
X354600D01*
Y397900D01*
X354200D01*
Y397100D01*
X354600D01*
X374600D02*
Y396700D01*
X375400D01*
Y397100D01*
X375800D01*
Y397900D01*
X375400D01*
Y398300D01*
X374600D01*
Y397900D01*
X374200D01*
Y397100D01*
X374600D01*
X309600Y204600D02*
Y204200D01*
X310400D01*
Y204600D01*
X310800D01*
Y205400D01*
X310400D01*
Y205800D01*
X309600D01*
Y205400D01*
X309200D01*
Y204600D01*
X309600D01*
X329600D02*
Y204200D01*
X330400D01*
Y204600D01*
X330800D01*
Y205400D01*
X330400D01*
Y205800D01*
X329600D01*
Y205400D01*
X329200D01*
Y204600D01*
X329600D01*
X319600Y144600D02*
Y144200D01*
X320400D01*
Y144600D01*
X320800D01*
Y145400D01*
X320400D01*
Y145800D01*
X319600D01*
Y145400D01*
X319200D01*
Y144600D01*
X319600D01*
X339600D02*
Y144200D01*
X340400D01*
Y144600D01*
X340800D01*
Y145400D01*
X340400D01*
Y145800D01*
X339600D01*
Y145400D01*
X339200D01*
Y144600D01*
X339600D01*
X399600D02*
Y144200D01*
X400400D01*
Y144600D01*
X400800D01*
Y145400D01*
X400400D01*
Y145800D01*
X399600D01*
Y145400D01*
X399200D01*
Y144600D01*
X399600D01*
X379600D02*
Y144200D01*
X380400D01*
Y144600D01*
X380800D01*
Y145400D01*
X380400D01*
Y145800D01*
X379600D01*
Y145400D01*
X379200D01*
Y144600D01*
X379600D01*
X389600Y204600D02*
Y204200D01*
X390400D01*
Y204600D01*
X390800D01*
Y205400D01*
X390400D01*
Y205800D01*
X389600D01*
Y205400D01*
X389200D01*
Y204600D01*
X389600D01*
X359600Y144600D02*
Y144200D01*
X360400D01*
Y144600D01*
X360800D01*
Y145400D01*
X360400D01*
Y145800D01*
X359600D01*
Y145400D01*
X359200D01*
Y144600D01*
X359600D01*
X369600Y204600D02*
Y204200D01*
X370400D01*
Y204600D01*
X370800D01*
Y205400D01*
X370400D01*
Y205800D01*
X369600D01*
Y205400D01*
X369200D01*
Y204600D01*
X369600D01*
X349600D02*
Y204200D01*
X350400D01*
Y204600D01*
X350800D01*
Y205400D01*
X350400D01*
Y205800D01*
X349600D01*
Y205400D01*
X349200D01*
Y204600D01*
X349600D01*
X446200Y277200D02*
X446600D01*
X447000Y277600D01*
X447400Y277200D01*
X447800D01*
Y277600D01*
X447400Y278000D01*
X447800Y278400D01*
Y278800D01*
X447400D01*
X447000Y278400D01*
X446600Y278800D01*
X446200D01*
Y278400D01*
X446600Y278000D01*
X446200Y277600D01*
Y277200D01*
Y267200D02*
X446600D01*
X447000Y267600D01*
X447400Y267200D01*
X447800D01*
Y267600D01*
X447400Y268000D01*
X447800Y268400D01*
Y268800D01*
X447400D01*
X447000Y268400D01*
X446600Y268800D01*
X446200D01*
Y268400D01*
X446600Y268000D01*
X446200Y267600D01*
Y267200D01*
X182200Y270200D02*
X182600D01*
X183000Y270600D01*
X183400Y270200D01*
X183800D01*
Y270600D01*
X183400Y271000D01*
X183800Y271400D01*
Y271800D01*
X183400D01*
X183000Y271400D01*
X182600Y271800D01*
X182200D01*
Y271400D01*
X182600Y271000D01*
X182200Y270600D01*
Y270200D01*
Y280200D02*
X182600D01*
X183000Y280600D01*
X183400Y280200D01*
X183800D01*
Y280600D01*
X183400Y281000D01*
X183800Y281400D01*
Y281800D01*
X183400D01*
X183000Y281400D01*
X182600Y281800D01*
X182200D01*
Y281400D01*
X182600Y281000D01*
X182200Y280600D01*
Y280200D01*
X192200Y270200D02*
X192600D01*
X193000Y270600D01*
X193400Y270200D01*
X193800D01*
Y270600D01*
X193400Y271000D01*
X193800Y271400D01*
Y271800D01*
X193400D01*
X193000Y271400D01*
X192600Y271800D01*
X192200D01*
Y271400D01*
X192600Y271000D01*
X192200Y270600D01*
Y270200D01*
Y280200D02*
X192600D01*
X193000Y280600D01*
X193400Y280200D01*
X193800D01*
Y280600D01*
X193400Y281000D01*
X193800Y281400D01*
Y281800D01*
X193400D01*
X193000Y281400D01*
X192600Y281800D01*
X192200D01*
Y281400D01*
X192600Y281000D01*
X192200Y280600D01*
Y280200D01*
X202200Y270200D02*
X202600D01*
X203000Y270600D01*
X203400Y270200D01*
X203800D01*
Y270600D01*
X203400Y271000D01*
X203800Y271400D01*
Y271800D01*
X203400D01*
X203000Y271400D01*
X202600Y271800D01*
X202200D01*
Y271400D01*
X202600Y271000D01*
X202200Y270600D01*
Y270200D01*
Y280200D02*
X202600D01*
X203000Y280600D01*
X203400Y280200D01*
X203800D01*
Y280600D01*
X203400Y281000D01*
X203800Y281400D01*
Y281800D01*
X203400D01*
X203000Y281400D01*
X202600Y281800D01*
X202200D01*
Y281400D01*
X202600Y281000D01*
X202200Y280600D01*
Y280200D01*
X426200Y247000D02*
X427000Y247800D01*
X427800Y247000D01*
X427000Y246200D01*
X426200Y247000D01*
Y237000D02*
X427000Y237800D01*
X427800Y237000D01*
X427000Y236200D01*
X426200Y237000D01*
Y227000D02*
X427000Y227800D01*
X427800Y227000D01*
X427000Y226200D01*
X426200Y227000D01*
X311129Y323200D02*
Y324800D01*
X312729D01*
Y323200D01*
X311129D01*
X311529Y323600D02*
Y324400D01*
X312329D01*
Y323600D01*
X311529D01*
X303200Y321200D02*
Y322800D01*
X304800D01*
Y321200D01*
X303200D01*
X303600Y321600D02*
Y322400D01*
X304400D01*
Y321600D01*
X303600D01*
X303200Y307200D02*
Y308800D01*
X304800D01*
Y307200D01*
X303200D01*
X303600Y307600D02*
Y308400D01*
X304400D01*
Y307600D01*
X303600D01*
X301200Y327200D02*
Y328800D01*
X302800D01*
Y327200D01*
X301200D01*
X301600Y327600D02*
Y328400D01*
X302400D01*
Y327600D01*
X301600D01*
X283610Y317114D02*
Y318714D01*
X285210D01*
Y317114D01*
X283610D01*
X284010Y317514D02*
Y318314D01*
X284810D01*
Y317514D01*
X284010D01*
X282200Y309200D02*
Y310800D01*
X283800D01*
Y309200D01*
X282200D01*
X282600Y309600D02*
Y310400D01*
X283400D01*
Y309600D01*
X282600D01*
X274700Y315700D02*
Y317300D01*
X276300D01*
Y315700D01*
X274700D01*
X275100Y316100D02*
Y316900D01*
X275900D01*
Y316100D01*
X275100D01*
X292200Y325200D02*
Y326800D01*
X293800D01*
Y325200D01*
X292200D01*
X292600Y325600D02*
Y326400D01*
X293400D01*
Y325600D01*
X292600D01*
X268700Y316200D02*
Y317800D01*
X270300D01*
Y316200D01*
X268700D01*
X269100Y316600D02*
Y317400D01*
X269900D01*
Y316600D01*
X269100D01*
X363700Y261700D02*
Y263300D01*
X365300D01*
Y261700D01*
X363700D01*
X364100Y262100D02*
Y262900D01*
X364900D01*
Y262100D01*
X364100D01*
X371200Y267200D02*
Y268800D01*
X372800D01*
Y267200D01*
X371200D01*
X371600Y267600D02*
Y268400D01*
X372400D01*
Y267600D01*
X371600D01*
X367200Y225700D02*
Y227300D01*
X368800D01*
Y225700D01*
X367200D01*
X367600Y226100D02*
Y226900D01*
X368400D01*
Y226100D01*
X367600D01*
X381200Y310200D02*
Y311800D01*
X382800D01*
Y310200D01*
X381200D01*
X381600Y310600D02*
Y311400D01*
X382400D01*
Y310600D01*
X381600D01*
X306200Y226200D02*
Y227800D01*
X307800D01*
Y226200D01*
X306200D01*
X306600Y226600D02*
Y227400D01*
X307400D01*
Y226600D01*
X306600D01*
X266200Y226200D02*
Y227800D01*
X267800D01*
Y226200D01*
X266200D01*
X266600Y226600D02*
Y227400D01*
X267400D01*
Y226600D01*
X266600D01*
X226200Y226200D02*
Y227800D01*
X227800D01*
Y226200D01*
X226200D01*
X226600Y226600D02*
Y227400D01*
X227400D01*
Y226600D01*
X226600D01*
X324200Y256200D02*
Y257800D01*
X325800D01*
Y256200D01*
X324200D01*
X324600Y256600D02*
Y257400D01*
X325400D01*
Y256600D01*
X324600D01*
X284200Y256200D02*
Y257800D01*
X285800D01*
Y256200D01*
X284200D01*
X284600Y256600D02*
Y257400D01*
X285400D01*
Y256600D01*
X284600D01*
X243450Y256200D02*
Y257800D01*
X245050D01*
Y256200D01*
X243450D01*
X243850Y256600D02*
Y257400D01*
X244650D01*
Y256600D01*
X243850D01*
X204950Y255955D02*
Y257555D01*
X206550D01*
Y255955D01*
X204950D01*
X205350Y256355D02*
Y257155D01*
X206150D01*
Y256355D01*
X205350D01*
X199205Y260205D02*
Y261805D01*
X200805D01*
Y260205D01*
X199205D01*
X199605Y260605D02*
Y261405D01*
X200405D01*
Y260605D01*
X199605D01*
X213200Y260200D02*
Y261800D01*
X214800D01*
Y260200D01*
X213200D01*
X213600Y260600D02*
Y261400D01*
X214400D01*
Y260600D01*
X213600D01*
X414200Y330200D02*
Y331800D01*
X415800D01*
Y330200D01*
X414200D01*
X414600Y330600D02*
Y331400D01*
X415400D01*
Y330600D01*
X414600D01*
X406200Y331200D02*
Y332800D01*
X407800D01*
Y331200D01*
X406200D01*
X406600Y331600D02*
Y332400D01*
X407400D01*
Y331600D01*
X406600D01*
X279200Y260200D02*
Y261800D01*
X280800D01*
Y260200D01*
X279200D01*
X279600Y260600D02*
Y261400D01*
X280400D01*
Y260600D01*
X279600D01*
X275200Y255200D02*
Y256800D01*
X276800D01*
Y255200D01*
X275200D01*
X275600Y255600D02*
Y256400D01*
X276400D01*
Y255600D01*
X275600D01*
X419200Y265200D02*
Y266800D01*
X420800D01*
Y265200D01*
X419200D01*
X419600Y265600D02*
Y266400D01*
X420400D01*
Y265600D01*
X419600D01*
X226200Y309200D02*
Y310800D01*
X227800D01*
Y309200D01*
X226200D01*
X226600Y309600D02*
Y310400D01*
X227400D01*
Y309600D01*
X226600D01*
X238200Y303200D02*
Y304800D01*
X239800D01*
Y303200D01*
X238200D01*
X238600Y303600D02*
Y304400D01*
X239400D01*
Y303600D01*
X238600D01*
X262200Y317200D02*
Y318800D01*
X263800D01*
Y317200D01*
X262200D01*
X262600Y317600D02*
Y318400D01*
X263400D01*
Y317600D01*
X262600D01*
X364200Y344200D02*
Y345800D01*
X365800D01*
Y344200D01*
X364200D01*
X364600Y344600D02*
Y345400D01*
X365400D01*
Y344600D01*
X364600D01*
X347200Y344200D02*
Y345800D01*
X348800D01*
Y344200D01*
X347200D01*
X347600Y344600D02*
Y345400D01*
X348400D01*
Y344600D01*
X347600D01*
X329200Y344200D02*
Y345800D01*
X330800D01*
Y344200D01*
X329200D01*
X329600Y344600D02*
Y345400D01*
X330400D01*
Y344600D01*
X329600D01*
X312200Y344200D02*
Y345800D01*
X313800D01*
Y344200D01*
X312200D01*
X312600Y344600D02*
Y345400D01*
X313400D01*
Y344600D01*
X312600D01*
X294200Y344200D02*
Y345800D01*
X295800D01*
Y344200D01*
X294200D01*
X294600Y344600D02*
Y345400D01*
X295400D01*
Y344600D01*
X294600D01*
X276200Y343605D02*
Y345205D01*
X277800D01*
Y343605D01*
X276200D01*
X276600Y344005D02*
Y344806D01*
X277400D01*
Y344005D01*
X276600D01*
X259200Y343700D02*
Y345300D01*
X260800D01*
Y343700D01*
X259200D01*
X259600Y344100D02*
Y344900D01*
X260400D01*
Y344100D01*
X259600D01*
X241200Y343700D02*
Y345300D01*
X242800D01*
Y343700D01*
X241200D01*
X241600Y344100D02*
Y344900D01*
X242400D01*
Y344100D01*
X241600D01*
X224200Y343700D02*
Y345300D01*
X225800D01*
Y343700D01*
X224200D01*
X224600Y344100D02*
Y344900D01*
X225400D01*
Y344100D01*
X224600D01*
X206200Y343700D02*
Y345300D01*
X207800D01*
Y343700D01*
X206200D01*
X206600Y344100D02*
Y344900D01*
X207400D01*
Y344100D01*
X206600D01*
X189200Y344200D02*
Y345800D01*
X190800D01*
Y344200D01*
X189200D01*
X189600Y344600D02*
Y345400D01*
X190400D01*
Y344600D01*
X189600D01*
X390200Y344200D02*
Y345800D01*
X391800D01*
Y344200D01*
X390200D01*
X390600Y344600D02*
Y345400D01*
X391400D01*
Y344600D01*
X390600D01*
X395200Y314200D02*
Y315800D01*
X396800D01*
Y314200D01*
X395200D01*
X395600Y314600D02*
Y315400D01*
X396400D01*
Y314600D01*
X395600D01*
X405200Y227200D02*
Y228800D01*
X406800D01*
Y227200D01*
X405200D01*
X405600Y227600D02*
Y228400D01*
X406400D01*
Y227600D01*
X405600D01*
X386200Y227200D02*
Y228800D01*
X387800D01*
Y227200D01*
X386200D01*
X386600Y227600D02*
Y228400D01*
X387400D01*
Y227600D01*
X386600D01*
X403200Y293200D02*
Y294800D01*
X404800D01*
Y293200D01*
X403200D01*
X403600Y293600D02*
Y294400D01*
X404400D01*
Y293600D01*
X403600D01*
X435200Y296200D02*
Y297800D01*
X436800D01*
Y296200D01*
X435200D01*
X435600Y296600D02*
Y297400D01*
X436400D01*
Y296600D01*
X435600D01*
X445200Y171200D02*
Y172800D01*
X446800D01*
Y171200D01*
X445200D01*
X445600Y171600D02*
Y172400D01*
X446400D01*
Y171600D01*
X445600D01*
X346200Y289200D02*
Y290800D01*
X347800D01*
Y289200D01*
X346200D01*
X346600Y289600D02*
Y290400D01*
X347400D01*
Y289600D01*
X346600D01*
X281200Y299200D02*
Y300800D01*
X282800D01*
Y299200D01*
X281200D01*
X281600Y299600D02*
Y300400D01*
X282400D01*
Y299600D01*
X281600D01*
X279200Y292200D02*
Y293800D01*
X280800D01*
Y292200D01*
X279200D01*
X279600Y292600D02*
Y293400D01*
X280400D01*
Y292600D01*
X279600D01*
X408200Y260200D02*
Y261800D01*
X409800D01*
Y260200D01*
X408200D01*
X408600Y260600D02*
Y261400D01*
X409400D01*
Y260600D01*
X408600D01*
X399200Y261200D02*
Y262800D01*
X400800D01*
Y261200D01*
X399200D01*
X399600Y261600D02*
Y262400D01*
X400400D01*
Y261600D01*
X399600D01*
X358200Y275200D02*
Y276800D01*
X359800D01*
Y275200D01*
X358200D01*
X358600Y275600D02*
Y276400D01*
X359400D01*
Y275600D01*
X358600D01*
X356200Y268200D02*
Y269800D01*
X357800D01*
Y268200D01*
X356200D01*
X356600Y268600D02*
Y269400D01*
X357400D01*
Y268600D01*
X356600D01*
X312200Y270200D02*
Y271800D01*
X313800D01*
Y270200D01*
X312200D01*
X312600Y270600D02*
Y271400D01*
X313400D01*
Y270600D01*
X312600D01*
X307200Y265200D02*
Y266800D01*
X308800D01*
Y265200D01*
X307200D01*
X307600Y265600D02*
Y266400D01*
X308400D01*
Y265600D01*
X307600D01*
X313200Y261200D02*
Y262800D01*
X314800D01*
Y261200D01*
X313200D01*
X313600Y261600D02*
Y262400D01*
X314400D01*
Y261600D01*
X313600D01*
X289200Y261200D02*
Y262800D01*
X290800D01*
Y261200D01*
X289200D01*
X289600Y261600D02*
Y262400D01*
X290400D01*
Y261600D01*
X289600D01*
X250200Y262200D02*
Y263800D01*
X251800D01*
Y262200D01*
X250200D01*
X250600Y262600D02*
Y263400D01*
X251400D01*
Y262600D01*
X250600D01*
X241200Y262200D02*
Y263800D01*
X242800D01*
Y262200D01*
X241200D01*
X241600Y262600D02*
Y263400D01*
X242400D01*
Y262600D01*
X241600D01*
X232200Y261200D02*
Y262800D01*
X233800D01*
Y261200D01*
X232200D01*
X232600Y261600D02*
Y262400D01*
X233400D01*
Y261600D01*
X232600D01*
X192200Y261200D02*
Y262800D01*
X193800D01*
Y261200D01*
X192200D01*
X192600Y261600D02*
Y262400D01*
X193400D01*
Y261600D01*
X192600D01*
X264200Y298200D02*
Y299800D01*
X265800D01*
Y298200D01*
X264200D01*
X264600Y298600D02*
Y299400D01*
X265400D01*
Y298600D01*
X264600D01*
X257200Y298200D02*
Y299800D01*
X258800D01*
Y298200D01*
X257200D01*
X257600Y298600D02*
Y299400D01*
X258400D01*
Y298600D01*
X257600D01*
X200200Y309200D02*
Y310800D01*
X201800D01*
Y309200D01*
X200200D01*
X200600Y309600D02*
Y310400D01*
X201400D01*
Y309600D01*
X200600D01*
X206200Y294200D02*
Y295800D01*
X207800D01*
Y294200D01*
X206200D01*
X206600Y294600D02*
Y295400D01*
X207400D01*
Y294600D01*
X206600D01*
X423200Y339200D02*
Y340800D01*
X424800D01*
Y339200D01*
X423200D01*
X423600Y339600D02*
Y340400D01*
X424400D01*
Y339600D01*
X423600D01*
X407200Y339200D02*
Y340800D01*
X408800D01*
Y339200D01*
X407200D01*
X407600Y339600D02*
Y340400D01*
X408400D01*
Y339600D01*
X407600D01*
X376200Y337200D02*
Y338800D01*
X377800D01*
Y337200D01*
X376200D01*
X376600Y337600D02*
Y338400D01*
X377400D01*
Y337600D01*
X376600D01*
X359200Y337200D02*
Y338800D01*
X360800D01*
Y337200D01*
X359200D01*
X359600Y337600D02*
Y338400D01*
X360400D01*
Y337600D01*
X359600D01*
X341200Y337200D02*
Y338800D01*
X342800D01*
Y337200D01*
X341200D01*
X341600Y337600D02*
Y338400D01*
X342400D01*
Y337600D01*
X341600D01*
X324200Y337200D02*
Y338800D01*
X325800D01*
Y337200D01*
X324200D01*
X324600Y337600D02*
Y338400D01*
X325400D01*
Y337600D01*
X324600D01*
X306200Y337200D02*
Y338800D01*
X307800D01*
Y337200D01*
X306200D01*
X306600Y337600D02*
Y338400D01*
X307400D01*
Y337600D01*
X306600D01*
X289200Y337200D02*
Y338800D01*
X290800D01*
Y337200D01*
X289200D01*
X289600Y337600D02*
Y338400D01*
X290400D01*
Y337600D01*
X289600D01*
X271200Y337200D02*
Y338800D01*
X272800D01*
Y337200D01*
X271200D01*
X271600Y337600D02*
Y338400D01*
X272400D01*
Y337600D01*
X271600D01*
X254200Y337200D02*
Y338800D01*
X255800D01*
Y337200D01*
X254200D01*
X254600Y337600D02*
Y338400D01*
X255400D01*
Y337600D01*
X254600D01*
X236200Y337200D02*
Y338800D01*
X237800D01*
Y337200D01*
X236200D01*
X236600Y337600D02*
Y338400D01*
X237400D01*
Y337600D01*
X236600D01*
X219200Y337200D02*
Y338800D01*
X220800D01*
Y337200D01*
X219200D01*
X219600Y337600D02*
Y338400D01*
X220400D01*
Y337600D01*
X219600D01*
X201200Y337200D02*
Y338800D01*
X202800D01*
Y337200D01*
X201200D01*
X201600Y337600D02*
Y338400D01*
X202400D01*
Y337600D01*
X201600D01*
X184200Y337200D02*
Y338800D01*
X185800D01*
Y337200D01*
X184200D01*
X184600Y337600D02*
Y338400D01*
X185400D01*
Y337600D01*
X184600D01*
X345200Y262200D02*
Y263800D01*
X346800D01*
Y262200D01*
X345200D01*
X345600Y262600D02*
Y263400D01*
X346400D01*
Y262600D01*
X345600D01*
X338200Y261200D02*
Y262800D01*
X339800D01*
Y261200D01*
X338200D01*
X338600Y261600D02*
Y262400D01*
X339400D01*
Y261600D01*
X338600D01*
X331200Y262200D02*
Y263800D01*
X332800D01*
Y262200D01*
X331200D01*
X331600Y262600D02*
Y263400D01*
X332400D01*
Y262600D01*
X331600D01*
X377200Y256200D02*
Y257800D01*
X378800D01*
Y256200D01*
X377200D01*
X377600Y256600D02*
Y257400D01*
X378400D01*
Y256600D01*
X377600D01*
X412200Y245200D02*
Y246800D01*
X413800D01*
Y245200D01*
X412200D01*
X412600Y245600D02*
Y246400D01*
X413400D01*
Y245600D01*
X412600D01*
X346200Y237200D02*
Y238800D01*
X347800D01*
Y237200D01*
X346200D01*
X346600Y237600D02*
Y238400D01*
X347400D01*
Y237600D01*
X346600D01*
X384200Y237200D02*
Y238800D01*
X385800D01*
Y237200D01*
X384200D01*
X384600Y237600D02*
Y238400D01*
X385400D01*
Y237600D01*
X384600D01*
X294321Y217321D02*
Y218921D01*
X295921D01*
Y217321D01*
X294321D01*
X294721Y217721D02*
Y218521D01*
X295521D01*
Y217721D01*
X294721D01*
X274200Y218200D02*
Y219800D01*
X275800D01*
Y218200D01*
X274200D01*
X274600Y218600D02*
Y219400D01*
X275400D01*
Y218600D01*
X274600D01*
X254321Y217321D02*
Y218921D01*
X255921D01*
Y217321D01*
X254321D01*
X254721Y217721D02*
Y218521D01*
X255521D01*
Y217721D01*
X254721D01*
X234321Y217321D02*
Y218921D01*
X235921D01*
Y217321D01*
X234321D01*
X234721Y217721D02*
Y218521D01*
X235521D01*
Y217721D01*
X234721D01*
X214382Y217382D02*
Y218982D01*
X215982D01*
Y217382D01*
X214382D01*
X214782Y217782D02*
Y218582D01*
X215582D01*
Y217782D01*
X214782D01*
X194200Y218200D02*
Y219800D01*
X195800D01*
Y218200D01*
X194200D01*
X194600Y218600D02*
Y219400D01*
X195400D01*
Y218600D01*
X194600D01*
X324200Y237200D02*
Y238800D01*
X325800D01*
Y237200D01*
X324200D01*
X324600Y237600D02*
Y238400D01*
X325400D01*
Y237600D01*
X324600D01*
X304200Y237200D02*
Y238800D01*
X305800D01*
Y237200D01*
X304200D01*
X304600Y237600D02*
Y238400D01*
X305400D01*
Y237600D01*
X304600D01*
X294200Y237200D02*
Y238800D01*
X295800D01*
Y237200D01*
X294200D01*
X294600Y237600D02*
Y238400D01*
X295400D01*
Y237600D01*
X294600D01*
X284200Y237200D02*
Y238800D01*
X285800D01*
Y237200D01*
X284200D01*
X284600Y237600D02*
Y238400D01*
X285400D01*
Y237600D01*
X284600D01*
X264200Y237200D02*
Y238800D01*
X265800D01*
Y237200D01*
X264200D01*
X264600Y237600D02*
Y238400D01*
X265400D01*
Y237600D01*
X264600D01*
X254200Y237200D02*
Y238800D01*
X255800D01*
Y237200D01*
X254200D01*
X254600Y237600D02*
Y238400D01*
X255400D01*
Y237600D01*
X254600D01*
X244200Y237200D02*
Y238800D01*
X245800D01*
Y237200D01*
X244200D01*
X244600Y237600D02*
Y238400D01*
X245400D01*
Y237600D01*
X244600D01*
X204200Y237200D02*
Y238800D01*
X205800D01*
Y237200D01*
X204200D01*
X204600Y237600D02*
Y238400D01*
X205400D01*
Y237600D01*
X204600D01*
X224200Y237200D02*
Y238800D01*
X225800D01*
Y237200D01*
X224200D01*
X224600Y237600D02*
Y238400D01*
X225400D01*
Y237600D01*
X224600D01*
X214200Y237200D02*
Y238800D01*
X215800D01*
Y237200D01*
X214200D01*
X214600Y237600D02*
Y238400D01*
X215400D01*
Y237600D01*
X214600D01*
X182200Y244200D02*
Y245800D01*
X183800D01*
Y244200D01*
X182200D01*
X182600Y244600D02*
Y245400D01*
X183400D01*
Y244600D01*
X182600D01*
X351200Y227200D02*
Y228800D01*
X352800D01*
Y227200D01*
X351200D01*
X351600Y227600D02*
Y228400D01*
X352400D01*
Y227600D01*
X351600D01*
X332200Y227200D02*
Y228800D01*
X333800D01*
Y227200D01*
X332200D01*
X332600Y227600D02*
Y228400D01*
X333400D01*
Y227600D01*
X332600D01*
X181200Y225200D02*
Y226800D01*
X182800D01*
Y225200D01*
X181200D01*
X181600Y225600D02*
Y226400D01*
X182400D01*
Y225600D01*
X181600D01*
X376200Y227200D02*
Y228800D01*
X377800D01*
Y227200D01*
X376200D01*
X376600Y227600D02*
Y228400D01*
X377400D01*
Y227600D01*
X376600D01*
X316200Y227200D02*
Y228800D01*
X317800D01*
Y227200D01*
X316200D01*
X316600Y227600D02*
Y228400D01*
X317400D01*
Y227600D01*
X316600D01*
X405200Y200200D02*
Y201800D01*
X406800D01*
Y200200D01*
X405200D01*
X405600Y200600D02*
Y201400D01*
X406400D01*
Y200600D01*
X405600D01*
X362700Y414700D02*
Y416300D01*
X364300D01*
Y414700D01*
X362700D01*
X363100Y415100D02*
Y415900D01*
X363900D01*
Y415100D01*
X363100D01*
X329200Y409200D02*
Y410800D01*
X330800D01*
Y409200D01*
X329200D01*
X329600Y409600D02*
Y410400D01*
X330400D01*
Y409600D01*
X329600D01*
X318700Y406700D02*
Y408300D01*
X320300D01*
Y406700D01*
X318700D01*
X319100Y407100D02*
Y407900D01*
X319900D01*
Y407100D01*
X319100D01*
X309200Y409200D02*
Y410800D01*
X310800D01*
Y409200D01*
X309200D01*
X309600Y409600D02*
Y410400D01*
X310400D01*
Y409600D01*
X309600D01*
X298700Y407200D02*
Y408800D01*
X300300D01*
Y407200D01*
X298700D01*
X299100Y407600D02*
Y408400D01*
X299900D01*
Y407600D01*
X299100D01*
X280200Y416200D02*
Y417800D01*
X281800D01*
Y416200D01*
X280200D01*
X280600Y416600D02*
Y417400D01*
X281400D01*
Y416600D01*
X280600D01*
X289200Y409200D02*
Y410800D01*
X290800D01*
Y409200D01*
X289200D01*
X289600Y409600D02*
Y410400D01*
X290400D01*
Y409600D01*
X289600D01*
X378200Y349700D02*
Y351300D01*
X379800D01*
Y349700D01*
X378200D01*
X378600Y350100D02*
Y350900D01*
X379400D01*
Y350100D01*
X378600D01*
X361200Y349700D02*
Y351300D01*
X362800D01*
Y349700D01*
X361200D01*
X361600Y350100D02*
Y350900D01*
X362400D01*
Y350100D01*
X361600D01*
X306700Y350200D02*
Y351800D01*
X308300D01*
Y350200D01*
X306700D01*
X307100Y350600D02*
Y351400D01*
X307900D01*
Y350600D01*
X307100D01*
X289700Y350200D02*
Y351800D01*
X291300D01*
Y350200D01*
X289700D01*
X290100Y350600D02*
Y351400D01*
X290900D01*
Y350600D01*
X290100D01*
X276700Y349700D02*
Y351300D01*
X278300D01*
Y349700D01*
X276700D01*
X277100Y350100D02*
Y350900D01*
X277900D01*
Y350100D01*
X277100D01*
X259200Y349700D02*
Y351300D01*
X260800D01*
Y349700D01*
X259200D01*
X259600Y350100D02*
Y350900D01*
X260400D01*
Y350100D01*
X259600D01*
X241700Y349700D02*
Y351300D01*
X243300D01*
Y349700D01*
X241700D01*
X242100Y350100D02*
Y350900D01*
X242900D01*
Y350100D01*
X242100D01*
X224200Y349700D02*
Y351300D01*
X225800D01*
Y349700D01*
X224200D01*
X224600Y350100D02*
Y350900D01*
X225400D01*
Y350100D01*
X224600D01*
X206700Y349700D02*
Y351300D01*
X208300D01*
Y349700D01*
X206700D01*
X207100Y350100D02*
Y350900D01*
X207900D01*
Y350100D01*
X207100D01*
X188200Y350200D02*
Y351800D01*
X189800D01*
Y350200D01*
X188200D01*
X188600Y350600D02*
Y351400D01*
X189400D01*
Y350600D01*
X188600D01*
X224200Y399200D02*
Y400800D01*
X225800D01*
Y399200D01*
X224200D01*
X224600Y399600D02*
Y400400D01*
X225400D01*
Y399600D01*
X224600D01*
X224200Y434200D02*
Y435800D01*
X225800D01*
Y434200D01*
X224200D01*
X224600Y434600D02*
Y435400D01*
X225400D01*
Y434600D01*
X224600D01*
X246700Y404200D02*
Y405800D01*
X248300D01*
Y404200D01*
X246700D01*
X247100Y404600D02*
Y405400D01*
X247900D01*
Y404600D01*
X247100D01*
X244200Y434200D02*
Y435800D01*
X245800D01*
Y434200D01*
X244200D01*
X244600Y434600D02*
Y435400D01*
X245400D01*
Y434600D01*
X244600D01*
X214200Y444200D02*
Y445800D01*
X215800D01*
Y444200D01*
X214200D01*
X214600Y444600D02*
Y445400D01*
X215400D01*
Y444600D01*
X214600D01*
X234200Y449200D02*
Y450800D01*
X235800D01*
Y449200D01*
X234200D01*
X234600Y449600D02*
Y450400D01*
X235400D01*
Y449600D01*
X234600D01*
X254200Y449200D02*
Y450800D01*
X255800D01*
Y449200D01*
X254200D01*
X254600Y449600D02*
Y450400D01*
X255400D01*
Y449600D01*
X254600D01*
X221700Y406700D02*
Y408300D01*
X223300D01*
Y406700D01*
X221700D01*
X222100Y407100D02*
Y407900D01*
X222900D01*
Y407100D01*
X222100D01*
X196700Y414200D02*
Y415800D01*
X198300D01*
Y414200D01*
X196700D01*
X197100Y414600D02*
Y415400D01*
X197900D01*
Y414600D01*
X197100D01*
X244200Y416700D02*
Y418300D01*
X245800D01*
Y416700D01*
X244200D01*
X244600Y417100D02*
Y417900D01*
X245400D01*
Y417100D01*
X244600D01*
X264200Y433275D02*
Y434875D01*
X265800D01*
Y433275D01*
X264200D01*
X264600Y433675D02*
Y434475D01*
X265400D01*
Y433675D01*
X264600D01*
X344200Y406700D02*
Y408300D01*
X345800D01*
Y406700D01*
X344200D01*
X344600Y407100D02*
Y407900D01*
X345400D01*
Y407100D01*
X344600D01*
X344200Y419200D02*
Y420800D01*
X345800D01*
Y419200D01*
X344200D01*
X344600Y419600D02*
Y420400D01*
X345400D01*
Y419600D01*
X344600D01*
X264200Y416700D02*
Y418300D01*
X265800D01*
Y416700D01*
X264200D01*
X264600Y417100D02*
Y417900D01*
X265400D01*
Y417100D01*
X264600D01*
X324200Y350700D02*
Y352300D01*
X325800D01*
Y350700D01*
X324200D01*
X324600Y351100D02*
Y351900D01*
X325400D01*
Y351100D01*
X324600D01*
X344700Y350700D02*
Y352300D01*
X346300D01*
Y350700D01*
X344700D01*
X345100Y351100D02*
Y351900D01*
X345900D01*
Y351100D01*
X345100D01*
X238300Y319400D02*
Y321000D01*
X239900D01*
Y319400D01*
X238300D01*
X238700Y319800D02*
Y320600D01*
X239500D01*
Y319800D01*
X238700D01*
D87*
X435800Y408000D02*
G03*
X435800Y408000I-800J0D01*
G01*
Y453000D02*
G03*
X435800Y453000I-800J0D01*
G01*
M02*
