M48
;Layer_Color=9474304
;FILE_FORMAT=2:5
INCH,LZ
;TYPE=PLATED
T1F00S00C0.02800
T2F00S00C0.03504
T3F00S00C0.03543
T4F00S00C0.03937
T5F00S00C0.05512
T6F00S00C0.06181
T7F00S00C0.06200
T8F00S00C0.12500
T9F00S00C0.12795
%
T01
X0317Y0228
X0333
X0325Y0238
Y0257
X0332Y0263
X0339Y0262
X0346Y0263
X0357Y0269
X0359Y0276
X03645Y02625
X0372Y0268
X0378Y0257
X0385Y0238
X0387Y0228
X0377
X0368Y02265
X0352Y0228
X0347Y0238
Y029
X0313Y0271
X0314Y0262
X04
X0409Y0261
X042Y0266
X0413Y0246
X0406Y0228
Y0201
X0446Y0172
X0436Y0297
X0404Y0294
X0382Y0311
X0304Y0308
X0283Y031
X0282Y03
X028Y0293
X0265Y0299
X0258
X0239Y0304
X0227Y031
X0201
X0207Y0295
X020575Y0256755
X0200005Y0261005
X0193Y0262
X0214Y0261
X0233Y0262
X0242Y0263
X024425Y0257
X0251Y0263
X0255Y0238
X0265
X0267Y0227
X0275Y0219
X0255121Y0218121
X0235121
X0227Y0227
X0225Y0238
X0215
X0205
X0195Y0219
X0182Y0226
X0183Y0245
X0215182Y0218182
X0245Y0238
X0285
X0295
X0305
X0307Y0227
X0295121Y0218121
X0285Y0257
X028Y0261
X0276Y0256
X029Y0262
X0308Y0266
X0304Y0322
X0302Y0328
X0293Y0326
X029Y0338
X0295Y0345
X02905Y0351
X02775Y03505
X0277Y0344406
X0272Y0338
X0255
X026Y03445
Y03505
X02425
X0242Y03445
X0237Y0338
X022
X0225Y03445
Y03505
X02075
X0207Y03445
X0202Y0338
X0185
X019Y0345
X0189Y0351
X01975Y0415
X02225Y04075
X0225Y04
X02475Y0405
X0245Y04175
Y0435
X0225
X0215Y0445
X0235Y045
X0255
X0265Y0434075
Y04175
X0281Y0417
X029Y041
X02995Y0408
X031Y041
X03075Y0351
X0307Y0338
X0311929Y0324
X028441Y0317914
X02755Y03165
X02695Y0317
X0263Y0318
X02391Y03202
X0313Y0345
X033
X0325Y03515
Y0338
X0342
X0348Y0345
X03455Y03515
X0362Y03505
X0365Y0345
X036Y0338
X0377
X0379Y03505
X0391Y0345
X0408Y034
X0407Y0332
X0415Y0331
X0424Y034
X0396Y0315
X03635Y04155
X0345Y042
Y04075
X033Y041
X03195Y04075
T02
X04Y0418
Y0428
Y0438
Y0448
X041Y0443
Y0433
Y0423
Y0413
T03
X0447Y0268
Y0278
X0203Y0281
X0193
X0183
Y0271
X0193
X0203
T04
X0427Y0227
Y0237
Y0247
T05
X02Y0145
X022
X024
X026
X028
X03
X032
X034
X036
X038
X04
X039Y0205
X037
X035
X033
X031
X029
X027
X025
X023
X021
X019
X0215Y03975
X0235
X0255
X0275
X0295
X0305Y04575
X0285
X0265
X0245
X0225
X0205
X0325
X0345
X0365
X0355Y03975
X0335
X0315
X0375
T06
X0447Y04615
T07
X0447Y03995
T08
X04384Y01385
X0185Y046
T09
X0435Y0408
Y0453
M30
