G04 Layer_Color=16711935*
%FSLAX25Y25*%
%MOIN*%
G70*
G01*
G75*
%ADD54R,0.04737X0.04737*%
%ADD59C,0.07099*%
%ADD60C,0.13595*%
%ADD61C,0.10642*%
%ADD62C,0.13300*%
%ADD63C,0.11800*%
%ADD64C,0.06706*%
%ADD65R,0.06706X0.06706*%
%ADD66R,0.06706X0.06706*%
%ADD67C,0.08674*%
%ADD68R,0.05524X0.08477*%
%ADD69R,0.04737X0.04540*%
%ADD70R,0.04540X0.04737*%
%ADD71R,0.08871X0.10642*%
%ADD72R,0.07296X0.05524*%
%ADD73R,0.05524X0.07493*%
G04:AMPARAMS|DCode=74|XSize=82.8mil|YSize=82.8mil|CornerRadius=22.7mil|HoleSize=0mil|Usage=FLASHONLY|Rotation=90.000|XOffset=0mil|YOffset=0mil|HoleType=Round|Shape=RoundedRectangle|*
%AMROUNDEDRECTD74*
21,1,0.08280,0.03740,0,0,90.0*
21,1,0.03740,0.08280,0,0,90.0*
1,1,0.04540,0.01870,0.01870*
1,1,0.04540,0.01870,-0.01870*
1,1,0.04540,-0.01870,-0.01870*
1,1,0.04540,-0.01870,0.01870*
%
%ADD74ROUNDEDRECTD74*%
G04:AMPARAMS|DCode=75|XSize=23.75mil|YSize=61.15mil|CornerRadius=7.94mil|HoleSize=0mil|Usage=FLASHONLY|Rotation=90.000|XOffset=0mil|YOffset=0mil|HoleType=Round|Shape=RoundedRectangle|*
%AMROUNDEDRECTD75*
21,1,0.02375,0.04528,0,0,90.0*
21,1,0.00787,0.06115,0,0,90.0*
1,1,0.01587,0.02264,0.00394*
1,1,0.01587,0.02264,-0.00394*
1,1,0.01587,-0.02264,-0.00394*
1,1,0.01587,-0.02264,0.00394*
%
%ADD75ROUNDEDRECTD75*%
G04:AMPARAMS|DCode=76|XSize=78.87mil|YSize=82.8mil|CornerRadius=21.72mil|HoleSize=0mil|Usage=FLASHONLY|Rotation=90.000|XOffset=0mil|YOffset=0mil|HoleType=Round|Shape=RoundedRectangle|*
%AMROUNDEDRECTD76*
21,1,0.07887,0.03937,0,0,90.0*
21,1,0.03543,0.08280,0,0,90.0*
1,1,0.04343,0.01969,0.01772*
1,1,0.04343,0.01969,-0.01772*
1,1,0.04343,-0.01969,-0.01772*
1,1,0.04343,-0.01969,0.01772*
%
%ADD76ROUNDEDRECTD76*%
G04:AMPARAMS|DCode=77|XSize=90.68mil|YSize=70.99mil|CornerRadius=19.75mil|HoleSize=0mil|Usage=FLASHONLY|Rotation=90.000|XOffset=0mil|YOffset=0mil|HoleType=Round|Shape=RoundedRectangle|*
%AMROUNDEDRECTD77*
21,1,0.09068,0.03150,0,0,90.0*
21,1,0.05118,0.07099,0,0,90.0*
1,1,0.03950,0.01575,0.02559*
1,1,0.03950,0.01575,-0.02559*
1,1,0.03950,-0.01575,-0.02559*
1,1,0.03950,-0.01575,0.02559*
%
%ADD77ROUNDEDRECTD77*%
%ADD78O,0.03162X0.09658*%
%ADD79O,0.02965X0.06312*%
%ADD80R,0.04147X0.02375*%
%ADD81R,0.13792X0.10249*%
%ADD82R,0.04737X0.10249*%
%ADD83O,0.07099X0.02769*%
D54*
X409000Y175248D02*
D03*
Y168752D02*
D03*
X178000Y252248D02*
D03*
Y245752D02*
D03*
X304000Y252248D02*
D03*
Y245752D02*
D03*
X205000Y441752D02*
D03*
Y448248D02*
D03*
X245000Y441752D02*
D03*
Y448248D02*
D03*
X295000Y423248D02*
D03*
Y416752D02*
D03*
X215000Y252248D02*
D03*
Y245752D02*
D03*
X332000Y275248D02*
D03*
Y268752D02*
D03*
X225000Y252248D02*
D03*
Y245752D02*
D03*
X339000Y275248D02*
D03*
Y268752D02*
D03*
X255000Y252248D02*
D03*
Y245752D02*
D03*
X346000Y275248D02*
D03*
Y268752D02*
D03*
X215000Y413248D02*
D03*
Y406752D02*
D03*
X255000Y413248D02*
D03*
Y406752D02*
D03*
X315000Y423248D02*
D03*
Y416752D02*
D03*
X264000Y252248D02*
D03*
Y245752D02*
D03*
X385000Y252248D02*
D03*
Y245752D02*
D03*
X296000Y252248D02*
D03*
Y245752D02*
D03*
X379000Y268248D02*
D03*
Y261752D02*
D03*
X225000Y441752D02*
D03*
Y448248D02*
D03*
X265000Y441752D02*
D03*
Y448248D02*
D03*
X335000Y423248D02*
D03*
Y416752D02*
D03*
X235000Y413248D02*
D03*
Y406752D02*
D03*
X275000Y413248D02*
D03*
Y406752D02*
D03*
X355000Y423248D02*
D03*
Y416752D02*
D03*
X337000Y296752D02*
D03*
Y303248D02*
D03*
D59*
X410000Y413000D02*
D03*
X400000Y418000D02*
D03*
X410000Y423000D02*
D03*
X400000Y428000D02*
D03*
X410000Y433000D02*
D03*
X400000Y438000D02*
D03*
X410000Y443000D02*
D03*
X400000Y448000D02*
D03*
D60*
X435000Y408000D02*
D03*
Y453000D02*
D03*
D61*
X447000Y461500D02*
D03*
Y399500D02*
D03*
D62*
X185000Y460000D02*
D03*
X438400Y138500D02*
D03*
D63*
X235000Y397500D02*
D03*
X215000D02*
D03*
X225000Y457500D02*
D03*
X205000D02*
D03*
X190000Y205000D02*
D03*
X210000D02*
D03*
X200000Y145000D02*
D03*
X220000D02*
D03*
X275000Y397500D02*
D03*
X255000D02*
D03*
X265000Y457500D02*
D03*
X245000D02*
D03*
X230000Y205000D02*
D03*
X250000D02*
D03*
X240000Y145000D02*
D03*
X260000D02*
D03*
X315000Y397500D02*
D03*
X295000D02*
D03*
X305000Y457500D02*
D03*
X285000D02*
D03*
X270000Y205000D02*
D03*
X290000D02*
D03*
X280000Y145000D02*
D03*
X300000D02*
D03*
X325000Y457500D02*
D03*
X345000D02*
D03*
X335000Y397500D02*
D03*
X365000Y457500D02*
D03*
X355000Y397500D02*
D03*
X375000D02*
D03*
X310000Y205000D02*
D03*
X330000D02*
D03*
X320000Y145000D02*
D03*
X340000D02*
D03*
X400000D02*
D03*
X380000D02*
D03*
X390000Y205000D02*
D03*
X360000Y145000D02*
D03*
X370000Y205000D02*
D03*
X350000D02*
D03*
D64*
X447000Y278000D02*
D03*
X183000Y271000D02*
D03*
Y281000D02*
D03*
X193000Y271000D02*
D03*
Y281000D02*
D03*
X203000Y271000D02*
D03*
D65*
X447000Y268000D02*
D03*
D66*
X203000Y281000D02*
D03*
D67*
X427000Y247000D02*
D03*
Y237000D02*
D03*
Y227000D02*
D03*
D68*
X436000Y277177D02*
D03*
Y286823D02*
D03*
X396000Y303823D02*
D03*
Y294177D02*
D03*
D69*
X202150Y295000D02*
D03*
X195850D02*
D03*
X281150Y285000D02*
D03*
X274850D02*
D03*
X259850Y326000D02*
D03*
X266150D02*
D03*
D70*
X331000Y303150D02*
D03*
Y296850D02*
D03*
X293000Y311150D02*
D03*
Y304850D02*
D03*
D71*
X185000Y383799D02*
D03*
Y371201D02*
D03*
X255000Y383799D02*
D03*
Y371201D02*
D03*
X325000Y383799D02*
D03*
Y371201D02*
D03*
X202500Y383799D02*
D03*
Y371201D02*
D03*
X272500Y383799D02*
D03*
Y371201D02*
D03*
X342500Y383799D02*
D03*
Y371201D02*
D03*
X220000Y383799D02*
D03*
Y371201D02*
D03*
X290000Y383799D02*
D03*
Y371201D02*
D03*
X360000Y383799D02*
D03*
Y371201D02*
D03*
X237500Y383799D02*
D03*
Y371201D02*
D03*
X307500Y383799D02*
D03*
Y371201D02*
D03*
X377500Y383799D02*
D03*
Y371201D02*
D03*
X444000Y231701D02*
D03*
Y244299D02*
D03*
X428000Y201299D02*
D03*
Y188701D02*
D03*
Y175299D02*
D03*
Y162701D02*
D03*
D72*
X205000Y431398D02*
D03*
Y418602D02*
D03*
X245000Y426398D02*
D03*
Y413602D02*
D03*
X295000Y433602D02*
D03*
Y446398D02*
D03*
X215000Y423602D02*
D03*
Y436398D02*
D03*
X255000Y423602D02*
D03*
Y436398D02*
D03*
X315000Y433602D02*
D03*
Y446398D02*
D03*
X225000Y426398D02*
D03*
Y413602D02*
D03*
X265000Y426398D02*
D03*
Y413602D02*
D03*
X335000Y433602D02*
D03*
Y446398D02*
D03*
X235000Y423602D02*
D03*
Y436398D02*
D03*
X275000Y423602D02*
D03*
Y436398D02*
D03*
X355000Y433602D02*
D03*
Y446398D02*
D03*
D73*
X391791Y187500D02*
D03*
X403209D02*
D03*
D74*
X178469Y315724D02*
D03*
Y306276D02*
D03*
D75*
X189000Y316118D02*
D03*
Y313559D02*
D03*
Y311000D02*
D03*
Y308441D02*
D03*
Y305882D02*
D03*
D76*
X178469Y325961D02*
D03*
X178488Y296039D02*
D03*
D77*
X188508Y298795D02*
D03*
Y323205D02*
D03*
D78*
X190000Y336476D02*
D03*
X180000D02*
D03*
X190000Y358524D02*
D03*
X180000D02*
D03*
X260000Y336476D02*
D03*
X250000D02*
D03*
X260000Y358524D02*
D03*
X250000D02*
D03*
X330000Y336476D02*
D03*
X320000D02*
D03*
X330000Y358524D02*
D03*
X320000D02*
D03*
X207500Y336476D02*
D03*
X197500D02*
D03*
X207500Y358524D02*
D03*
X197500D02*
D03*
X277500Y336476D02*
D03*
X267500D02*
D03*
X277500Y358524D02*
D03*
X267500D02*
D03*
X347500Y336476D02*
D03*
X337500D02*
D03*
X347500Y358524D02*
D03*
X337500D02*
D03*
X225000Y336476D02*
D03*
X215000D02*
D03*
X225000Y358524D02*
D03*
X215000D02*
D03*
X295000Y336476D02*
D03*
X285000D02*
D03*
X295000Y358524D02*
D03*
X285000D02*
D03*
X365000Y336476D02*
D03*
X355000D02*
D03*
X365000Y358524D02*
D03*
X355000D02*
D03*
X242500Y336476D02*
D03*
X232500D02*
D03*
X242500Y358524D02*
D03*
X232500D02*
D03*
X312500Y336476D02*
D03*
X302500D02*
D03*
X312500Y358524D02*
D03*
X302500D02*
D03*
X382500Y336476D02*
D03*
X372500D02*
D03*
X382500Y358524D02*
D03*
X372500D02*
D03*
D79*
X180000Y239122D02*
D03*
X190000D02*
D03*
X180000Y216878D02*
D03*
X190000D02*
D03*
X300000Y239122D02*
D03*
X310000D02*
D03*
X300000Y216878D02*
D03*
X310000D02*
D03*
X200000Y239122D02*
D03*
X210000D02*
D03*
X200000Y216878D02*
D03*
X210000D02*
D03*
X320000Y239122D02*
D03*
X330000D02*
D03*
X320000Y216878D02*
D03*
X330000D02*
D03*
X220000Y239122D02*
D03*
X230000D02*
D03*
X220000Y216878D02*
D03*
X230000D02*
D03*
X340000Y239122D02*
D03*
X350000D02*
D03*
X340000Y216878D02*
D03*
X350000D02*
D03*
X240000Y239122D02*
D03*
X250000D02*
D03*
X240000Y216878D02*
D03*
X250000D02*
D03*
X360000Y239122D02*
D03*
X370000D02*
D03*
X360000Y216878D02*
D03*
X370000D02*
D03*
X260000Y239122D02*
D03*
X270000D02*
D03*
X260000Y216878D02*
D03*
X270000D02*
D03*
X380000Y239122D02*
D03*
X390000D02*
D03*
X380000Y216878D02*
D03*
X390000D02*
D03*
X280000Y239122D02*
D03*
X290000D02*
D03*
X280000Y216878D02*
D03*
X290000D02*
D03*
X400000Y239122D02*
D03*
X410000D02*
D03*
X400000Y216878D02*
D03*
X410000D02*
D03*
D80*
X203740Y250559D02*
D03*
Y248000D02*
D03*
Y245441D02*
D03*
X196260D02*
D03*
Y248000D02*
D03*
Y250559D02*
D03*
X323740D02*
D03*
Y248000D02*
D03*
Y245441D02*
D03*
X316260D02*
D03*
Y248000D02*
D03*
Y250559D02*
D03*
X243740D02*
D03*
Y248000D02*
D03*
Y245441D02*
D03*
X236260D02*
D03*
Y248000D02*
D03*
Y250559D02*
D03*
X363740D02*
D03*
Y248000D02*
D03*
Y245441D02*
D03*
X356260D02*
D03*
Y248000D02*
D03*
Y250559D02*
D03*
X283740D02*
D03*
Y248000D02*
D03*
Y245441D02*
D03*
X276260D02*
D03*
Y248000D02*
D03*
Y250559D02*
D03*
X403740D02*
D03*
Y248000D02*
D03*
Y245441D02*
D03*
X396260D02*
D03*
Y248000D02*
D03*
Y250559D02*
D03*
D81*
X416000Y304417D02*
D03*
D82*
X406945Y281583D02*
D03*
X416000D02*
D03*
X425055D02*
D03*
D83*
X208669Y305260D02*
D03*
Y309000D02*
D03*
Y312740D02*
D03*
X217331Y305260D02*
D03*
Y309000D02*
D03*
Y312740D02*
D03*
M02*
