G04 Layer_Physical_Order=1*
G04 Layer_Color=255*
%FSLAX25Y25*%
%MOIN*%
G70*
G01*
G75*
%ADD10R,0.03937X0.03937*%
%ADD11R,0.03937X0.03937*%
G04:AMPARAMS|DCode=12|XSize=83mil|YSize=55mil|CornerRadius=13.75mil|HoleSize=0mil|Usage=FLASHONLY|Rotation=0.000|XOffset=0mil|YOffset=0mil|HoleType=Round|Shape=RoundedRectangle|*
%AMROUNDEDRECTD12*
21,1,0.08300,0.02750,0,0,0.0*
21,1,0.05550,0.05500,0,0,0.0*
1,1,0.02750,0.02775,-0.01375*
1,1,0.02750,-0.02775,-0.01375*
1,1,0.02750,-0.02775,0.01375*
1,1,0.02750,0.02775,0.01375*
%
%ADD12ROUNDEDRECTD12*%
%ADD13O,0.02165X0.06890*%
%ADD14O,0.06890X0.02165*%
%ADD15O,0.02362X0.08661*%
%ADD16C,0.01500*%
%ADD17C,0.02000*%
%ADD18C,0.04000*%
%ADD19C,0.03000*%
%ADD20C,0.06299*%
%ADD21C,0.12795*%
%ADD22C,0.09843*%
%ADD23C,0.12500*%
%ADD24C,0.11000*%
%ADD25C,0.05906*%
%ADD26R,0.05906X0.05906*%
%ADD27R,0.05906X0.05906*%
%ADD28C,0.07874*%
%ADD29C,0.05000*%
G36*
X316783Y343682D02*
Y342032D01*
X318460D01*
X318490Y341986D01*
X321587Y338890D01*
X321470Y338000D01*
X321590Y337086D01*
X321943Y336235D01*
X322504Y335504D01*
X323216Y334958D01*
Y319739D01*
X308761Y305284D01*
X306958D01*
X306712Y305784D01*
X307057Y306235D01*
X307410Y307086D01*
X307464Y307500D01*
X304000D01*
Y308000D01*
X303500D01*
Y311464D01*
X303086Y311410D01*
X302235Y311057D01*
X301504Y310496D01*
X300943Y309765D01*
X300590Y308914D01*
X300527Y308434D01*
X297229D01*
X296993Y308875D01*
X297068Y308987D01*
X297230Y309799D01*
X297068Y310612D01*
X296993Y310724D01*
X297229Y311164D01*
X300959D01*
X301642Y311300D01*
X302221Y311687D01*
X311111Y320578D01*
X311929Y320470D01*
X312843Y320590D01*
X313694Y320943D01*
X314425Y321504D01*
X314986Y322235D01*
X315339Y323086D01*
X315459Y324000D01*
X315339Y324914D01*
X314986Y325765D01*
X314425Y326496D01*
X313694Y327057D01*
X312843Y327410D01*
X311929Y327530D01*
X311015Y327410D01*
X310164Y327057D01*
X309433Y326496D01*
X308872Y325765D01*
X308519Y324914D01*
X308399Y324000D01*
X308519Y323086D01*
X308535Y323048D01*
X307925Y322438D01*
X307451Y322599D01*
X307410Y322914D01*
X307057Y323765D01*
X306496Y324496D01*
X305765Y325057D01*
X305020Y325366D01*
X304862Y325698D01*
X304821Y325926D01*
X305057Y326235D01*
X305410Y327086D01*
X305530Y328000D01*
X305410Y328914D01*
X305057Y329765D01*
X304496Y330496D01*
X303765Y331057D01*
X303381Y331217D01*
X303304Y331555D01*
X303310Y331787D01*
X306110Y334587D01*
X307000Y334470D01*
X307914Y334590D01*
X308765Y334943D01*
X309496Y335504D01*
X310057Y336235D01*
X310410Y337086D01*
X310530Y338000D01*
X310410Y338914D01*
X310057Y339765D01*
X309496Y340496D01*
X308765Y341057D01*
X307914Y341410D01*
X307454Y341470D01*
X307419Y341531D01*
X307707Y342032D01*
X311119D01*
X311235Y341943D01*
X312086Y341590D01*
X313000Y341470D01*
X313914Y341590D01*
X314765Y341943D01*
X315496Y342504D01*
X316057Y343235D01*
X316283Y343781D01*
X316783Y343682D01*
D02*
G37*
G36*
X455000Y126000D02*
X371000D01*
Y176000D01*
X381000Y186000D01*
X380000Y187000D01*
Y192961D01*
X400000D01*
X400780Y193116D01*
X401442Y193558D01*
X405429Y197545D01*
X406000Y197470D01*
X406914Y197590D01*
X407765Y197943D01*
X408496Y198504D01*
X409057Y199235D01*
X409410Y200086D01*
X409530Y201000D01*
X409410Y201914D01*
X409057Y202765D01*
X408496Y203496D01*
X407765Y204057D01*
X406914Y204410D01*
X406000Y204530D01*
X405086Y204410D01*
X404235Y204057D01*
X403504Y203496D01*
X402943Y202765D01*
X402590Y201914D01*
X402470Y201000D01*
X402545Y200429D01*
X399155Y197039D01*
X380000D01*
Y211582D01*
X387583D01*
X387657Y211082D01*
X387501Y211034D01*
X386371Y210431D01*
X385382Y209618D01*
X384569Y208629D01*
X383966Y207500D01*
X383594Y206274D01*
X383469Y205000D01*
X383594Y203726D01*
X383966Y202501D01*
X384569Y201371D01*
X385382Y200382D01*
X386371Y199569D01*
X387501Y198966D01*
X388726Y198594D01*
X390000Y198469D01*
X391274Y198594D01*
X392499Y198966D01*
X393629Y199569D01*
X394618Y200382D01*
X395431Y201371D01*
X396034Y202501D01*
X396406Y203726D01*
X396531Y205000D01*
X396406Y206274D01*
X396034Y207500D01*
X395431Y208629D01*
X394618Y209618D01*
X393629Y210431D01*
X392499Y211034D01*
X392343Y211082D01*
X392417Y211582D01*
X406621D01*
X407401Y211737D01*
X408063Y212179D01*
X409442Y213558D01*
X409884Y214220D01*
X410039Y215000D01*
Y215032D01*
X411216D01*
Y215961D01*
X416000D01*
X416780Y216116D01*
X417442Y216558D01*
X420442Y219558D01*
X420884Y220220D01*
X421039Y221000D01*
Y262642D01*
X421765Y262943D01*
X422496Y263504D01*
X423057Y264235D01*
X423410Y265086D01*
X423530Y266000D01*
X423410Y266914D01*
X423057Y267765D01*
X422496Y268496D01*
X421765Y269057D01*
X420914Y269410D01*
X420000Y269530D01*
X419086Y269410D01*
X418235Y269057D01*
X417504Y268496D01*
X416943Y267765D01*
X416590Y266914D01*
X416470Y266000D01*
X416590Y265086D01*
X416943Y264235D01*
X416961Y264211D01*
Y246560D01*
X416461Y246527D01*
X416410Y246914D01*
X416057Y247765D01*
X415496Y248496D01*
X414765Y249057D01*
X413914Y249410D01*
X413000Y249530D01*
X412086Y249410D01*
X411235Y249057D01*
X410504Y248496D01*
X409943Y247765D01*
X409590Y246914D01*
X409573Y246784D01*
X376217D01*
Y247969D01*
X375009D01*
X374858Y248468D01*
X375262Y248738D01*
X379262Y252738D01*
X379262Y252738D01*
X379648Y253317D01*
X379774Y253950D01*
X380496Y254504D01*
X381057Y255235D01*
X381410Y256086D01*
X381530Y257000D01*
X381410Y257914D01*
X381057Y258765D01*
X380496Y259496D01*
X379765Y260057D01*
X378914Y260410D01*
X378000Y260530D01*
X377086Y260410D01*
X376235Y260057D01*
X375504Y259496D01*
X374943Y258765D01*
X374590Y257914D01*
X374470Y257000D01*
X374590Y256086D01*
X374943Y255235D01*
X375504Y254504D01*
X375533Y254056D01*
X373261Y251784D01*
X369000D01*
X368317Y251648D01*
X367738Y251262D01*
X367738Y251262D01*
X365490Y249014D01*
X365104Y248435D01*
X365011Y247969D01*
X363784D01*
Y242032D01*
X369721D01*
Y247507D01*
X370000Y247668D01*
X370280Y247507D01*
Y242032D01*
X376217D01*
Y243216D01*
X410879D01*
X411235Y242943D01*
X412086Y242590D01*
X413000Y242470D01*
X413914Y242590D01*
X414765Y242943D01*
X415496Y243504D01*
X416057Y244235D01*
X416410Y245086D01*
X416461Y245473D01*
X416961Y245440D01*
Y221845D01*
X415155Y220039D01*
X411216D01*
Y220969D01*
X405279D01*
Y215660D01*
X404720D01*
Y220969D01*
X404199D01*
X403992Y221468D01*
X407255Y224731D01*
X407765Y224943D01*
X408496Y225504D01*
X409057Y226235D01*
X409410Y227086D01*
X409530Y228000D01*
X409410Y228914D01*
X409057Y229765D01*
X408496Y230496D01*
X407765Y231057D01*
X406914Y231410D01*
X406000Y231530D01*
X405086Y231410D01*
X404235Y231057D01*
X403504Y230496D01*
X402943Y229765D01*
X402590Y228914D01*
X402470Y228000D01*
X402590Y227086D01*
X402943Y226235D01*
X403276Y225800D01*
X400490Y223014D01*
X400104Y222435D01*
X399968Y221752D01*
Y220969D01*
X398783D01*
Y215660D01*
X391216D01*
Y220969D01*
X385279D01*
Y215660D01*
X384720D01*
Y220969D01*
X383536D01*
Y223248D01*
X383400Y223931D01*
X383014Y224510D01*
X380413Y227110D01*
X380530Y228000D01*
X380410Y228914D01*
X380057Y229765D01*
X379496Y230496D01*
X379210Y230716D01*
X379380Y231216D01*
X381261D01*
X383587Y228890D01*
X383470Y228000D01*
X383590Y227086D01*
X383943Y226235D01*
X384504Y225504D01*
X385235Y224943D01*
X386086Y224590D01*
X387000Y224470D01*
X387914Y224590D01*
X388765Y224943D01*
X389496Y225504D01*
X390057Y226235D01*
X390410Y227086D01*
X390530Y228000D01*
X390410Y228914D01*
X390057Y229765D01*
X389496Y230496D01*
X388765Y231057D01*
X387914Y231410D01*
X387000Y231530D01*
X386110Y231413D01*
X383262Y234262D01*
X382683Y234648D01*
X382000Y234784D01*
X366614D01*
X366216Y235032D01*
X366216Y235284D01*
Y236216D01*
X381958D01*
X382504Y235504D01*
X383235Y234943D01*
X384086Y234590D01*
X385000Y234470D01*
X385914Y234590D01*
X386765Y234943D01*
X387496Y235504D01*
X388057Y236235D01*
X388410Y237086D01*
X388530Y238000D01*
X388410Y238914D01*
X388057Y239765D01*
X387496Y240496D01*
X386765Y241057D01*
X385914Y241410D01*
X385000Y241530D01*
X384086Y241410D01*
X383235Y241057D01*
X382504Y240496D01*
X381958Y239784D01*
X366216D01*
Y240968D01*
X360279D01*
Y235493D01*
X360000Y235332D01*
X359720Y235493D01*
Y240968D01*
X353783D01*
Y235032D01*
X354968D01*
Y234248D01*
X355103Y233565D01*
X355490Y232986D01*
X356738Y231738D01*
X357317Y231351D01*
X358000Y231216D01*
X374620D01*
X374790Y230716D01*
X374504Y230496D01*
X373943Y229765D01*
X373590Y228914D01*
X373470Y228000D01*
X373590Y227086D01*
X373943Y226235D01*
X374504Y225504D01*
X375235Y224943D01*
X376086Y224590D01*
X376771Y224500D01*
X376738Y224000D01*
X371124D01*
X370877Y224500D01*
X371057Y224735D01*
X371410Y225586D01*
X371464Y226000D01*
X364536D01*
X364590Y225586D01*
X364943Y224735D01*
X365123Y224500D01*
X364876Y224000D01*
X363354D01*
X363014Y224510D01*
X358262Y229262D01*
X357683Y229648D01*
X357000Y229784D01*
X355043D01*
X354496Y230496D01*
X353765Y231057D01*
X352914Y231410D01*
X352000Y231530D01*
X351086Y231410D01*
X350235Y231057D01*
X349504Y230496D01*
X348943Y229765D01*
X348590Y228914D01*
X348470Y228000D01*
X348590Y227086D01*
X348943Y226235D01*
X349504Y225504D01*
X350235Y224943D01*
X351086Y224590D01*
X351771Y224500D01*
X351738Y224000D01*
X342523D01*
X338262Y228262D01*
X337683Y228648D01*
X337000Y228784D01*
X336427D01*
X336410Y228914D01*
X336057Y229765D01*
X335496Y230496D01*
X334765Y231057D01*
X333914Y231410D01*
X333000Y231530D01*
X332086Y231410D01*
X331235Y231057D01*
X330504Y230496D01*
X329943Y229765D01*
X329590Y228914D01*
X329470Y228000D01*
X329590Y227086D01*
X329943Y226235D01*
X330504Y225504D01*
X331235Y224943D01*
X332086Y224590D01*
X332771Y224500D01*
X332738Y224000D01*
X318784D01*
Y224957D01*
X319496Y225504D01*
X320057Y226235D01*
X320410Y227086D01*
X320530Y228000D01*
X320410Y228914D01*
X320057Y229765D01*
X319496Y230496D01*
X318765Y231057D01*
X317914Y231410D01*
X317000Y231530D01*
X316086Y231410D01*
X315235Y231057D01*
X314504Y230496D01*
X313943Y229765D01*
X313590Y228914D01*
X313470Y228000D01*
X313590Y227086D01*
X313943Y226235D01*
X314504Y225504D01*
X315216Y224957D01*
Y224000D01*
X309617D01*
X309457Y224474D01*
X309496Y224504D01*
X310057Y225235D01*
X310410Y226086D01*
X310464Y226500D01*
X303536D01*
X303590Y226086D01*
X303943Y225235D01*
X304504Y224504D01*
X304543Y224474D01*
X304382Y224000D01*
X269618D01*
X269457Y224474D01*
X269496Y224504D01*
X270057Y225235D01*
X270410Y226086D01*
X270464Y226500D01*
X263536D01*
X263590Y226086D01*
X263943Y225235D01*
X264504Y224504D01*
X264543Y224474D01*
X264383Y224000D01*
X229618D01*
X229457Y224474D01*
X229496Y224504D01*
X230057Y225235D01*
X230410Y226086D01*
X230464Y226500D01*
X223536D01*
X223590Y226086D01*
X223943Y225235D01*
X224504Y224504D01*
X224543Y224474D01*
X224382Y224000D01*
X185476D01*
X185167Y224500D01*
X185410Y225086D01*
X185530Y226000D01*
X185410Y226914D01*
X185057Y227765D01*
X184496Y228496D01*
X183765Y229057D01*
X182914Y229410D01*
X182000Y229530D01*
X181086Y229410D01*
X180235Y229057D01*
X179504Y228496D01*
X178943Y227765D01*
X178590Y226914D01*
X178470Y226000D01*
X178590Y225086D01*
X178833Y224500D01*
X178524Y224000D01*
X173000D01*
Y385000D01*
X206209D01*
Y382968D01*
X205279D01*
Y377031D01*
X211216D01*
Y382246D01*
X211679Y382438D01*
X213961Y380155D01*
Y372000D01*
X214116Y371220D01*
X214558Y370558D01*
X216209Y368907D01*
Y367969D01*
X215280D01*
Y362032D01*
X221217D01*
Y367969D01*
X220287D01*
Y369752D01*
X220195Y370214D01*
X220656Y370460D01*
X222961Y368155D01*
Y353347D01*
X222504Y352996D01*
X221943Y352265D01*
X221590Y351414D01*
X221470Y350500D01*
X221590Y349586D01*
X221943Y348735D01*
X222147Y348468D01*
X221901Y347969D01*
X218280D01*
Y342032D01*
X222482D01*
X222504Y342004D01*
X223235Y341443D01*
X224086Y341090D01*
X225000Y340970D01*
X225914Y341090D01*
X226765Y341443D01*
X227496Y342004D01*
X228057Y342735D01*
X228410Y343586D01*
X228530Y344500D01*
X228410Y345414D01*
X228057Y346265D01*
X227496Y346996D01*
X227166Y347250D01*
Y347750D01*
X227496Y348004D01*
X228057Y348735D01*
X228410Y349586D01*
X228530Y350500D01*
X228410Y351414D01*
X228057Y352265D01*
X227496Y352996D01*
X227039Y353347D01*
Y369000D01*
X226884Y369780D01*
X226442Y370442D01*
X223539Y373345D01*
Y377031D01*
X224721D01*
Y382968D01*
X218783D01*
Y377031D01*
X219461D01*
Y372500D01*
X219553Y372038D01*
X219092Y371792D01*
X218039Y372845D01*
Y381000D01*
X217884Y381780D01*
X217442Y382442D01*
X216385Y383499D01*
X216576Y383961D01*
X225155D01*
X225686Y383430D01*
X225494Y382968D01*
X225279D01*
Y377031D01*
X228333D01*
X229713Y375651D01*
Y367969D01*
X228783D01*
Y362032D01*
X234720D01*
Y367969D01*
X233791D01*
Y376496D01*
X233636Y377276D01*
X233194Y377938D01*
X231217Y379915D01*
Y382968D01*
X230287D01*
Y383752D01*
X230459Y383961D01*
X238155D01*
X238890Y383226D01*
X238784Y382968D01*
X238784D01*
Y377031D01*
X244721D01*
Y382968D01*
X243791D01*
Y383248D01*
X243726Y383574D01*
X244043Y383961D01*
X250155D01*
X250686Y383430D01*
X250494Y382968D01*
X245280D01*
Y377031D01*
X246209D01*
Y370593D01*
X245058Y369442D01*
X244616Y368780D01*
X244461Y368000D01*
Y357500D01*
X244616Y356720D01*
X245058Y356058D01*
X252058Y349058D01*
X252058Y349058D01*
X252720Y348616D01*
X253500Y348461D01*
X253481Y347969D01*
X253279D01*
Y343435D01*
X252780Y343167D01*
X252720Y343207D01*
Y347969D01*
X246783D01*
Y342032D01*
X248460D01*
X248490Y341986D01*
X251587Y338890D01*
X251470Y338000D01*
X251590Y337086D01*
X251943Y336235D01*
X252504Y335504D01*
X253235Y334943D01*
X254086Y334590D01*
X255000Y334470D01*
X255914Y334590D01*
X256765Y334943D01*
X257496Y335504D01*
X258043Y336216D01*
X260261D01*
X265566Y330910D01*
Y330229D01*
X265125Y329994D01*
X265013Y330068D01*
X264701Y330130D01*
Y325744D01*
X263701D01*
Y330130D01*
X263388Y330068D01*
X262699Y329608D01*
X262553D01*
X261864Y330068D01*
X261051Y330230D01*
X260239Y330068D01*
X260127Y329994D01*
X259686Y330229D01*
Y331098D01*
X259550Y331781D01*
X259163Y332360D01*
X259163Y332360D01*
X258262Y333262D01*
X257683Y333648D01*
X257000Y333784D01*
X239739D01*
X238989Y334534D01*
X239023Y335140D01*
X239496Y335504D01*
X240057Y336235D01*
X240410Y337086D01*
X240530Y338000D01*
X240410Y338914D01*
X240057Y339765D01*
X239496Y340496D01*
X238765Y341057D01*
X237914Y341410D01*
X237000Y341530D01*
X236086Y341410D01*
X235235Y341057D01*
X234536Y340521D01*
X234392Y340547D01*
X234036Y340708D01*
Y342032D01*
X235221D01*
Y347969D01*
X229283D01*
Y342032D01*
X230468D01*
Y339218D01*
X230604Y338535D01*
X230990Y337956D01*
X232208Y336738D01*
X232787Y336351D01*
X233470Y336216D01*
X233958D01*
X234504Y335504D01*
X235216Y334958D01*
Y334000D01*
X235351Y333317D01*
X235738Y332738D01*
X237738Y330738D01*
X237738Y330738D01*
X238317Y330351D01*
X239000Y330216D01*
X239000Y330216D01*
X253260D01*
X253412Y329716D01*
X253250Y329608D01*
X252790Y328919D01*
X252628Y328106D01*
Y327528D01*
X232995D01*
X223413Y337110D01*
X223530Y338000D01*
X223410Y338914D01*
X223057Y339765D01*
X222496Y340496D01*
X221765Y341057D01*
X220914Y341410D01*
X220000Y341530D01*
X219086Y341410D01*
X218235Y341057D01*
X217504Y340496D01*
X217379Y340333D01*
X216837Y340293D01*
X216536Y340580D01*
Y342032D01*
X217721D01*
Y347969D01*
X211784D01*
Y342032D01*
X212968D01*
Y339718D01*
X213104Y339035D01*
X213490Y338456D01*
X215208Y336738D01*
X215787Y336351D01*
X216470Y336216D01*
X216470Y336216D01*
X216957D01*
X217504Y335504D01*
X218235Y334943D01*
X219086Y334590D01*
X220000Y334470D01*
X220890Y334587D01*
X230994Y324482D01*
X231573Y324096D01*
X232256Y323960D01*
X237724D01*
X237824Y323460D01*
X237335Y323257D01*
X236604Y322696D01*
X236043Y321965D01*
X235690Y321114D01*
X235636Y320700D01*
X242564D01*
X242510Y321114D01*
X242157Y321965D01*
X241596Y322696D01*
X240865Y323257D01*
X240376Y323460D01*
X240476Y323960D01*
X252628D01*
Y323382D01*
X252790Y322569D01*
X253250Y321880D01*
X253771Y321532D01*
X253620Y321032D01*
X251696D01*
X251431Y321210D01*
X250618Y321372D01*
X245894D01*
X245081Y321210D01*
X244392Y320750D01*
X243932Y320061D01*
X243770Y319248D01*
X243932Y318435D01*
X244392Y317746D01*
Y317600D01*
X243932Y316911D01*
X243770Y316098D01*
X243932Y315286D01*
X244006Y315174D01*
X243771Y314733D01*
X238790D01*
X220262Y333262D01*
X219683Y333648D01*
X219000Y333784D01*
X210739D01*
X205269Y339255D01*
X205057Y339765D01*
X204496Y340496D01*
X203765Y341057D01*
X202914Y341410D01*
X202000Y341530D01*
X201086Y341410D01*
X200235Y341057D01*
X199536Y340521D01*
X199392Y340547D01*
X199036Y340708D01*
Y342032D01*
X200220D01*
Y347969D01*
X194283D01*
Y342032D01*
X195468D01*
Y339218D01*
X195604Y338535D01*
X195990Y337956D01*
X197208Y336738D01*
X197787Y336351D01*
X198470Y336216D01*
X198958D01*
X199504Y335504D01*
X200235Y334943D01*
X201086Y334590D01*
X202000Y334470D01*
X202914Y334590D01*
X203765Y334943D01*
X204200Y335277D01*
X208738Y330738D01*
X209317Y330351D01*
X209655Y330284D01*
X209606Y329784D01*
X194739D01*
X188125Y336398D01*
X188410Y337086D01*
X188530Y338000D01*
X188410Y338914D01*
X188057Y339765D01*
X187496Y340496D01*
X186765Y341057D01*
X185914Y341410D01*
X185000Y341530D01*
X184086Y341410D01*
X183235Y341057D01*
X182504Y340496D01*
X182379Y340333D01*
X181837Y340293D01*
X181536Y340580D01*
Y342032D01*
X182720D01*
Y347969D01*
X176784D01*
Y342032D01*
X177968D01*
Y339718D01*
X178103Y339035D01*
X178490Y338456D01*
X180208Y336738D01*
X180787Y336351D01*
X181470Y336216D01*
X181470Y336216D01*
X181957D01*
X182504Y335504D01*
X183235Y334943D01*
X184086Y334590D01*
X185000Y334470D01*
X185006Y334471D01*
X192738Y326738D01*
X193317Y326351D01*
X194000Y326216D01*
X217261D01*
X234939Y308538D01*
X234939Y308538D01*
X235518Y308151D01*
X236201Y308015D01*
X236201Y308015D01*
X238851D01*
X238884Y307515D01*
X238086Y307410D01*
X237235Y307057D01*
X236504Y306496D01*
X236153Y306039D01*
X235000D01*
X234220Y305884D01*
X233558Y305442D01*
X224558Y296442D01*
X224116Y295780D01*
X223961Y295000D01*
Y291845D01*
X205928Y273812D01*
X205819Y273819D01*
X204993Y274453D01*
X204032Y274851D01*
X203000Y274987D01*
X201968Y274851D01*
X201007Y274453D01*
X200181Y273819D01*
X199547Y272993D01*
X199149Y272032D01*
X199013Y271000D01*
X199149Y269968D01*
X199547Y269007D01*
X200181Y268181D01*
X201007Y267547D01*
X201968Y267149D01*
X203000Y267013D01*
X204032Y267149D01*
X204993Y267547D01*
X205819Y268181D01*
X206453Y269007D01*
X206473Y269055D01*
X206780Y269116D01*
X207442Y269558D01*
X227442Y289558D01*
X227884Y290220D01*
X228039Y291000D01*
Y294155D01*
X235711Y301827D01*
X236278Y301799D01*
X236504Y301504D01*
X237235Y300943D01*
X238086Y300590D01*
X239000Y300470D01*
X239914Y300590D01*
X240765Y300943D01*
X241496Y301504D01*
X241515Y301528D01*
X243620D01*
X243905Y301028D01*
X243770Y300350D01*
X243932Y299538D01*
X244392Y298849D01*
Y298702D01*
X243932Y298013D01*
X243770Y297201D01*
X243932Y296388D01*
X244392Y295699D01*
Y295553D01*
X243932Y294864D01*
X243770Y294051D01*
X243932Y293239D01*
X244006Y293127D01*
X243771Y292686D01*
X233902D01*
X233902Y292686D01*
X233219Y292550D01*
X232640Y292163D01*
X232640Y292163D01*
X203471Y262994D01*
X202865Y263028D01*
X202501Y263501D01*
X201770Y264062D01*
X200919Y264415D01*
X200005Y264535D01*
X199091Y264415D01*
X198240Y264062D01*
X197509Y263501D01*
X196948Y262770D01*
X196937Y262743D01*
X196423Y262811D01*
X196410Y262914D01*
X196057Y263765D01*
X195496Y264496D01*
X194765Y265057D01*
X193914Y265410D01*
X193000Y265530D01*
X192086Y265410D01*
X191235Y265057D01*
X190504Y264496D01*
X189943Y263765D01*
X189590Y262914D01*
X189470Y262000D01*
X189590Y261086D01*
X189943Y260235D01*
X190504Y259504D01*
X191235Y258943D01*
X191464Y258848D01*
Y247969D01*
X190279D01*
Y242032D01*
X196216D01*
Y247969D01*
X195032D01*
Y259148D01*
X195496Y259504D01*
X196057Y260235D01*
X196069Y260262D01*
X196582Y260194D01*
X196595Y260091D01*
X196948Y259240D01*
X197509Y258509D01*
X198240Y257948D01*
X199091Y257595D01*
X200005Y257475D01*
X200919Y257595D01*
X201770Y257948D01*
X201982Y258110D01*
X202392Y257795D01*
X202340Y257669D01*
X202286Y257255D01*
X209214D01*
X209160Y257669D01*
X208807Y258520D01*
X208246Y259251D01*
X207515Y259812D01*
X206664Y260165D01*
X206362Y260205D01*
X206202Y260678D01*
X234641Y289117D01*
X238887D01*
X239094Y288617D01*
X214890Y264413D01*
X214000Y264530D01*
X213086Y264410D01*
X212235Y264057D01*
X211504Y263496D01*
X210943Y262765D01*
X210590Y261914D01*
X210470Y261000D01*
X210590Y260086D01*
X210943Y259235D01*
X211504Y258504D01*
X212235Y257943D01*
X213086Y257590D01*
X214000Y257470D01*
X214914Y257590D01*
X215765Y257943D01*
X216496Y258504D01*
X217057Y259235D01*
X217410Y260086D01*
X217530Y261000D01*
X217413Y261890D01*
X241491Y285968D01*
X244815D01*
X245081Y285790D01*
X245894Y285629D01*
X250618D01*
X251431Y285790D01*
X252120Y286250D01*
X252580Y286939D01*
X252742Y287752D01*
X252580Y288565D01*
X252120Y289253D01*
Y289400D01*
X252580Y290089D01*
X252742Y290902D01*
X252580Y291714D01*
X252120Y292403D01*
Y292550D01*
X252580Y293239D01*
X252742Y294051D01*
X252580Y294864D01*
X252120Y295553D01*
Y295699D01*
X252580Y296388D01*
X252742Y297201D01*
X252580Y298013D01*
X252120Y298702D01*
Y298849D01*
X252580Y299538D01*
X252742Y300350D01*
X252580Y301163D01*
X252120Y301852D01*
Y301998D01*
X252580Y302687D01*
X252742Y303500D01*
X252580Y304313D01*
X252120Y305001D01*
Y305148D01*
X252580Y305837D01*
X252642Y306150D01*
X248256D01*
Y307150D01*
X252642D01*
X252580Y307462D01*
X252120Y308151D01*
Y308298D01*
X252580Y308987D01*
X252742Y309799D01*
X252580Y310612D01*
X252120Y311301D01*
Y311447D01*
X252580Y312136D01*
X252742Y312949D01*
X252580Y313761D01*
X252561Y313790D01*
X252789Y314239D01*
X253201Y314275D01*
X254216Y313261D01*
Y301000D01*
X254351Y300317D01*
X254602Y299942D01*
X254590Y299914D01*
X254470Y299000D01*
X254590Y298086D01*
X254943Y297235D01*
X255504Y296504D01*
X256235Y295943D01*
X257086Y295590D01*
X258000Y295470D01*
X258914Y295590D01*
X259765Y295943D01*
X260496Y296504D01*
X261057Y297235D01*
X261229Y297651D01*
X261771D01*
X261943Y297235D01*
X262504Y296504D01*
X263235Y295943D01*
X264086Y295590D01*
X265000Y295470D01*
X265914Y295590D01*
X266765Y295943D01*
X267496Y296504D01*
X268057Y297235D01*
X268410Y298086D01*
X268530Y299000D01*
X268410Y299914D01*
X268057Y300765D01*
X267496Y301496D01*
X266765Y302057D01*
X265914Y302410D01*
X265000Y302530D01*
X264110Y302413D01*
X260784Y305739D01*
Y308816D01*
X261284Y308968D01*
X261558Y308558D01*
X264558Y305558D01*
X265220Y305116D01*
X266000Y304961D01*
X274424D01*
X274615Y304499D01*
X274558Y304442D01*
X274116Y303780D01*
X273961Y303000D01*
Y296898D01*
X274116Y296117D01*
X274558Y295456D01*
X276533Y293481D01*
X276470Y293000D01*
X276590Y292086D01*
X276943Y291235D01*
X277504Y290504D01*
X278165Y289997D01*
Y285741D01*
X277724Y285505D01*
X277612Y285580D01*
X277299Y285642D01*
Y281256D01*
X276299D01*
Y285642D01*
X275987Y285580D01*
X275298Y285120D01*
X275151D01*
X274462Y285580D01*
X273650Y285742D01*
X272837Y285580D01*
X272148Y285120D01*
X272002D01*
X271313Y285580D01*
X270500Y285742D01*
X269687Y285580D01*
X268999Y285120D01*
X268852D01*
X268163Y285580D01*
X267350Y285742D01*
X266538Y285580D01*
X265849Y285120D01*
X265702D01*
X265013Y285580D01*
X264201Y285742D01*
X263388Y285580D01*
X262699Y285120D01*
X262553D01*
X261864Y285580D01*
X261051Y285742D01*
X260239Y285580D01*
X259550Y285120D01*
X259403D01*
X258714Y285580D01*
X257902Y285742D01*
X257089Y285580D01*
X256400Y285120D01*
X256254D01*
X255565Y285580D01*
X254752Y285742D01*
X253939Y285580D01*
X253250Y285120D01*
X252790Y284431D01*
X252628Y283618D01*
Y283040D01*
X250256D01*
X250256Y283040D01*
X249573Y282904D01*
X248994Y282518D01*
X240738Y274262D01*
X240352Y273683D01*
X240216Y273000D01*
Y266042D01*
X239504Y265496D01*
X238943Y264765D01*
X238590Y263914D01*
X238470Y263000D01*
X238590Y262086D01*
X238943Y261235D01*
X239504Y260504D01*
X240235Y259943D01*
X241086Y259590D01*
X241185Y259577D01*
X241406Y259044D01*
X241193Y258765D01*
X240840Y257914D01*
X240786Y257500D01*
X247714D01*
X247660Y257914D01*
X247307Y258765D01*
X246746Y259496D01*
X246015Y260057D01*
X245164Y260410D01*
X245064Y260423D01*
X244844Y260956D01*
X245057Y261235D01*
X245410Y262086D01*
X245530Y263000D01*
X245410Y263914D01*
X245057Y264765D01*
X244496Y265496D01*
X243784Y266042D01*
Y272261D01*
X250995Y279472D01*
X252628D01*
Y278894D01*
X252790Y278081D01*
X253250Y277392D01*
X253939Y276932D01*
X254575Y276805D01*
X254782Y276305D01*
X249738Y271262D01*
X249352Y270683D01*
X249216Y270000D01*
Y266042D01*
X248504Y265496D01*
X247943Y264765D01*
X247590Y263914D01*
X247470Y263000D01*
X247590Y262086D01*
X247943Y261235D01*
X248504Y260504D01*
X249235Y259943D01*
X250086Y259590D01*
X251000Y259470D01*
X251914Y259590D01*
X252765Y259943D01*
X253496Y260504D01*
X254057Y261235D01*
X254410Y262086D01*
X254530Y263000D01*
X254410Y263914D01*
X254057Y264765D01*
X253496Y265496D01*
X252784Y266042D01*
Y269261D01*
X258716Y275192D01*
X259216Y274985D01*
Y263000D01*
X259351Y262317D01*
X259738Y261738D01*
X261738Y259738D01*
X261738Y259738D01*
X262317Y259351D01*
X263000Y259216D01*
X263000Y259216D01*
X273620D01*
X273790Y258716D01*
X273504Y258496D01*
X272943Y257765D01*
X272590Y256914D01*
X272470Y256000D01*
X272587Y255110D01*
X271738Y254262D01*
X271352Y253683D01*
X271216Y253000D01*
Y247969D01*
X270280D01*
Y242032D01*
X276217D01*
Y247969D01*
X274784D01*
Y252242D01*
X275151Y252582D01*
X276000Y252470D01*
X276914Y252590D01*
X277765Y252943D01*
X278496Y253504D01*
X279057Y254235D01*
X279410Y255086D01*
X279530Y256000D01*
X279410Y256914D01*
X279324Y257122D01*
X279628Y257519D01*
X280000Y257470D01*
X280914Y257590D01*
X281122Y257676D01*
X281352Y257500D01*
X288464D01*
X288410Y257914D01*
X288202Y258415D01*
X288585Y258798D01*
X289086Y258590D01*
X290000Y258470D01*
X290914Y258590D01*
X291765Y258943D01*
X292496Y259504D01*
X293057Y260235D01*
X293410Y261086D01*
X293530Y262000D01*
X293410Y262914D01*
X293057Y263765D01*
X292864Y264017D01*
X293085Y264466D01*
X304847D01*
X304943Y264235D01*
X305504Y263504D01*
X306235Y262943D01*
X307086Y262590D01*
X308000Y262470D01*
X308914Y262590D01*
X309765Y262943D01*
X310199Y263276D01*
X310609Y262960D01*
X310590Y262914D01*
X310470Y262000D01*
X310590Y261086D01*
X310943Y260235D01*
X311504Y259504D01*
X312216Y258958D01*
Y247969D01*
X310279D01*
Y242032D01*
X316216D01*
Y247969D01*
X315784D01*
Y258958D01*
X316496Y259504D01*
X317057Y260235D01*
X317410Y261086D01*
X317530Y262000D01*
X317410Y262914D01*
X317057Y263765D01*
X316496Y264496D01*
X315765Y265057D01*
X314914Y265410D01*
X314000Y265530D01*
X313086Y265410D01*
X312235Y265057D01*
X311801Y264724D01*
X311391Y265040D01*
X311410Y265086D01*
X311530Y266000D01*
X311410Y266914D01*
X311202Y267415D01*
X311585Y267798D01*
X312086Y267590D01*
X313000Y267470D01*
X313914Y267590D01*
X314765Y267943D01*
X315496Y268504D01*
X316057Y269235D01*
X316410Y270086D01*
X316530Y271000D01*
X316410Y271914D01*
X316057Y272765D01*
X315496Y273496D01*
X315210Y273716D01*
X315380Y274216D01*
X319261D01*
X325738Y267738D01*
X325738Y267738D01*
X326317Y267352D01*
X327000Y267216D01*
X353958D01*
X354504Y266504D01*
X355235Y265943D01*
X356086Y265590D01*
X356461Y265541D01*
X356682Y265007D01*
X356510Y264784D01*
X355000D01*
X355000Y264784D01*
X354317Y264649D01*
X353738Y264262D01*
X351986Y262510D01*
X351600Y261931D01*
X351464Y261248D01*
Y247969D01*
X350279D01*
Y242032D01*
X356217D01*
Y247969D01*
X355032D01*
Y260509D01*
X355739Y261216D01*
X357500D01*
X358183Y261351D01*
X358762Y261738D01*
X360628Y263605D01*
X360961Y263467D01*
X361082Y263351D01*
X361036Y263000D01*
X367964D01*
X367910Y263414D01*
X367557Y264265D01*
X366996Y264996D01*
X366265Y265557D01*
X365882Y265716D01*
X365982Y266216D01*
X368957D01*
X369504Y265504D01*
X370235Y264943D01*
X371086Y264590D01*
X372000Y264470D01*
X372914Y264590D01*
X373765Y264943D01*
X374496Y265504D01*
X375057Y266235D01*
X375410Y267086D01*
X375530Y268000D01*
X375410Y268914D01*
X375057Y269765D01*
X374496Y270496D01*
X373765Y271057D01*
X372914Y271410D01*
X372000Y271530D01*
X371086Y271410D01*
X370235Y271057D01*
X369504Y270496D01*
X368957Y269784D01*
X362500D01*
X362500Y269784D01*
X361817Y269649D01*
X361238Y269262D01*
X361238Y269262D01*
X361020Y269043D01*
X360500Y269230D01*
X360410Y269914D01*
X360057Y270765D01*
X359496Y271496D01*
X358861Y271984D01*
X358994Y272447D01*
X359007Y272471D01*
X359914Y272590D01*
X360765Y272943D01*
X361496Y273504D01*
X362057Y274235D01*
X362410Y275086D01*
X362530Y276000D01*
X362410Y276914D01*
X362057Y277765D01*
X361496Y278496D01*
X361210Y278716D01*
X361380Y279216D01*
X380261D01*
X396587Y262890D01*
X396470Y262000D01*
X396590Y261086D01*
X396943Y260235D01*
X397504Y259504D01*
X398235Y258943D01*
X399086Y258590D01*
X400000Y258470D01*
X400914Y258590D01*
X401765Y258943D01*
X402496Y259504D01*
X403057Y260235D01*
X403410Y261086D01*
X403530Y262000D01*
X403410Y262914D01*
X403057Y263765D01*
X403471Y264006D01*
X405587Y261890D01*
X405470Y261000D01*
X405590Y260086D01*
X405943Y259235D01*
X406504Y258504D01*
X407235Y257943D01*
X408086Y257590D01*
X409000Y257470D01*
X409914Y257590D01*
X410765Y257943D01*
X411496Y258504D01*
X412057Y259235D01*
X412410Y260086D01*
X412530Y261000D01*
X412410Y261914D01*
X412057Y262765D01*
X411496Y263496D01*
X410765Y264057D01*
X409914Y264410D01*
X409000Y264530D01*
X408110Y264413D01*
X387262Y285262D01*
X386683Y285648D01*
X386000Y285784D01*
X327739D01*
X324510Y289014D01*
X323931Y289400D01*
X323248Y289536D01*
X297229D01*
X296993Y289977D01*
X297068Y290089D01*
X297230Y290902D01*
X297068Y291714D01*
X296993Y291826D01*
X297229Y292267D01*
X313051D01*
X313734Y292403D01*
X314313Y292790D01*
X331791Y310268D01*
X332252Y310021D01*
X332103Y309275D01*
Y308400D01*
X336800D01*
Y311697D01*
X334525D01*
X333779Y311548D01*
X333532Y312009D01*
X341739Y320216D01*
X363000D01*
X363683Y320352D01*
X364262Y320738D01*
X378255Y334731D01*
X378765Y334943D01*
X379496Y335504D01*
X380057Y336235D01*
X380410Y337086D01*
X380530Y338000D01*
X380410Y338914D01*
X380057Y339765D01*
X379496Y340496D01*
X378765Y341057D01*
X377914Y341410D01*
X377454Y341470D01*
X377419Y341531D01*
X377707Y342032D01*
X381716D01*
Y342961D01*
X388153D01*
X388504Y342504D01*
X389235Y341943D01*
X390086Y341590D01*
X391000Y341470D01*
X391571Y341545D01*
X393961Y339155D01*
Y317847D01*
X393504Y317496D01*
X392943Y316765D01*
X392590Y315914D01*
X392470Y315000D01*
X392590Y314086D01*
X392943Y313235D01*
X393504Y312504D01*
X394235Y311943D01*
X395086Y311590D01*
X396000Y311470D01*
X396571Y311545D01*
X397806Y310310D01*
X398468Y309868D01*
X399248Y309713D01*
X432031D01*
Y308784D01*
X437532D01*
X437968Y308784D01*
X438469Y308784D01*
X439216D01*
Y302739D01*
X436890Y300413D01*
X436500Y300464D01*
Y297500D01*
X439464D01*
X439413Y297890D01*
X442262Y300738D01*
X442262Y300738D01*
X442649Y301317D01*
X442784Y302000D01*
X442784Y302000D01*
Y308784D01*
X443968D01*
Y311252D01*
X441000D01*
Y311752D01*
X440500D01*
Y314721D01*
X438469D01*
X438031Y314721D01*
X437532Y314721D01*
X432031D01*
Y313791D01*
X400093D01*
X399455Y314429D01*
X399530Y315000D01*
X399410Y315914D01*
X399057Y316765D01*
X398496Y317496D01*
X398039Y317847D01*
Y340000D01*
Y355155D01*
X409942Y367058D01*
X410384Y367720D01*
X410539Y368500D01*
Y371362D01*
X410555Y371385D01*
X410724Y372236D01*
Y378535D01*
X410555Y379386D01*
X410073Y380108D01*
X409351Y380590D01*
X408500Y380759D01*
X407649Y380590D01*
X406927Y380108D01*
X406445Y379386D01*
X406276Y378535D01*
Y372236D01*
X406445Y371385D01*
X406461Y371362D01*
Y369345D01*
X394558Y357442D01*
X394116Y356780D01*
X393961Y356000D01*
Y347654D01*
X393713Y347570D01*
X393461Y347523D01*
X392765Y348057D01*
X391914Y348410D01*
X391000Y348530D01*
X390086Y348410D01*
X389235Y348057D01*
X388504Y347496D01*
X388153Y347039D01*
X381716D01*
Y347969D01*
X381716Y347969D01*
X381717D01*
X381716Y347969D01*
X381820Y348426D01*
X382057Y348735D01*
X382410Y349586D01*
X382530Y350500D01*
X382410Y351414D01*
X382057Y352265D01*
X381496Y352996D01*
X380765Y353557D01*
X379914Y353910D01*
X379000Y354030D01*
X378086Y353910D01*
X377235Y353557D01*
X376504Y352996D01*
X376153Y352539D01*
X373593D01*
X361216Y364915D01*
Y367969D01*
X355279D01*
Y362032D01*
X358333D01*
X371306Y349058D01*
X371968Y348616D01*
X372748Y348461D01*
X372748Y348461D01*
X372729Y347969D01*
X369284D01*
Y342032D01*
X371445D01*
X373875Y339602D01*
X373590Y338914D01*
X373470Y338000D01*
X373590Y337086D01*
X373943Y336235D01*
X374276Y335800D01*
X362261Y323784D01*
X358961D01*
X358770Y324246D01*
X361262Y326738D01*
X361649Y327317D01*
X361784Y328000D01*
Y334958D01*
X362496Y335504D01*
X363057Y336235D01*
X363410Y337086D01*
X363530Y338000D01*
X363410Y338914D01*
X363057Y339765D01*
X362496Y340496D01*
X361765Y341057D01*
X360914Y341410D01*
X360454Y341470D01*
X360419Y341531D01*
X360707Y342032D01*
X363119D01*
X363235Y341943D01*
X364086Y341590D01*
X365000Y341470D01*
X365914Y341590D01*
X366765Y341943D01*
X367496Y342504D01*
X368057Y343235D01*
X368410Y344086D01*
X368530Y345000D01*
X368410Y345914D01*
X368057Y346765D01*
X367496Y347496D01*
X366765Y348057D01*
X365914Y348410D01*
X365464Y348469D01*
X365440Y348485D01*
X365172Y349012D01*
X365410Y349586D01*
X365530Y350500D01*
X365410Y351414D01*
X365057Y352265D01*
X364496Y352996D01*
X363765Y353557D01*
X362914Y353910D01*
X362000Y354030D01*
X361086Y353910D01*
X360235Y353557D01*
X359504Y352996D01*
X359153Y352539D01*
X354345D01*
X341216Y365667D01*
Y367969D01*
X335279D01*
Y362032D01*
X339085D01*
X345647Y355469D01*
X345393Y355016D01*
X344586Y354910D01*
X343735Y354557D01*
X343004Y353996D01*
X342653Y353539D01*
X333345D01*
X321217Y365667D01*
Y367969D01*
X315280D01*
Y362032D01*
X319085D01*
X325670Y355446D01*
X325436Y354973D01*
X325000Y355030D01*
X324086Y354910D01*
X323235Y354557D01*
X322504Y353996D01*
X322153Y353539D01*
X315845D01*
X310442Y358942D01*
X309780Y359384D01*
X309000Y359539D01*
X305845D01*
X301217Y364167D01*
Y367969D01*
X295280D01*
Y362032D01*
X297585D01*
X303558Y356058D01*
X304220Y355616D01*
X305000Y355461D01*
X308155D01*
X308843Y354773D01*
X308560Y354349D01*
X308414Y354410D01*
X307500Y354530D01*
X306586Y354410D01*
X305735Y354057D01*
X305004Y353496D01*
X304653Y353039D01*
X300845D01*
X294942Y358942D01*
X294280Y359384D01*
X293500Y359539D01*
X286593D01*
X281217Y364915D01*
Y367969D01*
X275279D01*
Y362032D01*
X278333D01*
X284306Y356058D01*
X284968Y355616D01*
X285748Y355461D01*
X292655D01*
X298558Y349558D01*
X299220Y349116D01*
X300000Y348961D01*
X304653D01*
X305004Y348504D01*
X305050Y348468D01*
X304880Y347969D01*
X299284D01*
Y342032D01*
X301445D01*
X303875Y339602D01*
X303590Y338914D01*
X303470Y338000D01*
X303587Y337110D01*
X301261Y334784D01*
X292380D01*
X292210Y335284D01*
X292496Y335504D01*
X293057Y336235D01*
X293410Y337086D01*
X293530Y338000D01*
X293410Y338914D01*
X293057Y339765D01*
X292496Y340496D01*
X291765Y341057D01*
X290914Y341410D01*
X290000Y341530D01*
X289449Y341458D01*
X289392Y341531D01*
X289638Y342032D01*
X293119D01*
X293235Y341943D01*
X294086Y341590D01*
X295000Y341470D01*
X295914Y341590D01*
X296765Y341943D01*
X297496Y342504D01*
X298057Y343235D01*
X298410Y344086D01*
X298530Y345000D01*
X298410Y345914D01*
X298057Y346765D01*
X297496Y347496D01*
X296765Y348057D01*
X295914Y348410D01*
X295000Y348530D01*
X294086Y348410D01*
X293235Y348057D01*
X292932Y348454D01*
X292996Y348504D01*
X293557Y349235D01*
X293910Y350086D01*
X294030Y351000D01*
X293910Y351914D01*
X293557Y352765D01*
X292996Y353496D01*
X292265Y354057D01*
X291414Y354410D01*
X290500Y354530D01*
X289586Y354410D01*
X288735Y354057D01*
X288004Y353496D01*
X287653Y353039D01*
X286345D01*
X279942Y359442D01*
X279280Y359884D01*
X278500Y360039D01*
X271345D01*
X269814Y361570D01*
X270006Y362032D01*
X274721D01*
Y367969D01*
X274559D01*
X274352Y368468D01*
X276442Y370558D01*
X276884Y371220D01*
X277039Y372000D01*
Y384000D01*
X276940Y384500D01*
X277293Y385000D01*
X283461D01*
Y379500D01*
X283616Y378720D01*
X284058Y378058D01*
X289713Y372403D01*
Y367969D01*
X288784D01*
Y362032D01*
X294721D01*
Y367969D01*
X293791D01*
Y373248D01*
X293636Y374028D01*
X293194Y374690D01*
X287539Y380345D01*
Y385000D01*
X302961D01*
Y377500D01*
X303116Y376720D01*
X303558Y376058D01*
X309713Y369903D01*
Y367969D01*
X308784D01*
Y362032D01*
X314721D01*
Y367969D01*
X313791D01*
Y370748D01*
X313636Y371528D01*
X313194Y372190D01*
X307039Y378345D01*
Y385000D01*
X322961D01*
Y376000D01*
X323116Y375220D01*
X323558Y374558D01*
X329648Y368468D01*
X329556Y367969D01*
X328783D01*
Y362032D01*
X334720D01*
Y367969D01*
X333791D01*
Y369248D01*
X333636Y370028D01*
X333194Y370690D01*
X327039Y376845D01*
Y385000D01*
X361463D01*
X361654Y384538D01*
X350310Y373194D01*
X349868Y372532D01*
X349713Y371752D01*
Y367969D01*
X348783D01*
Y362032D01*
X354720D01*
Y367969D01*
X353791D01*
Y370907D01*
X365942Y383058D01*
X366384Y383720D01*
X366539Y384500D01*
Y385000D01*
X390000D01*
Y475000D01*
X455000D01*
Y126000D01*
D02*
G37*
G36*
X288589Y307716D02*
X288420Y307462D01*
X288358Y307150D01*
X292744D01*
Y306150D01*
X288358D01*
X288420Y305837D01*
X288880Y305148D01*
Y305001D01*
X288420Y304313D01*
X288258Y303500D01*
X288420Y302687D01*
X288880Y301998D01*
Y301852D01*
X288420Y301163D01*
X288258Y300350D01*
X288420Y299538D01*
X288880Y298849D01*
Y298702D01*
X288420Y298013D01*
X288258Y297201D01*
X288420Y296388D01*
X288880Y295699D01*
Y295553D01*
X288420Y294864D01*
X288258Y294051D01*
X288420Y293239D01*
X288439Y293210D01*
X288211Y292761D01*
X287799Y292725D01*
X286784Y293739D01*
Y299000D01*
X286649Y299683D01*
X286262Y300262D01*
X285683Y300648D01*
X285438Y300697D01*
X285410Y300914D01*
X285057Y301765D01*
X284496Y302496D01*
X283765Y303057D01*
X282914Y303410D01*
X282000Y303530D01*
X281086Y303410D01*
X280235Y303057D01*
X279504Y302496D01*
X278943Y301765D01*
X278590Y300914D01*
X278539Y300527D01*
X278039Y300560D01*
Y302155D01*
X281442Y305558D01*
X282429Y306545D01*
X283000Y306470D01*
X283914Y306590D01*
X284765Y306943D01*
X285496Y307504D01*
X286042Y308216D01*
X288322D01*
X288589Y307716D01*
D02*
G37*
G36*
X290504Y323504D02*
X291235Y322943D01*
X292086Y322590D01*
X293000Y322470D01*
X293276Y322506D01*
X293509Y322032D01*
X292848Y321372D01*
X290382D01*
X289569Y321210D01*
X288880Y320750D01*
X288420Y320061D01*
X288258Y319248D01*
X288420Y318435D01*
X288880Y317746D01*
Y317600D01*
X288420Y316911D01*
X288258Y316098D01*
X288420Y315286D01*
X288880Y314597D01*
Y314450D01*
X288420Y313761D01*
X288258Y312949D01*
X288391Y312284D01*
X288100Y311784D01*
X286042D01*
X285496Y312496D01*
X284765Y313057D01*
X283914Y313410D01*
X283000Y313530D01*
X282086Y313410D01*
X281235Y313057D01*
X280504Y312496D01*
X279943Y311765D01*
X279590Y310914D01*
X279470Y310000D01*
X279545Y309429D01*
X279155Y309039D01*
X266845D01*
X265039Y310845D01*
Y315153D01*
X265496Y315504D01*
X265687Y315753D01*
X266260Y315677D01*
X266443Y315235D01*
X267004Y314504D01*
X267735Y313943D01*
X268586Y313590D01*
X269500Y313470D01*
X270414Y313590D01*
X271265Y313943D01*
X271996Y314504D01*
X272019Y314533D01*
X272623Y314500D01*
X273004Y314004D01*
X273735Y313443D01*
X274586Y313090D01*
X275500Y312970D01*
X276414Y313090D01*
X277265Y313443D01*
X277996Y314004D01*
X278557Y314735D01*
X278910Y315586D01*
X279030Y316500D01*
X278910Y317414D01*
X278584Y318202D01*
Y321259D01*
X279025Y321495D01*
X279136Y321420D01*
X279949Y321258D01*
X280761Y321420D01*
X281450Y321880D01*
X281597D01*
X282286Y321420D01*
X282415Y321394D01*
X282435Y321358D01*
X282508Y320866D01*
X281914Y320410D01*
X281353Y319679D01*
X281000Y318827D01*
X280945Y318414D01*
X287874D01*
X287820Y318827D01*
X287467Y319679D01*
X286906Y320410D01*
X286420Y320783D01*
X286545Y321317D01*
X287061Y321420D01*
X287750Y321880D01*
X288210Y322569D01*
X288371Y323382D01*
Y323960D01*
X290154D01*
X290504Y323504D01*
D02*
G37*
%LPC*%
G36*
X304500Y311464D02*
Y308500D01*
X307464D01*
X307410Y308914D01*
X307057Y309765D01*
X306496Y310496D01*
X305765Y311057D01*
X304914Y311410D01*
X304500Y311464D01*
D02*
G37*
G36*
X296217Y247969D02*
X290280D01*
Y242032D01*
X293216D01*
Y241042D01*
X292504Y240496D01*
X291943Y239765D01*
X291590Y238914D01*
X291470Y238000D01*
X291590Y237086D01*
X291943Y236235D01*
X292504Y235504D01*
X293235Y234943D01*
X294086Y234590D01*
X295000Y234470D01*
X295914Y234590D01*
X296765Y234943D01*
X297496Y235504D01*
X298057Y236235D01*
X298410Y237086D01*
X298530Y238000D01*
X298410Y238914D01*
X298057Y239765D01*
X297496Y240496D01*
X296784Y241042D01*
Y243248D01*
X296784Y243248D01*
X296649Y243931D01*
X296262Y244510D01*
X296217Y244555D01*
Y247969D01*
D02*
G37*
G36*
X205250Y256255D02*
X202286D01*
X202340Y255841D01*
X202693Y254990D01*
X203254Y254259D01*
X203985Y253698D01*
X204836Y253345D01*
X205250Y253291D01*
Y256255D01*
D02*
G37*
G36*
X288464Y256500D02*
X285500D01*
Y253536D01*
X285914Y253590D01*
X286765Y253943D01*
X287496Y254504D01*
X288057Y255235D01*
X288410Y256086D01*
X288464Y256500D01*
D02*
G37*
G36*
X284500D02*
X281536D01*
X281590Y256086D01*
X281943Y255235D01*
X282504Y254504D01*
X283235Y253943D01*
X284086Y253590D01*
X284500Y253536D01*
Y256500D01*
D02*
G37*
G36*
X209214Y256255D02*
X206250D01*
Y253291D01*
X206664Y253345D01*
X207515Y253698D01*
X208246Y254259D01*
X208807Y254990D01*
X209160Y255841D01*
X209214Y256255D01*
D02*
G37*
G36*
X233000Y265530D02*
X232086Y265410D01*
X231235Y265057D01*
X230504Y264496D01*
X229943Y263765D01*
X229590Y262914D01*
X229470Y262000D01*
X229590Y261086D01*
X229943Y260235D01*
X230504Y259504D01*
X231216Y258958D01*
Y247969D01*
X230279D01*
Y242032D01*
X236216D01*
Y247969D01*
X234784D01*
Y258958D01*
X235496Y259504D01*
X236057Y260235D01*
X236410Y261086D01*
X236530Y262000D01*
X236410Y262914D01*
X236057Y263765D01*
X235496Y264496D01*
X234765Y265057D01*
X233914Y265410D01*
X233000Y265530D01*
D02*
G37*
G36*
X347000Y241530D02*
X346086Y241410D01*
X345235Y241057D01*
X345119Y240968D01*
X340280D01*
Y235032D01*
X345119D01*
X345235Y234943D01*
X346086Y234590D01*
X347000Y234470D01*
X347914Y234590D01*
X348765Y234943D01*
X349496Y235504D01*
X350057Y236235D01*
X350410Y237086D01*
X350530Y238000D01*
X350410Y238914D01*
X350057Y239765D01*
X349496Y240496D01*
X348765Y241057D01*
X347914Y241410D01*
X347000Y241530D01*
D02*
G37*
G36*
X329720Y247969D02*
X323783D01*
Y244555D01*
X323738Y244510D01*
X323352Y243931D01*
X323216Y243248D01*
Y241042D01*
X322504Y240496D01*
X321943Y239765D01*
X321590Y238914D01*
X321470Y238000D01*
X321590Y237086D01*
X321943Y236235D01*
X322504Y235504D01*
X323235Y234943D01*
X324086Y234590D01*
X325000Y234470D01*
X325914Y234590D01*
X326765Y234943D01*
X327496Y235504D01*
X328057Y236235D01*
X328410Y237086D01*
X328530Y238000D01*
X328410Y238914D01*
X328057Y239765D01*
X327496Y240496D01*
X326784Y241042D01*
Y242032D01*
X329720D01*
Y247969D01*
D02*
G37*
G36*
X435500Y300464D02*
X435086Y300410D01*
X434235Y300057D01*
X434194Y300026D01*
X407000D01*
X406217Y299923D01*
X405487Y299621D01*
X404860Y299140D01*
X403137Y297417D01*
X403086Y297410D01*
X402235Y297057D01*
X401504Y296496D01*
X400943Y295765D01*
X400590Y294914D01*
X400536Y294500D01*
X404000D01*
Y294000D01*
X404500D01*
Y290536D01*
X404914Y290590D01*
X405765Y290943D01*
X406496Y291504D01*
X407057Y292235D01*
X407410Y293086D01*
X407417Y293137D01*
X408253Y293974D01*
X432974D01*
Y263000D01*
X433077Y262217D01*
X433380Y261487D01*
X433860Y260860D01*
X442974Y251747D01*
Y237958D01*
X442512Y237767D01*
X442140Y238140D01*
X441513Y238620D01*
X440783Y238923D01*
X440000Y239026D01*
X431505D01*
X431313Y239490D01*
X430521Y240521D01*
X429490Y241313D01*
X428483Y241729D01*
Y242271D01*
X429490Y242688D01*
X430521Y243479D01*
X431313Y244510D01*
X431810Y245711D01*
X431980Y247000D01*
X431810Y248289D01*
X431313Y249490D01*
X430521Y250521D01*
X429490Y251312D01*
X428289Y251810D01*
X427000Y251980D01*
X425711Y251810D01*
X424510Y251312D01*
X423479Y250521D01*
X422687Y249490D01*
X422190Y248289D01*
X422020Y247000D01*
X422190Y245711D01*
X422687Y244510D01*
X423479Y243479D01*
X424510Y242688D01*
X425517Y242271D01*
Y241729D01*
X424510Y241313D01*
X423479Y240521D01*
X422687Y239490D01*
X422190Y238289D01*
X422086Y237500D01*
X427000D01*
Y236500D01*
X422086D01*
X422190Y235711D01*
X422687Y234510D01*
X423479Y233479D01*
X424510Y232687D01*
X425517Y232271D01*
Y231729D01*
X424510Y231312D01*
X423479Y230521D01*
X422687Y229490D01*
X422190Y228289D01*
X422020Y227000D01*
X422190Y225711D01*
X422687Y224510D01*
X423479Y223479D01*
X424510Y222688D01*
X425711Y222190D01*
X427000Y222020D01*
X428289Y222190D01*
X429490Y222688D01*
X430521Y223479D01*
X431313Y224510D01*
X431810Y225711D01*
X431980Y227000D01*
X431810Y228289D01*
X431313Y229490D01*
X430521Y230521D01*
X429490Y231312D01*
X428483Y231729D01*
Y232271D01*
X429490Y232687D01*
X429863Y232974D01*
X438747D01*
X442974Y228747D01*
Y173806D01*
X442943Y173765D01*
X442590Y172914D01*
X442536Y172500D01*
X449464D01*
X449410Y172914D01*
X449057Y173765D01*
X449026Y173806D01*
Y230000D01*
Y253000D01*
X449026Y253000D01*
X448923Y253783D01*
X448621Y254513D01*
X448140Y255140D01*
X448140Y255140D01*
X439026Y264253D01*
Y295194D01*
X439057Y295235D01*
X439410Y296086D01*
X439464Y296500D01*
X436000D01*
Y297000D01*
X435500D01*
Y300464D01*
D02*
G37*
G36*
X309720Y247969D02*
X303783D01*
Y244555D01*
X303738Y244510D01*
X303351Y243931D01*
X303216Y243248D01*
Y241042D01*
X302504Y240496D01*
X301943Y239765D01*
X301590Y238914D01*
X301470Y238000D01*
X301590Y237086D01*
X301943Y236235D01*
X302504Y235504D01*
X303235Y234943D01*
X304086Y234590D01*
X305000Y234470D01*
X305914Y234590D01*
X306765Y234943D01*
X307496Y235504D01*
X308057Y236235D01*
X308410Y237086D01*
X308530Y238000D01*
X308410Y238914D01*
X308057Y239765D01*
X307496Y240496D01*
X306784Y241042D01*
Y242032D01*
X309720D01*
Y247969D01*
D02*
G37*
G36*
X183000Y248530D02*
X182086Y248410D01*
X181235Y248057D01*
X180504Y247496D01*
X179943Y246765D01*
X179590Y245914D01*
X179470Y245000D01*
X179590Y244086D01*
X179943Y243235D01*
X180504Y242504D01*
X181235Y241943D01*
X182086Y241590D01*
X183000Y241470D01*
X183914Y241590D01*
X184765Y241943D01*
X184881Y242032D01*
X189720D01*
Y247969D01*
X184881D01*
X184765Y248057D01*
X183914Y248410D01*
X183000Y248530D01*
D02*
G37*
G36*
X450953Y271953D02*
X443047D01*
Y264047D01*
X450953D01*
Y271953D01*
D02*
G37*
G36*
X346000Y266530D02*
X345086Y266410D01*
X344235Y266057D01*
X343504Y265496D01*
X342943Y264765D01*
X342590Y263914D01*
X342577Y263816D01*
X342064Y263749D01*
X342057Y263765D01*
X341496Y264496D01*
X340765Y265057D01*
X339914Y265410D01*
X339000Y265530D01*
X338086Y265410D01*
X337235Y265057D01*
X336504Y264496D01*
X335943Y263765D01*
X335936Y263749D01*
X335423Y263816D01*
X335410Y263914D01*
X335057Y264765D01*
X334496Y265496D01*
X333765Y266057D01*
X332914Y266410D01*
X332000Y266530D01*
X331086Y266410D01*
X330235Y266057D01*
X329504Y265496D01*
X328943Y264765D01*
X328590Y263914D01*
X328470Y263000D01*
X328590Y262086D01*
X328943Y261235D01*
X329504Y260504D01*
X330235Y259943D01*
X331086Y259590D01*
X331464Y259540D01*
Y247969D01*
X330279D01*
Y242032D01*
X334901D01*
X335168Y241531D01*
X335104Y241435D01*
X335011Y240968D01*
X333784D01*
Y235032D01*
X339721D01*
Y240968D01*
X339721Y240968D01*
X339721D01*
X339915Y241391D01*
X340262Y241738D01*
X340262Y241738D01*
X340649Y242317D01*
X340784Y243000D01*
Y258958D01*
X341496Y259504D01*
X342057Y260235D01*
X342410Y261086D01*
X342423Y261184D01*
X342936Y261251D01*
X342943Y261235D01*
X343504Y260504D01*
X344216Y259958D01*
Y247969D01*
X343783D01*
Y242032D01*
X349721D01*
Y247969D01*
X347784D01*
Y259958D01*
X348496Y260504D01*
X349057Y261235D01*
X349410Y262086D01*
X349530Y263000D01*
X349410Y263914D01*
X349057Y264765D01*
X348496Y265496D01*
X347765Y266057D01*
X346914Y266410D01*
X346000Y266530D01*
D02*
G37*
G36*
X367964Y262000D02*
X365000D01*
Y259036D01*
X365414Y259090D01*
X366265Y259443D01*
X366996Y260004D01*
X367557Y260735D01*
X367910Y261586D01*
X367964Y262000D01*
D02*
G37*
G36*
X193000Y274987D02*
X191968Y274851D01*
X191007Y274453D01*
X190181Y273819D01*
X189547Y272993D01*
X189149Y272032D01*
X189013Y271000D01*
X189149Y269968D01*
X189547Y269007D01*
X190181Y268181D01*
X191007Y267547D01*
X191968Y267149D01*
X193000Y267013D01*
X194032Y267149D01*
X194993Y267547D01*
X195819Y268181D01*
X196453Y269007D01*
X196851Y269968D01*
X196987Y271000D01*
X196851Y272032D01*
X196453Y272993D01*
X195819Y273819D01*
X194993Y274453D01*
X194032Y274851D01*
X193000Y274987D01*
D02*
G37*
G36*
X182500Y274921D02*
X181968Y274851D01*
X181007Y274453D01*
X180181Y273819D01*
X179547Y272993D01*
X179149Y272032D01*
X179079Y271500D01*
X182500D01*
Y274921D01*
D02*
G37*
G36*
X186921Y270500D02*
X183500D01*
Y267079D01*
X184032Y267149D01*
X184993Y267547D01*
X185819Y268181D01*
X186453Y269007D01*
X186851Y269968D01*
X186921Y270500D01*
D02*
G37*
G36*
X182500D02*
X179079D01*
X179149Y269968D01*
X179547Y269007D01*
X180181Y268181D01*
X181007Y267547D01*
X181968Y267149D01*
X182500Y267079D01*
Y270500D01*
D02*
G37*
G36*
X243750Y256500D02*
X240786D01*
X240840Y256086D01*
X241193Y255235D01*
X241754Y254504D01*
X242485Y253943D01*
X243336Y253590D01*
X243750Y253536D01*
Y256500D01*
D02*
G37*
G36*
X328464Y256500D02*
X325500D01*
Y253536D01*
X325914Y253590D01*
X326765Y253943D01*
X327496Y254504D01*
X328057Y255235D01*
X328410Y256086D01*
X328464Y256500D01*
D02*
G37*
G36*
X324500D02*
X321536D01*
X321590Y256086D01*
X321943Y255235D01*
X322504Y254504D01*
X323235Y253943D01*
X324086Y253590D01*
X324500Y253536D01*
Y256500D01*
D02*
G37*
G36*
X247714Y256500D02*
X244750D01*
Y253536D01*
X245164Y253590D01*
X246015Y253943D01*
X246746Y254504D01*
X247307Y255235D01*
X247660Y256086D01*
X247714Y256500D01*
D02*
G37*
G36*
X364000Y262000D02*
X361036D01*
X361090Y261586D01*
X361443Y260735D01*
X362004Y260004D01*
X362735Y259443D01*
X363586Y259090D01*
X364000Y259036D01*
Y262000D01*
D02*
G37*
G36*
X325500Y260464D02*
Y257500D01*
X328464D01*
X328410Y257914D01*
X328057Y258765D01*
X327496Y259496D01*
X326765Y260057D01*
X325914Y260410D01*
X325500Y260464D01*
D02*
G37*
G36*
X324500D02*
X324086Y260410D01*
X323235Y260057D01*
X322504Y259496D01*
X321943Y258765D01*
X321590Y257914D01*
X321536Y257500D01*
X324500D01*
Y260464D01*
D02*
G37*
G36*
X445500Y171500D02*
X442536D01*
X442590Y171086D01*
X442943Y170235D01*
X443504Y169504D01*
X444235Y168943D01*
X445086Y168590D01*
X445500Y168536D01*
Y171500D01*
D02*
G37*
G36*
X400500Y151482D02*
Y145500D01*
X406482D01*
X406406Y146274D01*
X406034Y147500D01*
X405431Y148629D01*
X404618Y149618D01*
X403629Y150431D01*
X402499Y151034D01*
X401274Y151406D01*
X400500Y151482D01*
D02*
G37*
G36*
X399500D02*
X398726Y151406D01*
X397500Y151034D01*
X396371Y150431D01*
X395382Y149618D01*
X394569Y148629D01*
X393966Y147500D01*
X393594Y146274D01*
X393518Y145500D01*
X399500D01*
Y151482D01*
D02*
G37*
G36*
X368500Y229964D02*
Y227000D01*
X371464D01*
X371410Y227414D01*
X371057Y228265D01*
X370496Y228996D01*
X369765Y229557D01*
X368914Y229910D01*
X368500Y229964D01*
D02*
G37*
G36*
X367500D02*
X367086Y229910D01*
X366235Y229557D01*
X365504Y228996D01*
X364943Y228265D01*
X364590Y227414D01*
X364536Y227000D01*
X367500D01*
Y229964D01*
D02*
G37*
G36*
X449464Y171500D02*
X446500D01*
Y168536D01*
X446914Y168590D01*
X447765Y168943D01*
X448496Y169504D01*
X449057Y170235D01*
X449410Y171086D01*
X449464Y171500D01*
D02*
G37*
G36*
X380500Y151482D02*
Y145500D01*
X386482D01*
X386406Y146274D01*
X386034Y147500D01*
X385431Y148629D01*
X384618Y149618D01*
X383629Y150431D01*
X382500Y151034D01*
X381274Y151406D01*
X380500Y151482D01*
D02*
G37*
G36*
X386482Y144500D02*
X380500D01*
Y138518D01*
X381274Y138594D01*
X382500Y138966D01*
X383629Y139569D01*
X384618Y140382D01*
X385431Y141371D01*
X386034Y142500D01*
X386406Y143726D01*
X386482Y144500D01*
D02*
G37*
G36*
X379500D02*
X373518D01*
X373594Y143726D01*
X373966Y142500D01*
X374569Y141371D01*
X375382Y140382D01*
X376371Y139569D01*
X377501Y138966D01*
X378726Y138594D01*
X379500Y138518D01*
Y144500D01*
D02*
G37*
G36*
X438400Y145785D02*
X436979Y145645D01*
X435612Y145230D01*
X434353Y144557D01*
X433249Y143651D01*
X432343Y142547D01*
X431670Y141288D01*
X431255Y139921D01*
X431115Y138500D01*
X431255Y137079D01*
X431670Y135712D01*
X432343Y134453D01*
X433249Y133349D01*
X434353Y132443D01*
X435612Y131770D01*
X436979Y131355D01*
X438400Y131215D01*
X439821Y131355D01*
X441188Y131770D01*
X442447Y132443D01*
X443551Y133349D01*
X444457Y134453D01*
X445130Y135712D01*
X445545Y137079D01*
X445685Y138500D01*
X445545Y139921D01*
X445130Y141288D01*
X444457Y142547D01*
X443551Y143651D01*
X442447Y144557D01*
X441188Y145230D01*
X439821Y145645D01*
X438400Y145785D01*
D02*
G37*
G36*
X379500Y151482D02*
X378726Y151406D01*
X377501Y151034D01*
X376371Y150431D01*
X375382Y149618D01*
X374569Y148629D01*
X373966Y147500D01*
X373594Y146274D01*
X373518Y145500D01*
X379500D01*
Y151482D01*
D02*
G37*
G36*
X406482Y144500D02*
X400500D01*
Y138518D01*
X401274Y138594D01*
X402499Y138966D01*
X403629Y139569D01*
X404618Y140382D01*
X405431Y141371D01*
X406034Y142500D01*
X406406Y143726D01*
X406482Y144500D01*
D02*
G37*
G36*
X399500D02*
X393518D01*
X393594Y143726D01*
X393966Y142500D01*
X394569Y141371D01*
X395382Y140382D01*
X396371Y139569D01*
X397500Y138966D01*
X398726Y138594D01*
X399500Y138518D01*
Y144500D01*
D02*
G37*
G36*
X249721Y247969D02*
X243783D01*
Y244555D01*
X243738Y244510D01*
X243352Y243931D01*
X243216Y243248D01*
Y241042D01*
X242504Y240496D01*
X241943Y239765D01*
X241590Y238914D01*
X241470Y238000D01*
X241590Y237086D01*
X241943Y236235D01*
X242504Y235504D01*
X243235Y234943D01*
X244086Y234590D01*
X245000Y234470D01*
X245914Y234590D01*
X246765Y234943D01*
X247496Y235504D01*
X248057Y236235D01*
X248410Y237086D01*
X248530Y238000D01*
X248410Y238914D01*
X248057Y239765D01*
X247496Y240496D01*
X246784Y241042D01*
Y242032D01*
X249721D01*
Y247969D01*
D02*
G37*
G36*
X229720D02*
X223783D01*
Y244555D01*
X223738Y244510D01*
X223352Y243931D01*
X223216Y243248D01*
Y241042D01*
X222504Y240496D01*
X221943Y239765D01*
X221590Y238914D01*
X221470Y238000D01*
X221590Y237086D01*
X221943Y236235D01*
X222504Y235504D01*
X223235Y234943D01*
X224086Y234590D01*
X225000Y234470D01*
X225914Y234590D01*
X226765Y234943D01*
X227496Y235504D01*
X228057Y236235D01*
X228410Y237086D01*
X228530Y238000D01*
X228410Y238914D01*
X228057Y239765D01*
X227496Y240496D01*
X226784Y241042D01*
Y242032D01*
X229720D01*
Y247969D01*
D02*
G37*
G36*
X216216D02*
X210279D01*
Y242032D01*
X213216D01*
Y241042D01*
X212504Y240496D01*
X211943Y239765D01*
X211590Y238914D01*
X211470Y238000D01*
X211590Y237086D01*
X211943Y236235D01*
X212504Y235504D01*
X213235Y234943D01*
X214086Y234590D01*
X215000Y234470D01*
X215914Y234590D01*
X216765Y234943D01*
X217496Y235504D01*
X218057Y236235D01*
X218410Y237086D01*
X218530Y238000D01*
X218410Y238914D01*
X218057Y239765D01*
X217496Y240496D01*
X216784Y241042D01*
Y243248D01*
X216784Y243248D01*
X216649Y243931D01*
X216262Y244510D01*
X216216Y244555D01*
Y247969D01*
D02*
G37*
G36*
X289721D02*
X283784D01*
Y244555D01*
X283738Y244510D01*
X283351Y243931D01*
X283216Y243248D01*
Y241042D01*
X282504Y240496D01*
X281943Y239765D01*
X281590Y238914D01*
X281470Y238000D01*
X281590Y237086D01*
X281943Y236235D01*
X282504Y235504D01*
X283235Y234943D01*
X284086Y234590D01*
X285000Y234470D01*
X285914Y234590D01*
X286765Y234943D01*
X287496Y235504D01*
X288057Y236235D01*
X288410Y237086D01*
X288530Y238000D01*
X288410Y238914D01*
X288057Y239765D01*
X287496Y240496D01*
X286784Y241042D01*
Y242032D01*
X289721D01*
Y247969D01*
D02*
G37*
G36*
X269721D02*
X263784D01*
Y244555D01*
X263738Y244510D01*
X263351Y243931D01*
X263216Y243248D01*
Y241042D01*
X262504Y240496D01*
X261943Y239765D01*
X261590Y238914D01*
X261470Y238000D01*
X261590Y237086D01*
X261943Y236235D01*
X262504Y235504D01*
X263235Y234943D01*
X264086Y234590D01*
X265000Y234470D01*
X265914Y234590D01*
X266765Y234943D01*
X267496Y235504D01*
X268057Y236235D01*
X268410Y237086D01*
X268530Y238000D01*
X268410Y238914D01*
X268057Y239765D01*
X267496Y240496D01*
X266784Y241042D01*
Y242032D01*
X269721D01*
Y247969D01*
D02*
G37*
G36*
X256217D02*
X250279D01*
Y242032D01*
X253216D01*
Y241042D01*
X252504Y240496D01*
X251943Y239765D01*
X251590Y238914D01*
X251470Y238000D01*
X251590Y237086D01*
X251943Y236235D01*
X252504Y235504D01*
X253235Y234943D01*
X254086Y234590D01*
X255000Y234470D01*
X255914Y234590D01*
X256765Y234943D01*
X257496Y235504D01*
X258057Y236235D01*
X258410Y237086D01*
X258530Y238000D01*
X258410Y238914D01*
X258057Y239765D01*
X257496Y240496D01*
X256784Y241042D01*
Y243248D01*
X256784Y243248D01*
X256648Y243931D01*
X256262Y244510D01*
X256217Y244555D01*
Y247969D01*
D02*
G37*
G36*
X209720D02*
X203783D01*
Y244555D01*
X203738Y244510D01*
X203351Y243931D01*
X203216Y243248D01*
Y241042D01*
X202504Y240496D01*
X201943Y239765D01*
X201590Y238914D01*
X201470Y238000D01*
X201590Y237086D01*
X201943Y236235D01*
X202504Y235504D01*
X203235Y234943D01*
X204086Y234590D01*
X205000Y234470D01*
X205914Y234590D01*
X206765Y234943D01*
X207496Y235504D01*
X208057Y236235D01*
X208410Y237086D01*
X208530Y238000D01*
X208410Y238914D01*
X208057Y239765D01*
X207496Y240496D01*
X206784Y241042D01*
Y242032D01*
X209720D01*
Y247969D01*
D02*
G37*
G36*
X266500Y230464D02*
X266086Y230410D01*
X265235Y230057D01*
X264504Y229496D01*
X263943Y228765D01*
X263590Y227914D01*
X263536Y227500D01*
X266500D01*
Y230464D01*
D02*
G37*
G36*
X227500D02*
Y227500D01*
X230464D01*
X230410Y227914D01*
X230057Y228765D01*
X229496Y229496D01*
X228765Y230057D01*
X227914Y230410D01*
X227500Y230464D01*
D02*
G37*
G36*
X226500D02*
X226086Y230410D01*
X225235Y230057D01*
X224504Y229496D01*
X223943Y228765D01*
X223590Y227914D01*
X223536Y227500D01*
X226500D01*
Y230464D01*
D02*
G37*
G36*
X307500D02*
Y227500D01*
X310464D01*
X310410Y227914D01*
X310057Y228765D01*
X309496Y229496D01*
X308765Y230057D01*
X307914Y230410D01*
X307500Y230464D01*
D02*
G37*
G36*
X306500D02*
X306086Y230410D01*
X305235Y230057D01*
X304504Y229496D01*
X303943Y228765D01*
X303590Y227914D01*
X303536Y227500D01*
X306500D01*
Y230464D01*
D02*
G37*
G36*
X267500D02*
Y227500D01*
X270464D01*
X270410Y227914D01*
X270057Y228765D01*
X269496Y229496D01*
X268765Y230057D01*
X267914Y230410D01*
X267500Y230464D01*
D02*
G37*
G36*
X423500Y353988D02*
X422649Y353818D01*
X421927Y353336D01*
X421445Y352615D01*
X421276Y351764D01*
Y345465D01*
X421445Y344614D01*
X421716Y344209D01*
Y342659D01*
X421504Y342496D01*
X420943Y341765D01*
X420784Y341383D01*
X420284Y341482D01*
Y344209D01*
X420555Y344614D01*
X420724Y345465D01*
Y351764D01*
X420555Y352615D01*
X420073Y353336D01*
X419351Y353818D01*
X418500Y353988D01*
X417649Y353818D01*
X416927Y353336D01*
X416445Y352615D01*
X416276Y351764D01*
Y345465D01*
X416445Y344614D01*
X416716Y344209D01*
Y335239D01*
X415890Y334413D01*
X415000Y334530D01*
X414086Y334410D01*
X413235Y334057D01*
X412504Y333496D01*
X411943Y332765D01*
X411590Y331914D01*
X411470Y331000D01*
X411590Y330086D01*
X411943Y329235D01*
X412504Y328504D01*
X413235Y327943D01*
X414086Y327590D01*
X415000Y327470D01*
X415914Y327590D01*
X416765Y327943D01*
X417496Y328504D01*
X418057Y329235D01*
X418410Y330086D01*
X418530Y331000D01*
X418413Y331890D01*
X419762Y333238D01*
X419762Y333238D01*
X420149Y333817D01*
X420284Y334500D01*
X420284Y334500D01*
Y338518D01*
X420784Y338617D01*
X420943Y338235D01*
X421504Y337504D01*
X422235Y336943D01*
X423086Y336590D01*
X424000Y336470D01*
X424914Y336590D01*
X425765Y336943D01*
X426496Y337504D01*
X427057Y338235D01*
X427410Y339086D01*
X427530Y340000D01*
X427410Y340914D01*
X427057Y341765D01*
X426496Y342496D01*
X425765Y343057D01*
X425284Y343256D01*
Y344209D01*
X425555Y344614D01*
X425724Y345465D01*
Y351764D01*
X425555Y352615D01*
X425072Y353336D01*
X424351Y353818D01*
X423500Y353988D01*
D02*
G37*
G36*
X413500D02*
X412649Y353818D01*
X411928Y353336D01*
X411445Y352615D01*
X411276Y351764D01*
Y345465D01*
X411445Y344614D01*
X411716Y344209D01*
Y341482D01*
X411216Y341383D01*
X411057Y341765D01*
X410496Y342496D01*
X410284Y342659D01*
Y344209D01*
X410555Y344614D01*
X410724Y345465D01*
Y351764D01*
X410555Y352615D01*
X410073Y353336D01*
X409351Y353818D01*
X408500Y353988D01*
X407649Y353818D01*
X406927Y353336D01*
X406445Y352615D01*
X406276Y351764D01*
Y345465D01*
X406445Y344614D01*
X406716Y344209D01*
Y343256D01*
X406235Y343057D01*
X405504Y342496D01*
X404943Y341765D01*
X404590Y340914D01*
X404470Y340000D01*
X404590Y339086D01*
X404943Y338235D01*
X405504Y337504D01*
X406235Y336943D01*
X407086Y336590D01*
X408000Y336470D01*
X408276Y336506D01*
X408509Y336033D01*
X407890Y335413D01*
X407000Y335530D01*
X406086Y335410D01*
X405235Y335057D01*
X404504Y334496D01*
X403943Y333765D01*
X403590Y332914D01*
X403470Y332000D01*
X403590Y331086D01*
X403943Y330235D01*
X404504Y329504D01*
X405235Y328943D01*
X406086Y328590D01*
X407000Y328470D01*
X407914Y328590D01*
X408765Y328943D01*
X409496Y329504D01*
X410057Y330235D01*
X410410Y331086D01*
X410530Y332000D01*
X410413Y332890D01*
X414762Y337238D01*
X415148Y337817D01*
X415284Y338500D01*
X415284Y338500D01*
Y344209D01*
X415555Y344614D01*
X415724Y345465D01*
Y351764D01*
X415555Y352615D01*
X415072Y353336D01*
X414351Y353818D01*
X413500Y353988D01*
D02*
G37*
G36*
X423000Y374886D02*
X421276D01*
Y372236D01*
X421445Y371385D01*
X421927Y370664D01*
X422649Y370182D01*
X423000Y370112D01*
Y374886D01*
D02*
G37*
G36*
Y380660D02*
X422649Y380590D01*
X421927Y380108D01*
X421445Y379386D01*
X421276Y378535D01*
Y375886D01*
X423000D01*
Y380660D01*
D02*
G37*
G36*
X425724Y374886D02*
X424000D01*
Y370112D01*
X424351Y370182D01*
X425072Y370664D01*
X425555Y371385D01*
X425724Y372236D01*
Y374886D01*
D02*
G37*
G36*
X241216Y367969D02*
X235279D01*
Y362032D01*
X236209D01*
Y354752D01*
X236364Y353972D01*
X236806Y353310D01*
X239045Y351071D01*
X238970Y350500D01*
X239090Y349586D01*
X239443Y348735D01*
X239647Y348468D01*
X239401Y347969D01*
X235780D01*
Y342032D01*
X239482D01*
X239504Y342004D01*
X240235Y341443D01*
X241086Y341090D01*
X242000Y340970D01*
X242914Y341090D01*
X243765Y341443D01*
X244496Y342004D01*
X245057Y342735D01*
X245410Y343586D01*
X245530Y344500D01*
X245410Y345414D01*
X245057Y346265D01*
X244496Y346996D01*
X244467Y347019D01*
X244500Y347623D01*
X244996Y348004D01*
X245557Y348735D01*
X245910Y349586D01*
X246030Y350500D01*
X245910Y351414D01*
X245557Y352265D01*
X244996Y352996D01*
X244265Y353557D01*
X243414Y353910D01*
X242500Y354030D01*
X241929Y353955D01*
X240287Y355597D01*
Y362032D01*
X241216D01*
Y367969D01*
D02*
G37*
G36*
X437968Y321217D02*
Y321217D01*
X437546Y321217D01*
X432031D01*
Y315280D01*
X437968D01*
Y315280D01*
X438031D01*
Y315280D01*
X443968D01*
Y321217D01*
X438454D01*
X438031Y321217D01*
Y321217D01*
X437968D01*
D02*
G37*
G36*
X238600Y319700D02*
X235636D01*
X235690Y319286D01*
X236043Y318435D01*
X236604Y317704D01*
X237335Y317143D01*
X238186Y316790D01*
X238600Y316736D01*
Y319700D01*
D02*
G37*
G36*
X214721Y367969D02*
X208784D01*
Y364915D01*
X206058Y362190D01*
X205616Y361528D01*
X205461Y360748D01*
Y353347D01*
X205004Y352996D01*
X204443Y352265D01*
X204090Y351414D01*
X203970Y350500D01*
X204090Y349586D01*
X204443Y348735D01*
X204647Y348468D01*
X204401Y347969D01*
X200780D01*
Y342032D01*
X204483D01*
X204504Y342004D01*
X205235Y341443D01*
X206086Y341090D01*
X207000Y340970D01*
X207914Y341090D01*
X208765Y341443D01*
X209496Y342004D01*
X210057Y342735D01*
X210410Y343586D01*
X210530Y344500D01*
X210410Y345414D01*
X210057Y346265D01*
X209496Y346996D01*
X209467Y347019D01*
X209500Y347623D01*
X209996Y348004D01*
X210557Y348735D01*
X210910Y349586D01*
X211030Y350500D01*
X210910Y351414D01*
X210557Y352265D01*
X209996Y352996D01*
X209539Y353347D01*
Y359903D01*
X211667Y362032D01*
X214721D01*
Y367969D01*
D02*
G37*
G36*
X242564Y319700D02*
X239600D01*
Y316736D01*
X240014Y316790D01*
X240865Y317143D01*
X241596Y317704D01*
X242157Y318435D01*
X242510Y319286D01*
X242564Y319700D01*
D02*
G37*
G36*
X435000Y460433D02*
X433550Y460291D01*
X432155Y459868D01*
X430870Y459181D01*
X429744Y458256D01*
X428819Y457130D01*
X428132Y455845D01*
X427709Y454450D01*
X427567Y453000D01*
X427709Y451550D01*
X428132Y450155D01*
X428819Y448870D01*
X429744Y447744D01*
X430870Y446819D01*
X432155Y446132D01*
X433550Y445709D01*
X435000Y445567D01*
X436450Y445709D01*
X437845Y446132D01*
X439130Y446819D01*
X440256Y447744D01*
X441181Y448870D01*
X441868Y450155D01*
X442291Y451550D01*
X442433Y453000D01*
X442291Y454450D01*
X441868Y455845D01*
X441181Y457130D01*
X440256Y458256D01*
X439130Y459181D01*
X437845Y459868D01*
X436450Y460291D01*
X435000Y460433D01*
D02*
G37*
G36*
X404120Y447500D02*
X400500D01*
Y443880D01*
X401083Y443957D01*
X402093Y444375D01*
X402959Y445041D01*
X403625Y445907D01*
X404043Y446917D01*
X404120Y447500D01*
D02*
G37*
G36*
X399500Y452120D02*
X398917Y452043D01*
X397907Y451625D01*
X397041Y450959D01*
X396375Y450093D01*
X395957Y449083D01*
X395880Y448500D01*
X399500D01*
Y452120D01*
D02*
G37*
G36*
X447000Y467450D02*
X445839Y467336D01*
X444723Y466997D01*
X443694Y466447D01*
X442793Y465707D01*
X442053Y464806D01*
X441503Y463777D01*
X441164Y462661D01*
X441050Y461500D01*
X441164Y460339D01*
X441503Y459223D01*
X442053Y458194D01*
X442793Y457293D01*
X443694Y456553D01*
X444723Y456003D01*
X445839Y455664D01*
X447000Y455550D01*
X448161Y455664D01*
X449277Y456003D01*
X450306Y456553D01*
X451207Y457293D01*
X451947Y458194D01*
X452497Y459223D01*
X452836Y460339D01*
X452950Y461500D01*
X452836Y462661D01*
X452497Y463777D01*
X451947Y464806D01*
X451207Y465707D01*
X450306Y466447D01*
X449277Y466997D01*
X448161Y467336D01*
X447000Y467450D01*
D02*
G37*
G36*
X400500Y452120D02*
Y448500D01*
X404120D01*
X404043Y449083D01*
X403625Y450093D01*
X402959Y450959D01*
X402093Y451625D01*
X401083Y452043D01*
X400500Y452120D01*
D02*
G37*
G36*
X399500Y447500D02*
X395880D01*
X395957Y446917D01*
X396375Y445907D01*
X397041Y445041D01*
X397907Y444375D01*
X398917Y443957D01*
X399500Y443880D01*
Y447500D01*
D02*
G37*
G36*
X204720Y382968D02*
X198784D01*
Y382039D01*
X195000D01*
X194220Y381884D01*
X193558Y381442D01*
X187558Y375442D01*
X187116Y374780D01*
X186961Y374000D01*
Y353847D01*
X186504Y353496D01*
X185943Y352765D01*
X185590Y351914D01*
X185470Y351000D01*
X185590Y350086D01*
X185943Y349235D01*
X186504Y348504D01*
X186584Y348442D01*
X186424Y347969D01*
X183280D01*
Y342032D01*
X188119D01*
X188235Y341943D01*
X189086Y341590D01*
X190000Y341470D01*
X190914Y341590D01*
X191765Y341943D01*
X192496Y342504D01*
X193057Y343235D01*
X193410Y344086D01*
X193530Y345000D01*
X193410Y345914D01*
X193057Y346765D01*
X192496Y347496D01*
X191765Y348057D01*
X191696Y348086D01*
X191616Y348660D01*
X192057Y349235D01*
X192410Y350086D01*
X192530Y351000D01*
X192410Y351914D01*
X192057Y352765D01*
X191496Y353496D01*
X191039Y353847D01*
Y373155D01*
X195845Y377961D01*
X198784D01*
Y377031D01*
X204720D01*
Y382968D01*
D02*
G37*
G36*
X424000Y380660D02*
Y375886D01*
X425724D01*
Y378535D01*
X425555Y379386D01*
X425072Y380108D01*
X424351Y380590D01*
X424000Y380660D01*
D02*
G37*
G36*
X447000Y405450D02*
X445839Y405336D01*
X444723Y404997D01*
X443694Y404447D01*
X442793Y403707D01*
X442053Y402806D01*
X441503Y401777D01*
X441164Y400661D01*
X441050Y399500D01*
X441164Y398339D01*
X441503Y397223D01*
X442053Y396194D01*
X442793Y395293D01*
X443694Y394553D01*
X444723Y394003D01*
X445839Y393664D01*
X447000Y393550D01*
X448161Y393664D01*
X449277Y394003D01*
X450306Y394553D01*
X451207Y395293D01*
X451947Y396194D01*
X452497Y397223D01*
X452836Y398339D01*
X452950Y399500D01*
X452836Y400661D01*
X452497Y401777D01*
X451947Y402806D01*
X451207Y403707D01*
X450306Y404447D01*
X449277Y404997D01*
X448161Y405336D01*
X447000Y405450D01*
D02*
G37*
G36*
X410000Y447185D02*
X408917Y447043D01*
X407907Y446625D01*
X407041Y445960D01*
X406375Y445093D01*
X405957Y444083D01*
X405815Y443000D01*
X405957Y441917D01*
X406375Y440907D01*
X406853Y440284D01*
X406607Y439784D01*
X403752D01*
X403625Y440093D01*
X402959Y440960D01*
X402093Y441625D01*
X401083Y442043D01*
X400000Y442185D01*
X398917Y442043D01*
X397907Y441625D01*
X397041Y440960D01*
X396375Y440093D01*
X395957Y439083D01*
X395815Y438000D01*
X395957Y436917D01*
X396375Y435907D01*
X397041Y435041D01*
X397907Y434375D01*
X398917Y433957D01*
X400000Y433815D01*
X401083Y433957D01*
X402093Y434375D01*
X402959Y435041D01*
X403625Y435907D01*
X403752Y436216D01*
X406607D01*
X406853Y435716D01*
X406375Y435093D01*
X406248Y434784D01*
X405000D01*
X405000Y434784D01*
X404317Y434649D01*
X403738Y434262D01*
X403738Y434262D01*
X401392Y431915D01*
X401083Y432043D01*
X400000Y432185D01*
X398917Y432043D01*
X397907Y431625D01*
X397041Y430960D01*
X396375Y430093D01*
X395957Y429083D01*
X395815Y428000D01*
X395957Y426917D01*
X396085Y426608D01*
X391738Y422262D01*
X391352Y421683D01*
X391216Y421000D01*
Y408000D01*
X391352Y407317D01*
X391738Y406738D01*
X403968Y394509D01*
Y391968D01*
X402783D01*
Y386032D01*
X403968D01*
Y385248D01*
X404104Y384565D01*
X404490Y383986D01*
X405738Y382738D01*
X406317Y382351D01*
X407000Y382216D01*
X411261D01*
X411716Y381761D01*
Y379791D01*
X411445Y379386D01*
X411276Y378535D01*
Y372236D01*
X411445Y371385D01*
X411928Y370664D01*
X412649Y370182D01*
X413500Y370012D01*
X414351Y370182D01*
X415072Y370664D01*
X415555Y371385D01*
X415724Y372236D01*
Y378535D01*
X415555Y379386D01*
X415284Y379791D01*
Y382500D01*
X415148Y383183D01*
X414762Y383762D01*
X413262Y385262D01*
X412858Y385531D01*
X413010Y386032D01*
X415216D01*
Y387216D01*
X415784D01*
Y386032D01*
X418991D01*
X419142Y385531D01*
X418738Y385262D01*
X417238Y383762D01*
X416852Y383183D01*
X416716Y382500D01*
Y379791D01*
X416445Y379386D01*
X416276Y378535D01*
Y372236D01*
X416445Y371385D01*
X416927Y370664D01*
X417649Y370182D01*
X418500Y370012D01*
X419351Y370182D01*
X420073Y370664D01*
X420555Y371385D01*
X420724Y372236D01*
Y378535D01*
X420555Y379386D01*
X420284Y379791D01*
Y381761D01*
X420739Y382216D01*
X424000D01*
X424683Y382351D01*
X425262Y382738D01*
X426510Y383986D01*
X426896Y384565D01*
X427032Y385248D01*
Y386032D01*
X428217D01*
Y391968D01*
X427032D01*
Y394752D01*
X426896Y395435D01*
X426510Y396014D01*
X422784Y399739D01*
Y412000D01*
X422784Y412000D01*
X422784Y412000D01*
Y433000D01*
X422784Y433000D01*
X422648Y433683D01*
X422262Y434262D01*
X422262Y434262D01*
X417262Y439262D01*
X416683Y439648D01*
X416000Y439784D01*
X413393D01*
X413147Y440284D01*
X413625Y440907D01*
X414043Y441917D01*
X414185Y443000D01*
X414043Y444083D01*
X413625Y445093D01*
X412959Y445960D01*
X412093Y446625D01*
X411083Y447043D01*
X410000Y447185D01*
D02*
G37*
G36*
X435000Y415433D02*
X433550Y415291D01*
X432155Y414868D01*
X430870Y414181D01*
X429744Y413256D01*
X428819Y412130D01*
X428132Y410845D01*
X427709Y409450D01*
X427567Y408000D01*
X427709Y406550D01*
X428132Y405155D01*
X428819Y403870D01*
X429744Y402744D01*
X430870Y401819D01*
X432155Y401132D01*
X433550Y400709D01*
X435000Y400567D01*
X436450Y400709D01*
X437845Y401132D01*
X439130Y401819D01*
X440256Y402744D01*
X441181Y403870D01*
X441868Y405155D01*
X442291Y406550D01*
X442433Y408000D01*
X442291Y409450D01*
X441868Y410845D01*
X441181Y412130D01*
X440256Y413256D01*
X439130Y414181D01*
X437845Y414868D01*
X436450Y415291D01*
X435000Y415433D01*
D02*
G37*
G36*
X375875Y293997D02*
X370325D01*
X369398Y293812D01*
X368613Y293287D01*
X368088Y292502D01*
X367945Y291784D01*
X350043D01*
X349496Y292496D01*
X348765Y293057D01*
X347914Y293410D01*
X347000Y293530D01*
X346086Y293410D01*
X345235Y293057D01*
X344504Y292496D01*
X343957Y291784D01*
X342455D01*
X342312Y292502D01*
X341787Y293287D01*
X341002Y293812D01*
X340075Y293997D01*
X334525D01*
X333598Y293812D01*
X332813Y293287D01*
X332288Y292502D01*
X332103Y291575D01*
Y288825D01*
X332288Y287898D01*
X332813Y287113D01*
X333598Y286588D01*
X334525Y286403D01*
X340075D01*
X341002Y286588D01*
X341787Y287113D01*
X342312Y287898D01*
X342375Y288216D01*
X343957D01*
X344504Y287504D01*
X345235Y286943D01*
X346086Y286590D01*
X347000Y286470D01*
X347914Y286590D01*
X348765Y286943D01*
X349496Y287504D01*
X350043Y288216D01*
X368025D01*
X368088Y287898D01*
X368613Y287113D01*
X369398Y286588D01*
X370325Y286403D01*
X375875D01*
X376802Y286588D01*
X377587Y287113D01*
X378112Y287898D01*
X378296Y288825D01*
Y291575D01*
X378112Y292502D01*
X377587Y293287D01*
X376802Y293812D01*
X375875Y293997D01*
D02*
G37*
G36*
X201000Y313530D02*
X200086Y313410D01*
X199235Y313057D01*
X198504Y312496D01*
X197943Y311765D01*
X197590Y310914D01*
X197470Y310000D01*
X197590Y309086D01*
X197943Y308235D01*
X198504Y307504D01*
X199216Y306958D01*
Y301000D01*
X199352Y300317D01*
X199738Y299738D01*
X203587Y295890D01*
X203470Y295000D01*
X203590Y294086D01*
X203943Y293235D01*
X204504Y292504D01*
X205235Y291943D01*
X206086Y291590D01*
X207000Y291470D01*
X207914Y291590D01*
X208765Y291943D01*
X209496Y292504D01*
X210057Y293235D01*
X210410Y294086D01*
X210530Y295000D01*
X210410Y295914D01*
X210057Y296765D01*
X209496Y297496D01*
X208765Y298057D01*
X207914Y298410D01*
X207000Y298530D01*
X206110Y298413D01*
X202784Y301739D01*
Y306958D01*
X203496Y307504D01*
X204057Y308235D01*
X204410Y309086D01*
X204530Y310000D01*
X204410Y310914D01*
X204057Y311765D01*
X203496Y312496D01*
X202765Y313057D01*
X201914Y313410D01*
X201000Y313530D01*
D02*
G37*
G36*
X336800Y307400D02*
X332103D01*
Y306525D01*
X332288Y305598D01*
X332813Y304813D01*
X333598Y304288D01*
X334525Y304103D01*
X336800D01*
Y307400D01*
D02*
G37*
G36*
X372600D02*
X367903D01*
Y306525D01*
X368088Y305598D01*
X368613Y304813D01*
X369398Y304288D01*
X370325Y304103D01*
X372600D01*
Y307400D01*
D02*
G37*
G36*
X342496D02*
X337800D01*
Y304103D01*
X340075D01*
X341002Y304288D01*
X341787Y304813D01*
X342312Y305598D01*
X342496Y306525D01*
Y307400D01*
D02*
G37*
G36*
X403500Y293500D02*
X400536D01*
X400590Y293086D01*
X400943Y292235D01*
X401504Y291504D01*
X402235Y290943D01*
X403086Y290590D01*
X403500Y290536D01*
Y293500D01*
D02*
G37*
G36*
X447000Y281987D02*
X445968Y281851D01*
X445007Y281453D01*
X444181Y280819D01*
X443547Y279993D01*
X443149Y279032D01*
X443013Y278000D01*
X443149Y276968D01*
X443547Y276007D01*
X444181Y275181D01*
X445007Y274547D01*
X445968Y274149D01*
X447000Y274013D01*
X448032Y274149D01*
X448993Y274547D01*
X449819Y275181D01*
X450453Y276007D01*
X450851Y276968D01*
X450987Y278000D01*
X450851Y279032D01*
X450453Y279993D01*
X449819Y280819D01*
X448993Y281453D01*
X448032Y281851D01*
X447000Y281987D01*
D02*
G37*
G36*
X183500Y274921D02*
Y271500D01*
X186921D01*
X186851Y272032D01*
X186453Y272993D01*
X185819Y273819D01*
X184993Y274453D01*
X184032Y274851D01*
X183500Y274921D01*
D02*
G37*
G36*
X183000Y284987D02*
X181968Y284851D01*
X181007Y284453D01*
X180181Y283819D01*
X179547Y282993D01*
X179149Y282032D01*
X179013Y281000D01*
X179149Y279968D01*
X179547Y279007D01*
X180181Y278181D01*
X181007Y277547D01*
X181968Y277149D01*
X183000Y277013D01*
X184032Y277149D01*
X184993Y277547D01*
X185819Y278181D01*
X186453Y279007D01*
X186851Y279968D01*
X186987Y281000D01*
X186851Y282032D01*
X186453Y282993D01*
X185819Y283819D01*
X184993Y284453D01*
X184032Y284851D01*
X183000Y284987D01*
D02*
G37*
G36*
X206953Y284953D02*
X199047D01*
Y277047D01*
X206953D01*
Y284953D01*
D02*
G37*
G36*
X193000Y284987D02*
X191968Y284851D01*
X191007Y284453D01*
X190181Y283819D01*
X189547Y282993D01*
X189149Y282032D01*
X189013Y281000D01*
X189149Y279968D01*
X189547Y279007D01*
X190181Y278181D01*
X191007Y277547D01*
X191968Y277149D01*
X193000Y277013D01*
X194032Y277149D01*
X194993Y277547D01*
X195819Y278181D01*
X196453Y279007D01*
X196851Y279968D01*
X196987Y281000D01*
X196851Y282032D01*
X196453Y282993D01*
X195819Y283819D01*
X194993Y284453D01*
X194032Y284851D01*
X193000Y284987D01*
D02*
G37*
G36*
X227500Y313464D02*
Y310500D01*
X230464D01*
X230410Y310914D01*
X230057Y311765D01*
X229496Y312496D01*
X228765Y313057D01*
X227914Y313410D01*
X227500Y313464D01*
D02*
G37*
G36*
X381500Y314464D02*
X381086Y314410D01*
X380235Y314057D01*
X379504Y313496D01*
X378943Y312765D01*
X378590Y311914D01*
X378470Y311000D01*
X378502Y310756D01*
X378411Y310655D01*
X377779Y310701D01*
X377587Y310987D01*
X376802Y311512D01*
X375875Y311697D01*
X373600D01*
Y307900D01*
Y304103D01*
X375875D01*
X376802Y304288D01*
X377587Y304813D01*
X378112Y305598D01*
X378215Y306116D01*
X378900D01*
X379583Y306252D01*
X380162Y306638D01*
X381110Y307587D01*
X381500Y307536D01*
Y311000D01*
Y314464D01*
D02*
G37*
G36*
X226500Y313464D02*
X226086Y313410D01*
X225235Y313057D01*
X224504Y312496D01*
X223943Y311765D01*
X223590Y310914D01*
X223536Y310500D01*
X226500D01*
Y313464D01*
D02*
G37*
G36*
X372600Y311697D02*
X370325D01*
X369398Y311512D01*
X368613Y310987D01*
X368088Y310202D01*
X367903Y309275D01*
Y308400D01*
X372600D01*
Y311697D01*
D02*
G37*
G36*
X382500Y314464D02*
Y311500D01*
X385464D01*
X385410Y311914D01*
X385057Y312765D01*
X384496Y313496D01*
X383765Y314057D01*
X382914Y314410D01*
X382500Y314464D01*
D02*
G37*
G36*
X230464Y309500D02*
X227500D01*
Y306536D01*
X227914Y306590D01*
X228765Y306943D01*
X229496Y307504D01*
X230057Y308235D01*
X230410Y309086D01*
X230464Y309500D01*
D02*
G37*
G36*
X226500D02*
X223536D01*
X223590Y309086D01*
X223943Y308235D01*
X224504Y307504D01*
X225235Y306943D01*
X226086Y306590D01*
X226500Y306536D01*
Y309500D01*
D02*
G37*
G36*
X385464Y310500D02*
X382500D01*
Y307536D01*
X382914Y307590D01*
X383765Y307943D01*
X384496Y308504D01*
X385057Y309235D01*
X385410Y310086D01*
X385464Y310500D01*
D02*
G37*
G36*
X441500Y314721D02*
Y312252D01*
X443968D01*
Y314721D01*
X441500D01*
D02*
G37*
G36*
X340075Y311697D02*
X337800D01*
Y308400D01*
X342496D01*
Y309275D01*
X342312Y310202D01*
X341787Y310987D01*
X341002Y311512D01*
X340075Y311697D01*
D02*
G37*
%LPD*%
G36*
X419216Y432261D02*
Y416961D01*
X418754Y416770D01*
X413915Y421608D01*
X414043Y421917D01*
X414185Y423000D01*
X414043Y424083D01*
X413625Y425093D01*
X412959Y425959D01*
X412093Y426625D01*
X411083Y427043D01*
X410000Y427185D01*
X408917Y427043D01*
X407907Y426625D01*
X407041Y425959D01*
X406375Y425093D01*
X405957Y424083D01*
X405815Y423000D01*
X405957Y421917D01*
X406375Y420907D01*
X407041Y420041D01*
X407907Y419375D01*
X408917Y418957D01*
X410000Y418815D01*
X411083Y418957D01*
X411392Y419085D01*
X419216Y411261D01*
Y399000D01*
X419351Y398317D01*
X419738Y397738D01*
X423464Y394013D01*
Y391968D01*
X422280D01*
Y386493D01*
X422000Y386332D01*
X421721Y386493D01*
Y391968D01*
X415784D01*
Y390784D01*
X415216D01*
Y391968D01*
X409279D01*
Y386493D01*
X409000Y386332D01*
X408720Y386493D01*
Y391968D01*
X407536D01*
Y395248D01*
X407536Y395248D01*
X407400Y395931D01*
X407014Y396510D01*
X394784Y408739D01*
Y420261D01*
X398608Y424085D01*
X398917Y423957D01*
X400000Y423815D01*
X401083Y423957D01*
X402093Y424375D01*
X402959Y425040D01*
X403625Y425907D01*
X404043Y426917D01*
X404185Y428000D01*
X404043Y429083D01*
X403915Y429392D01*
X405739Y431216D01*
X406248D01*
X406375Y430907D01*
X407041Y430041D01*
X407907Y429375D01*
X408917Y428957D01*
X410000Y428815D01*
X411083Y428957D01*
X412093Y429375D01*
X412959Y430041D01*
X413625Y430907D01*
X414043Y431917D01*
X414185Y433000D01*
X414043Y434083D01*
X413625Y435093D01*
X413147Y435716D01*
X413393Y436216D01*
X415261D01*
X419216Y432261D01*
D02*
G37*
%LPC*%
G36*
X414120Y412500D02*
X410500D01*
Y408880D01*
X411083Y408957D01*
X412093Y409375D01*
X412959Y410041D01*
X413625Y410907D01*
X414043Y411917D01*
X414120Y412500D01*
D02*
G37*
G36*
X409500D02*
X405880D01*
X405957Y411917D01*
X406375Y410907D01*
X407041Y410041D01*
X407907Y409375D01*
X408917Y408957D01*
X409500Y408880D01*
Y412500D01*
D02*
G37*
G36*
Y417120D02*
X408917Y417043D01*
X407907Y416625D01*
X407041Y415960D01*
X406375Y415093D01*
X405957Y414083D01*
X405880Y413500D01*
X409500D01*
Y417120D01*
D02*
G37*
G36*
X400000Y422185D02*
X398917Y422043D01*
X397907Y421625D01*
X397041Y420960D01*
X396375Y420093D01*
X395957Y419083D01*
X395815Y418000D01*
X395957Y416917D01*
X396375Y415907D01*
X397041Y415040D01*
X397907Y414375D01*
X398917Y413957D01*
X400000Y413815D01*
X401083Y413957D01*
X402093Y414375D01*
X402959Y415040D01*
X403625Y415907D01*
X404043Y416917D01*
X404185Y418000D01*
X404043Y419083D01*
X403625Y420093D01*
X402959Y420960D01*
X402093Y421625D01*
X401083Y422043D01*
X400000Y422185D01*
D02*
G37*
G36*
X410500Y417120D02*
Y413500D01*
X414120D01*
X414043Y414083D01*
X413625Y415093D01*
X412959Y415960D01*
X412093Y416625D01*
X411083Y417043D01*
X410500Y417120D01*
D02*
G37*
G36*
X287874Y317414D02*
X284910D01*
Y314449D01*
X285324Y314504D01*
X286175Y314856D01*
X286906Y315418D01*
X287467Y316149D01*
X287820Y317000D01*
X287874Y317414D01*
D02*
G37*
G36*
X283910D02*
X280945D01*
X281000Y317000D01*
X281353Y316149D01*
X281914Y315418D01*
X282645Y314856D01*
X283496Y314504D01*
X283910Y314449D01*
Y317414D01*
D02*
G37*
%LPD*%
D10*
X186752Y245000D02*
D03*
X193248D02*
D03*
X306752D02*
D03*
X313248D02*
D03*
X213248D02*
D03*
X206752D02*
D03*
X333248D02*
D03*
X326752D02*
D03*
X226752D02*
D03*
X233248D02*
D03*
X336752Y238000D02*
D03*
X343248D02*
D03*
X253248Y245000D02*
D03*
X246752D02*
D03*
X346752D02*
D03*
X353248D02*
D03*
X266752D02*
D03*
X273248D02*
D03*
X363248Y238000D02*
D03*
X356752D02*
D03*
X293248Y245000D02*
D03*
X286752D02*
D03*
X366752D02*
D03*
X373248D02*
D03*
X201752Y380000D02*
D03*
X208248D02*
D03*
X268248D02*
D03*
X261752D02*
D03*
X211752Y365000D02*
D03*
X218248D02*
D03*
X278248D02*
D03*
X271752D02*
D03*
X221752Y380000D02*
D03*
X228248D02*
D03*
X298248Y365000D02*
D03*
X291752D02*
D03*
X238248D02*
D03*
X231752D02*
D03*
X318248D02*
D03*
X311752D02*
D03*
X248248Y380000D02*
D03*
X241752D02*
D03*
X338248Y365000D02*
D03*
X331752D02*
D03*
X258248D02*
D03*
X251752D02*
D03*
X358248D02*
D03*
X351752D02*
D03*
X179752Y345000D02*
D03*
X186248D02*
D03*
X249752D02*
D03*
X256248D02*
D03*
X319752D02*
D03*
X326248D02*
D03*
X197252D02*
D03*
X203748D02*
D03*
X267252D02*
D03*
X273748D02*
D03*
X337252D02*
D03*
X343748D02*
D03*
X214752D02*
D03*
X221248D02*
D03*
X284752D02*
D03*
X291248D02*
D03*
X354752D02*
D03*
X361248D02*
D03*
X232252D02*
D03*
X238748D02*
D03*
X302252D02*
D03*
X308748D02*
D03*
X372252D02*
D03*
X378748D02*
D03*
X181752Y218000D02*
D03*
X188248D02*
D03*
X301752D02*
D03*
X308248D02*
D03*
X201752D02*
D03*
X208248D02*
D03*
X321752D02*
D03*
X328248D02*
D03*
X221752D02*
D03*
X228248D02*
D03*
X341752D02*
D03*
X348248D02*
D03*
X241752D02*
D03*
X248248D02*
D03*
X361752D02*
D03*
X368248D02*
D03*
X261752D02*
D03*
X268248D02*
D03*
X381752D02*
D03*
X388248D02*
D03*
X281752D02*
D03*
X288248D02*
D03*
X401752D02*
D03*
X408248D02*
D03*
X412248Y389000D02*
D03*
X405752D02*
D03*
X425248D02*
D03*
X418752D02*
D03*
D11*
X441000Y318248D02*
D03*
Y311752D02*
D03*
X435000D02*
D03*
Y318248D02*
D03*
D12*
X373100Y290200D02*
D03*
Y307900D02*
D03*
X337300Y290200D02*
D03*
Y307900D02*
D03*
D13*
X254752Y281256D02*
D03*
X257902D02*
D03*
X261051D02*
D03*
X264201D02*
D03*
X267350D02*
D03*
X270500D02*
D03*
X273650D02*
D03*
X276799D02*
D03*
X279949D02*
D03*
X283098D02*
D03*
X286248D02*
D03*
Y325744D02*
D03*
X283098D02*
D03*
X279949D02*
D03*
X276799D02*
D03*
X273650D02*
D03*
X270500D02*
D03*
X267350D02*
D03*
X264201D02*
D03*
X261051D02*
D03*
X257902D02*
D03*
X254752D02*
D03*
D14*
X292744Y287752D02*
D03*
Y290902D02*
D03*
Y294051D02*
D03*
Y297201D02*
D03*
Y300350D02*
D03*
Y303500D02*
D03*
Y306650D02*
D03*
Y309799D02*
D03*
Y312949D02*
D03*
Y316098D02*
D03*
Y319248D02*
D03*
X248256D02*
D03*
Y316098D02*
D03*
Y312949D02*
D03*
Y309799D02*
D03*
Y306650D02*
D03*
Y303500D02*
D03*
Y300350D02*
D03*
Y297201D02*
D03*
Y294051D02*
D03*
Y290902D02*
D03*
Y287752D02*
D03*
D15*
X408500Y348614D02*
D03*
X413500D02*
D03*
X418500D02*
D03*
X423500D02*
D03*
X408500Y375386D02*
D03*
X413500D02*
D03*
X418500D02*
D03*
X423500D02*
D03*
D16*
X408000Y340000D02*
X408500Y340500D01*
Y348614D01*
X407000Y332000D02*
X413500Y338500D01*
Y348614D01*
X311929Y323919D02*
Y324000D01*
X300959Y312949D02*
X311929Y323919D01*
X292744Y312949D02*
X300959D01*
X298098Y316098D02*
X304000Y322000D01*
X309500Y303500D02*
X325000Y319000D01*
X310350Y300350D02*
X342000Y332000D01*
X312201Y297201D02*
X340000Y325000D01*
X292744Y303500D02*
X309500D01*
X292744Y300350D02*
X310350D01*
X292744Y297201D02*
X312201D01*
X292744Y316098D02*
X298098D01*
X292744Y294051D02*
X313051D01*
X302650Y306650D02*
X304000Y308000D01*
X293248Y319248D02*
X302000Y328000D01*
Y333000D02*
X307000Y338000D01*
X285000Y333000D02*
X302000D01*
X292744Y319248D02*
X293248D01*
X283000Y310000D02*
X292543D01*
X275500Y316500D02*
X276799Y317799D01*
X273650Y321150D02*
Y325744D01*
X269500Y317000D02*
X273650Y321150D01*
X292744Y325744D02*
X293000Y326000D01*
X313051Y294051D02*
X341000Y322000D01*
X276799Y317799D02*
Y325744D01*
X355000Y263000D02*
X357500D01*
X362500Y268000D01*
X372000D01*
X232252Y339218D02*
Y345000D01*
X233470Y338000D02*
X237000D01*
X232252Y339218D02*
X233470Y338000D01*
X286248Y325744D02*
X292744D01*
X292744Y306650D02*
X302650D01*
X340000Y325000D02*
X357000D01*
X341000Y322000D02*
X363000D01*
X378900Y307900D02*
X382000Y311000D01*
X373100Y307900D02*
X378900D01*
X204005Y261005D02*
X233902Y290902D01*
X200005Y261005D02*
X204005D01*
X240752Y287752D02*
X248256D01*
X214000Y261000D02*
X240752Y287752D01*
X418500Y334500D02*
Y348614D01*
X415000Y331000D02*
X418500Y334500D01*
X407000Y332000D02*
Y332990D01*
X323248Y287752D02*
X327000Y284000D01*
X292744Y287752D02*
X323248D01*
X325000Y281000D02*
X381000D01*
X286248Y281256D02*
X324744D01*
X325000Y281000D01*
X321036Y278500D02*
X323535Y276000D01*
X305964Y278500D02*
X321036D01*
X302714Y275250D02*
X305964Y278500D01*
X285000Y275250D02*
X302714D01*
X283098Y277152D02*
X285000Y275250D01*
X283098Y277152D02*
Y281256D01*
X273650Y276100D02*
X277000Y272750D01*
X291000Y272000D02*
X303000D01*
X277000Y272750D02*
X290250D01*
X291000Y272000D01*
X270500Y273000D02*
X273250Y270250D01*
X285082Y269000D02*
X304990D01*
X273250Y270250D02*
X283832D01*
X285082Y269000D01*
X267350Y269650D02*
X269250Y267750D01*
X282796D01*
X284296Y266250D01*
X264000Y268000D02*
X266750Y265250D01*
X281760D01*
X285010Y262000D01*
X290000D01*
X263000Y261000D02*
X280000D01*
X261000Y263000D02*
X263000Y261000D01*
X320000Y276000D02*
X327000Y269000D01*
X307000Y276000D02*
X320000D01*
X303000Y272000D02*
X307000Y276000D01*
X273650Y276100D02*
Y281256D01*
X270500Y273000D02*
Y281256D01*
X273000Y245248D02*
Y253000D01*
X276000Y256000D01*
X307000Y271000D02*
X313000D01*
X306250Y270250D02*
X307000Y271000D01*
X306240Y270250D02*
X306250D01*
X304990Y269000D02*
X306240Y270250D01*
X284296Y266250D02*
X307750D01*
X308000Y266000D01*
X267350Y269650D02*
Y281256D01*
X264000Y268000D02*
Y281055D01*
X264201Y281256D01*
X261000Y281205D02*
X261051Y281256D01*
X261000Y263000D02*
Y281205D01*
X251000Y263000D02*
Y270000D01*
X257902Y276902D01*
Y281256D01*
X242000Y263000D02*
Y273000D01*
X250256Y281256D01*
X254752D01*
X233902Y290902D02*
X248256D01*
X194000Y328000D02*
X218000D01*
X185000Y337000D02*
X194000Y328000D01*
X218000D02*
X236201Y309799D01*
X248256D01*
X204000Y338000D02*
X210000Y332000D01*
X219000D01*
X238051Y312949D01*
X248256D01*
X436000Y297000D02*
X441000Y302000D01*
Y311752D01*
X435000Y318248D02*
X441000D01*
X406000Y226000D02*
Y228000D01*
X401752Y221752D02*
X406000Y226000D01*
X401752Y218000D02*
Y221752D01*
X356752Y234248D02*
Y238000D01*
Y234248D02*
X358000Y233000D01*
X382000D01*
X387000Y228000D01*
X372900Y290000D02*
X373100Y290200D01*
X347000Y290000D02*
X372900D01*
X337300Y290200D02*
X337500Y290000D01*
X347000D01*
X282000Y300000D02*
X283000Y299000D01*
X285000D01*
Y293000D02*
Y299000D01*
Y293000D02*
X287098Y290902D01*
X292744D01*
X259000Y305000D02*
X265000Y299000D01*
X259000Y305000D02*
Y315000D01*
X254752Y319248D02*
X259000Y315000D01*
X248256Y319248D02*
X254752D01*
X256000Y301000D02*
X258000Y299000D01*
X256000Y301000D02*
Y314000D01*
X253902Y316098D02*
X256000Y314000D01*
X248256Y316098D02*
X253902D01*
X279949Y281256D02*
Y292949D01*
X292543Y310000D02*
X292744Y309799D01*
X327000Y284000D02*
X386000D01*
X409000Y261000D01*
X381000Y281000D02*
X400000Y262000D01*
X323535Y276000D02*
X359000D01*
X327000Y269000D02*
X357000D01*
X314000Y245752D02*
Y262000D01*
X313248Y245000D02*
X314000Y245752D01*
X233000Y245248D02*
Y262000D01*
Y245248D02*
X233248Y245000D01*
X193248D02*
Y261752D01*
X193000Y262000D02*
X193248Y261752D01*
X201000Y301000D02*
Y310000D01*
Y301000D02*
X207000Y295000D01*
X423500Y340500D02*
Y348614D01*
Y340500D02*
X424000Y340000D01*
X405752Y389000D02*
Y395248D01*
X393000Y408000D02*
X405752Y395248D01*
X393000Y408000D02*
Y421000D01*
X400000Y428000D01*
X405000Y433000D01*
X410000D01*
Y423000D02*
X421000Y412000D01*
Y433000D01*
Y399000D02*
Y412000D01*
X416000Y438000D02*
X421000Y433000D01*
X400000Y438000D02*
X416000D01*
X425248Y389000D02*
Y394752D01*
X421000Y399000D02*
X425248Y394752D01*
X412248Y389000D02*
X418752D01*
X425248Y385248D02*
Y389000D01*
X424000Y384000D02*
X425248Y385248D01*
X420000Y384000D02*
X424000D01*
X418500Y382500D02*
X420000Y384000D01*
X418500Y375386D02*
Y382500D01*
X405752Y385248D02*
Y389000D01*
Y385248D02*
X407000Y384000D01*
X412000D01*
X413500Y382500D01*
Y375386D02*
Y382500D01*
X185000Y337000D02*
Y338000D01*
X202000D02*
X204000D01*
X220000D02*
X232256Y325744D01*
X254752D01*
X363000Y322000D02*
X377000Y336000D01*
X357000Y325000D02*
X360000Y328000D01*
X342000Y332000D02*
Y338000D01*
X325000Y319000D02*
Y338000D01*
X377000Y336000D02*
Y338000D01*
X360000Y328000D02*
Y338000D01*
X342000D02*
Y338252D01*
X283098Y331098D02*
X285000Y333000D01*
X283098Y325744D02*
Y331098D01*
X283000Y338000D02*
X290000D01*
X279949Y334949D02*
X283000Y338000D01*
X279949Y325744D02*
Y334949D01*
X270500Y336500D02*
X272000Y338000D01*
X270500Y325744D02*
Y336500D01*
X255000Y338000D02*
X261000D01*
X267350Y331650D01*
Y325744D02*
Y331650D01*
X237000Y334000D02*
Y338000D01*
Y334000D02*
X239000Y332000D01*
X257000D01*
X257902Y331098D01*
Y325744D02*
Y331098D01*
X377000Y338000D02*
Y339000D01*
X372252Y343748D02*
X377000Y339000D01*
X372252Y343748D02*
Y345000D01*
X360000Y338000D02*
Y339000D01*
X354752Y344248D02*
X360000Y339000D01*
X354752Y344248D02*
Y345000D01*
X337252Y343000D02*
X342000Y338252D01*
X319752Y343248D02*
X325000Y338000D01*
X319752Y343248D02*
Y345000D01*
X307000Y338000D02*
Y339000D01*
X302252Y343748D02*
X307000Y339000D01*
X302252Y343748D02*
Y345000D01*
X284752Y343248D02*
X290000Y338000D01*
X284752Y343248D02*
Y345000D01*
X272000Y338000D02*
Y339000D01*
X267252Y343748D02*
X272000Y339000D01*
X267252Y343748D02*
Y345000D01*
X249752Y343248D02*
X255000Y338000D01*
X249752Y343248D02*
Y345000D01*
X346000Y245752D02*
X346752Y245000D01*
X346000Y245752D02*
Y263000D01*
X339000Y243000D02*
Y262000D01*
X336752Y240752D02*
X339000Y243000D01*
X336752Y238000D02*
Y240752D01*
X333248Y245000D02*
Y261752D01*
X332000Y263000D02*
X333248Y261752D01*
X369000Y250000D02*
X374000D01*
X378000Y254000D01*
Y257000D01*
X366752Y247752D02*
X369000Y250000D01*
X366752Y245000D02*
Y247752D01*
X412000Y245000D02*
X413000Y246000D01*
X373248Y245000D02*
X412000D01*
X353248Y261248D02*
X355000Y263000D01*
X353248Y245000D02*
Y261248D01*
X343248Y238000D02*
X347000D01*
X363248D02*
X385000D01*
X317000Y222752D02*
X321752Y218000D01*
X295121Y218121D02*
X295242Y218000D01*
X301752D01*
X276000D02*
X281752D01*
X255121Y218121D02*
X255242Y218000D01*
X261752D01*
X235121Y218121D02*
X235242Y218000D01*
X241752D01*
X215182Y218182D02*
X215364Y218000D01*
X221752D01*
X195000Y219000D02*
X200752D01*
X201752Y218000D01*
X325000Y238000D02*
Y243248D01*
X326752Y245000D01*
X305000Y243248D02*
X306752Y245000D01*
X305000Y238000D02*
Y243248D01*
X295000Y238000D02*
Y243248D01*
X293248Y245000D02*
X295000Y243248D01*
X285000Y238000D02*
Y243248D01*
X286752Y245000D01*
X265000Y238000D02*
Y243248D01*
X266752Y245000D01*
X253248D02*
X255000Y243248D01*
Y238000D02*
Y243248D01*
X245000Y238000D02*
Y243248D01*
X246752Y245000D01*
X205000Y238000D02*
Y243248D01*
X206752Y245000D01*
X225000Y238000D02*
Y243248D01*
X226752Y245000D01*
X215000Y238000D02*
Y243248D01*
X213248Y245000D02*
X215000Y243248D01*
X183000Y245000D02*
X186752D01*
X352000Y228000D02*
X357000D01*
X361752Y223248D01*
X334000Y227000D02*
X337000D01*
X341752Y222248D01*
X333000Y228000D02*
X334000Y227000D01*
X181752Y225752D02*
X182000Y226000D01*
X181752Y218000D02*
Y225752D01*
X377000Y228000D02*
X381752Y223248D01*
Y218000D02*
Y223248D01*
X361752Y218000D02*
Y223248D01*
X341752Y218000D02*
Y222248D01*
X317000Y222752D02*
Y228000D01*
X238700Y320400D02*
X238900D01*
X239100Y320200D01*
X197252Y339218D02*
X198470Y338000D01*
X202000D01*
X197252Y339218D02*
Y345000D01*
X179752Y339718D02*
X181470Y338000D01*
X185000D01*
X179752Y339718D02*
Y345000D01*
X214752Y339718D02*
X216470Y338000D01*
X220000D01*
X214752Y339718D02*
Y345000D01*
D17*
X280000Y307000D02*
X283000Y310000D01*
X266000Y307000D02*
X280000D01*
X263000Y310000D02*
X266000Y307000D01*
X259000Y386000D02*
X273000D01*
X265000Y388000D02*
X267000Y386000D01*
X265000Y388000D02*
Y417500D01*
X271752Y365000D02*
X272000Y365248D01*
Y369000D01*
X275000Y372000D01*
Y384000D01*
X273000Y386000D02*
X275000Y384000D01*
X251000Y386000D02*
X259000D01*
X239000D02*
X251000D01*
X254000Y383000D01*
Y372000D02*
Y383000D01*
X251752Y369752D02*
X254000Y372000D01*
X251752Y365000D02*
Y369752D01*
X261752Y380000D02*
Y383248D01*
X259000Y386000D02*
X261752Y383248D01*
X241752Y380000D02*
Y383248D01*
X239000Y386000D02*
X241752Y383248D01*
X226000Y386000D02*
X239000D01*
X218248Y365000D02*
Y369752D01*
X216000Y372000D02*
X218248Y369752D01*
X216000Y372000D02*
Y381000D01*
X211000Y386000D02*
X216000Y381000D01*
X208248Y388752D02*
X211000Y386000D01*
X208248Y380000D02*
Y388752D01*
X197500Y399500D02*
X208248Y388752D01*
X197500Y399500D02*
Y415000D01*
X228248Y380000D02*
X231752Y376496D01*
Y365000D02*
Y376496D01*
X228248Y380000D02*
Y383752D01*
X226000Y386000D02*
X228248Y383752D01*
X211000Y386000D02*
X226000D01*
X419000Y265000D02*
X420000Y266000D01*
X419000Y221000D02*
Y265000D01*
X416000Y218000D02*
X419000Y221000D01*
X408248Y218000D02*
X416000D01*
X235000Y304000D02*
X239000D01*
X226000Y295000D02*
X235000Y304000D01*
X226000Y291000D02*
Y295000D01*
X206000Y271000D02*
X226000Y291000D01*
X203000Y271000D02*
X206000D01*
X239433Y303567D02*
X248189D01*
X239000Y304000D02*
X239433Y303567D01*
X248189D02*
X248256Y303500D01*
X276000Y296898D02*
X279949Y292949D01*
X276000Y296898D02*
Y303000D01*
X280000Y307000D01*
X263000Y310000D02*
Y318000D01*
Y319000D01*
X261051Y320949D02*
X263000Y319000D01*
X261051Y320949D02*
Y325744D01*
X378748Y345000D02*
X391000D01*
X343748D02*
X348000D01*
X326248D02*
X330000D01*
X396000Y315000D02*
Y340000D01*
X391000Y345000D02*
X396000Y340000D01*
Y356000D01*
X408500Y368500D02*
Y375386D01*
X396000Y356000D02*
X408500Y368500D01*
X399248Y311752D02*
X435000D01*
X396000Y315000D02*
X399248Y311752D01*
X408000Y217752D02*
X408248Y218000D01*
X408000Y215000D02*
Y217752D01*
X406621Y213621D02*
X408000Y215000D01*
X386621Y213621D02*
X406621D01*
X388000Y217752D02*
X388248Y218000D01*
X388000Y215000D02*
Y217752D01*
X386621Y213621D02*
X388000Y215000D01*
X366621Y213621D02*
X386621D01*
X368000Y217752D02*
X368248Y218000D01*
X368000Y215000D02*
Y217752D01*
X366621Y213621D02*
X368000Y215000D01*
X346621Y213621D02*
X366621D01*
X348000Y217752D02*
X348248Y218000D01*
X348000Y215000D02*
Y217752D01*
X346621Y213621D02*
X348000Y215000D01*
X326621Y213621D02*
X346621D01*
X287621D02*
X306000D01*
X308000Y215621D02*
Y217752D01*
X306000Y213621D02*
X308000Y215621D01*
X328000Y217752D02*
X328248Y218000D01*
X328000Y215000D02*
Y217752D01*
X326621Y213621D02*
X328000Y215000D01*
X306000Y213621D02*
X326621D01*
X308000Y217752D02*
X308248Y218000D01*
X288000Y217752D02*
X288248Y218000D01*
X288000Y214000D02*
Y217752D01*
X287621Y213621D02*
X288000Y214000D01*
X267621Y213621D02*
X287621D01*
X268000Y217752D02*
X268248Y218000D01*
X268000Y214000D02*
Y217752D01*
X267621Y213621D02*
X268000Y214000D01*
X246621Y213621D02*
X267621D01*
X248000Y217752D02*
X248248Y218000D01*
X248000Y215000D02*
Y217752D01*
X246621Y213621D02*
X248000Y215000D01*
X226743Y213621D02*
X246621D01*
X226682Y213682D02*
X226743Y213621D01*
X228000Y217752D02*
X228248Y218000D01*
X228000Y215000D02*
Y217752D01*
X226682Y213682D02*
X228000Y215000D01*
X207318Y213682D02*
X226682D01*
X207000Y214000D02*
X207318Y213682D01*
X208000Y217752D02*
X208248Y218000D01*
X208000Y215000D02*
Y217752D01*
X207000Y214000D02*
X208000Y215000D01*
X190000Y214000D02*
X207000D01*
X188248Y215752D02*
X190000Y214000D01*
X188248Y215752D02*
Y218000D01*
X337252Y343000D02*
Y345000D01*
X370000Y203000D02*
Y205000D01*
Y203000D02*
X378000Y195000D01*
X400000D01*
X406000Y201000D01*
X365000Y457500D02*
X367000D01*
X351752Y365000D02*
Y371752D01*
X367000Y457500D02*
X372500Y452000D01*
Y412000D02*
Y452000D01*
X364500Y404000D02*
X372500Y412000D01*
X364500Y384500D02*
Y404000D01*
X351752Y371752D02*
X364500Y384500D01*
X359000Y420000D02*
X363500Y415500D01*
X331752Y365000D02*
Y369248D01*
X325000Y376000D02*
X331752Y369248D01*
X325000Y376000D02*
Y437500D01*
X345000Y457500D01*
X332500Y407500D02*
X345000D01*
X330000Y410000D02*
X332500Y407500D01*
X310000Y410000D02*
X312500Y407500D01*
X319500D01*
X311752Y365000D02*
Y370748D01*
X305000Y377500D02*
X311752Y370748D01*
X305000Y377500D02*
Y437500D01*
X325000Y457500D01*
X290000Y410000D02*
X297500D01*
X299500Y408000D01*
X265000Y434075D02*
X281000Y418075D01*
Y417000D02*
Y418075D01*
X283500Y411500D02*
X288000Y416000D01*
X283500Y402000D02*
X285500Y400000D01*
X283500Y402000D02*
Y411500D01*
X291752Y365000D02*
Y373248D01*
X285500Y379500D02*
X291752Y373248D01*
X285500Y379500D02*
Y400000D01*
X288000Y416000D02*
Y440500D01*
X305000Y457500D01*
X358248Y365000D02*
X372748Y350500D01*
X379000D01*
X338248Y365000D02*
X339000D01*
X353500Y350500D01*
X362000D01*
X318248Y365000D02*
X319000D01*
X298248Y364252D02*
Y365000D01*
Y364252D02*
X305000Y357500D01*
X309000D01*
X278248Y365000D02*
X285748Y357500D01*
X293500D01*
X300000Y351000D01*
X307500D01*
X268248Y372748D02*
Y380000D01*
X266000Y370500D02*
X268248Y372748D01*
X266000Y362500D02*
Y370500D01*
Y362500D02*
X270500Y358000D01*
X278500D01*
X285500Y351000D01*
X290500D01*
X258248Y365000D02*
X272748Y350500D01*
X277500D01*
X248248Y369748D02*
Y380000D01*
X246500Y368000D02*
X248248Y369748D01*
X246500Y357500D02*
Y368000D01*
Y357500D02*
X253500Y350500D01*
X260000D01*
X238248Y354752D02*
Y365000D01*
Y354752D02*
X242500Y350500D01*
X221500Y379748D02*
X221752Y380000D01*
X221500Y372500D02*
Y379748D01*
Y372500D02*
X225000Y369000D01*
Y350500D02*
Y369000D01*
X207500Y360748D02*
X211752Y365000D01*
X207500Y350500D02*
Y360748D01*
X195000Y380000D02*
X201752D01*
X189000Y374000D02*
X195000Y380000D01*
X189000Y351000D02*
Y374000D01*
X225000Y400000D02*
X235000Y410000D01*
Y425000D01*
X225000Y435000D02*
X235000Y425000D01*
X247500Y405000D02*
X255000Y412500D01*
Y427500D01*
X247500Y435000D02*
X255000Y427500D01*
X245000Y435000D02*
X247500D01*
X345000Y420000D02*
X359000D01*
X315000Y351500D02*
X325000D01*
X309000Y357500D02*
X315000Y351500D01*
X319000Y365000D02*
X332500Y351500D01*
X345500D01*
D18*
X404000Y294000D02*
X407000Y297000D01*
X436000D01*
Y263000D02*
Y297000D01*
Y263000D02*
X446000Y253000D01*
Y230000D02*
Y253000D01*
X427000Y237000D02*
X428000Y236000D01*
X440000D01*
X446000Y230000D01*
Y172000D02*
Y230000D01*
D19*
X285000Y452500D02*
Y457500D01*
X277500Y445000D02*
X285000Y452500D01*
X235000Y450000D02*
X240000Y445000D01*
X215000D02*
X240000D01*
X255000Y450000D02*
X260000Y445000D01*
X215000Y415000D02*
X222500Y407500D01*
X200000Y415000D02*
X215000Y430000D01*
X197500Y415000D02*
X200000D01*
X215000D02*
Y430000D01*
Y445000D01*
X237500Y440000D02*
X242500Y445000D01*
X237500Y430000D02*
Y440000D01*
Y430000D02*
X245000Y422500D01*
Y417500D02*
Y422500D01*
X240000Y445000D02*
X242500D01*
X260000D01*
Y440000D02*
X265000Y445000D01*
X260000Y422500D02*
Y440000D01*
Y422500D02*
X265000Y417500D01*
X260000Y445000D02*
X265000D01*
X277500D01*
D20*
X410000Y413000D02*
D03*
X400000Y418000D02*
D03*
X410000Y423000D02*
D03*
X400000Y428000D02*
D03*
X410000Y433000D02*
D03*
X400000Y438000D02*
D03*
X410000Y443000D02*
D03*
X400000Y448000D02*
D03*
D21*
X435000Y408000D02*
D03*
Y453000D02*
D03*
D22*
X447000Y461500D02*
D03*
Y399500D02*
D03*
D23*
X185000Y460000D02*
D03*
X438400Y138500D02*
D03*
D24*
X235000Y397500D02*
D03*
X215000D02*
D03*
X225000Y457500D02*
D03*
X205000D02*
D03*
X190000Y205000D02*
D03*
X210000D02*
D03*
X200000Y145000D02*
D03*
X220000D02*
D03*
X275000Y397500D02*
D03*
X255000D02*
D03*
X265000Y457500D02*
D03*
X245000D02*
D03*
X230000Y205000D02*
D03*
X250000D02*
D03*
X240000Y145000D02*
D03*
X260000D02*
D03*
X315000Y397500D02*
D03*
X295000D02*
D03*
X305000Y457500D02*
D03*
X285000D02*
D03*
X270000Y205000D02*
D03*
X290000D02*
D03*
X280000Y145000D02*
D03*
X300000D02*
D03*
X325000Y457500D02*
D03*
X345000D02*
D03*
X335000Y397500D02*
D03*
X365000Y457500D02*
D03*
X355000Y397500D02*
D03*
X375000D02*
D03*
X310000Y205000D02*
D03*
X330000D02*
D03*
X320000Y145000D02*
D03*
X340000D02*
D03*
X400000D02*
D03*
X380000D02*
D03*
X390000Y205000D02*
D03*
X360000Y145000D02*
D03*
X370000Y205000D02*
D03*
X350000D02*
D03*
D25*
X447000Y278000D02*
D03*
X183000Y271000D02*
D03*
Y281000D02*
D03*
X193000Y271000D02*
D03*
Y281000D02*
D03*
X203000Y271000D02*
D03*
D26*
X447000Y268000D02*
D03*
D27*
X203000Y281000D02*
D03*
D28*
X427000Y247000D02*
D03*
Y237000D02*
D03*
Y227000D02*
D03*
D29*
X311929Y324000D02*
D03*
X304000Y322000D02*
D03*
Y308000D02*
D03*
X302000Y328000D02*
D03*
X284410Y317914D02*
D03*
X283000Y310000D02*
D03*
X275500Y316500D02*
D03*
X293000Y326000D02*
D03*
X269500Y317000D02*
D03*
X364500Y262500D02*
D03*
X372000Y268000D02*
D03*
X368000Y226500D02*
D03*
X382000Y311000D02*
D03*
X307000Y227000D02*
D03*
X267000D02*
D03*
X227000D02*
D03*
X325000Y257000D02*
D03*
X285000D02*
D03*
X244250Y257000D02*
D03*
X205750Y256755D02*
D03*
X200005Y261005D02*
D03*
X214000Y261000D02*
D03*
X415000Y331000D02*
D03*
X407000Y332000D02*
D03*
X280000Y261000D02*
D03*
X276000Y256000D02*
D03*
X420000Y266000D02*
D03*
X227000Y310000D02*
D03*
X239000Y304000D02*
D03*
X263000Y318000D02*
D03*
X365000Y345000D02*
D03*
X348000D02*
D03*
X330000D02*
D03*
X313000D02*
D03*
X295000D02*
D03*
X277000Y344406D02*
D03*
X260000Y344500D02*
D03*
X242000D02*
D03*
X225000D02*
D03*
X207000D02*
D03*
X190000Y345000D02*
D03*
X391000D02*
D03*
X396000Y315000D02*
D03*
X406000Y228000D02*
D03*
X387000D02*
D03*
X404000Y294000D02*
D03*
X436000Y297000D02*
D03*
X446000Y172000D02*
D03*
X347000Y290000D02*
D03*
X282000Y300000D02*
D03*
X280000Y293000D02*
D03*
X409000Y261000D02*
D03*
X400000Y262000D02*
D03*
X359000Y276000D02*
D03*
X357000Y269000D02*
D03*
X313000Y271000D02*
D03*
X308000Y266000D02*
D03*
X314000Y262000D02*
D03*
X290000D02*
D03*
X251000Y263000D02*
D03*
X242000D02*
D03*
X233000Y262000D02*
D03*
X193000D02*
D03*
X265000Y299000D02*
D03*
X258000D02*
D03*
X201000Y310000D02*
D03*
X207000Y295000D02*
D03*
X424000Y340000D02*
D03*
X408000D02*
D03*
X377000Y338000D02*
D03*
X360000D02*
D03*
X342000D02*
D03*
X325000D02*
D03*
X307000D02*
D03*
X290000D02*
D03*
X272000D02*
D03*
X255000D02*
D03*
X237000D02*
D03*
X220000D02*
D03*
X202000D02*
D03*
X185000D02*
D03*
X346000Y263000D02*
D03*
X339000Y262000D02*
D03*
X332000Y263000D02*
D03*
X378000Y257000D02*
D03*
X413000Y246000D02*
D03*
X347000Y238000D02*
D03*
X385000D02*
D03*
X295121Y218121D02*
D03*
X275000Y219000D02*
D03*
X255121Y218121D02*
D03*
X235121D02*
D03*
X215182Y218182D02*
D03*
X195000Y219000D02*
D03*
X325000Y238000D02*
D03*
X305000D02*
D03*
X295000D02*
D03*
X285000D02*
D03*
X265000D02*
D03*
X255000D02*
D03*
X245000D02*
D03*
X205000D02*
D03*
X225000D02*
D03*
X215000D02*
D03*
X183000Y245000D02*
D03*
X352000Y228000D02*
D03*
X333000D02*
D03*
X182000Y226000D02*
D03*
X377000Y228000D02*
D03*
X317000D02*
D03*
X406000Y201000D02*
D03*
X363500Y415500D02*
D03*
X330000Y410000D02*
D03*
X319500Y407500D02*
D03*
X310000Y410000D02*
D03*
X299500Y408000D02*
D03*
X281000Y417000D02*
D03*
X290000Y410000D02*
D03*
X379000Y350500D02*
D03*
X362000D02*
D03*
X307500Y351000D02*
D03*
X290500D02*
D03*
X277500Y350500D02*
D03*
X260000D02*
D03*
X242500D02*
D03*
X225000D02*
D03*
X207500D02*
D03*
X189000Y351000D02*
D03*
X225000Y400000D02*
D03*
Y435000D02*
D03*
X247500Y405000D02*
D03*
X245000Y435000D02*
D03*
X215000Y445000D02*
D03*
X235000Y450000D02*
D03*
X255000D02*
D03*
X222500Y407500D02*
D03*
X197500Y415000D02*
D03*
X245000Y417500D02*
D03*
X265000Y434075D02*
D03*
X345000Y407500D02*
D03*
Y420000D02*
D03*
X265000Y417500D02*
D03*
X325000Y351500D02*
D03*
X345500D02*
D03*
X239100Y320200D02*
D03*
M02*
