%FSLAX25Y25*%
%MOIN*%
G70*
G01*
G75*
G04 Layer_Color=16711935*
%ADD10O,0.02362X0.08661*%
%ADD11O,0.06890X0.02165*%
%ADD12O,0.02165X0.06890*%
G04:AMPARAMS|DCode=13|XSize=83mil|YSize=55mil|CornerRadius=13.75mil|HoleSize=0mil|Usage=FLASHONLY|Rotation=0.000|XOffset=0mil|YOffset=0mil|HoleType=Round|Shape=RoundedRectangle|*
%AMROUNDEDRECTD13*
21,1,0.08300,0.02750,0,0,0.0*
21,1,0.05550,0.05500,0,0,0.0*
1,1,0.02750,0.02775,-0.01375*
1,1,0.02750,-0.02775,-0.01375*
1,1,0.02750,-0.02775,0.01375*
1,1,0.02750,0.02775,0.01375*
%
%ADD13ROUNDEDRECTD13*%
%ADD14R,0.03937X0.03937*%
%ADD15R,0.03937X0.03937*%
%ADD16C,0.01500*%
%ADD17C,0.02000*%
%ADD18C,0.03000*%
%ADD19C,0.04000*%
%ADD20C,0.07874*%
%ADD21R,0.05906X0.05906*%
%ADD22C,0.05906*%
%ADD23R,0.05906X0.05906*%
%ADD24C,0.11000*%
%ADD25C,0.12500*%
%ADD26C,0.09843*%
%ADD27C,0.12795*%
%ADD28C,0.06299*%
%ADD29C,0.05000*%
%ADD30O,0.06299X0.01969*%
%ADD31R,0.03937X0.09449*%
%ADD32R,0.12992X0.09449*%
%ADD33O,0.02165X0.05512*%
%ADD34R,0.03347X0.01575*%
%ADD35O,0.02362X0.08858*%
G04:AMPARAMS|DCode=36|XSize=82.68mil|YSize=62.99mil|CornerRadius=15.75mil|HoleSize=0mil|Usage=FLASHONLY|Rotation=90.000|XOffset=0mil|YOffset=0mil|HoleType=Round|Shape=RoundedRectangle|*
%AMROUNDEDRECTD36*
21,1,0.08268,0.03150,0,0,90.0*
21,1,0.05118,0.06299,0,0,90.0*
1,1,0.03150,0.01575,0.02559*
1,1,0.03150,0.01575,-0.02559*
1,1,0.03150,-0.01575,-0.02559*
1,1,0.03150,-0.01575,0.02559*
%
%ADD36ROUNDEDRECTD36*%
G04:AMPARAMS|DCode=37|XSize=70.87mil|YSize=74.8mil|CornerRadius=17.72mil|HoleSize=0mil|Usage=FLASHONLY|Rotation=90.000|XOffset=0mil|YOffset=0mil|HoleType=Round|Shape=RoundedRectangle|*
%AMROUNDEDRECTD37*
21,1,0.07087,0.03937,0,0,90.0*
21,1,0.03543,0.07480,0,0,90.0*
1,1,0.03543,0.01969,0.01772*
1,1,0.03543,0.01969,-0.01772*
1,1,0.03543,-0.01969,-0.01772*
1,1,0.03543,-0.01969,0.01772*
%
%ADD37ROUNDEDRECTD37*%
G04:AMPARAMS|DCode=38|XSize=15.75mil|YSize=53.15mil|CornerRadius=3.94mil|HoleSize=0mil|Usage=FLASHONLY|Rotation=90.000|XOffset=0mil|YOffset=0mil|HoleType=Round|Shape=RoundedRectangle|*
%AMROUNDEDRECTD38*
21,1,0.01575,0.04528,0,0,90.0*
21,1,0.00787,0.05315,0,0,90.0*
1,1,0.00787,0.02264,0.00394*
1,1,0.00787,0.02264,-0.00394*
1,1,0.00787,-0.02264,-0.00394*
1,1,0.00787,-0.02264,0.00394*
%
%ADD38ROUNDEDRECTD38*%
G04:AMPARAMS|DCode=39|XSize=74.8mil|YSize=74.8mil|CornerRadius=18.7mil|HoleSize=0mil|Usage=FLASHONLY|Rotation=90.000|XOffset=0mil|YOffset=0mil|HoleType=Round|Shape=RoundedRectangle|*
%AMROUNDEDRECTD39*
21,1,0.07480,0.03740,0,0,90.0*
21,1,0.03740,0.07480,0,0,90.0*
1,1,0.03740,0.01870,0.01870*
1,1,0.03740,0.01870,-0.01870*
1,1,0.03740,-0.01870,-0.01870*
1,1,0.03740,-0.01870,0.01870*
%
%ADD39ROUNDEDRECTD39*%
%ADD40R,0.04724X0.06693*%
%ADD41R,0.08071X0.09843*%
%ADD42R,0.06496X0.04724*%
%ADD43R,0.03937X0.03740*%
%ADD44R,0.03740X0.03937*%
%ADD45R,0.04724X0.07677*%
%ADD46C,0.01000*%
%ADD47C,0.05000*%
%ADD48C,0.03500*%
%ADD49C,0.02362*%
%ADD50C,0.00984*%
%ADD51C,0.00100*%
%ADD52C,0.00787*%
%ADD53O,0.03162X0.09461*%
%ADD54O,0.07690X0.02965*%
%ADD55O,0.02965X0.07690*%
G04:AMPARAMS|DCode=56|XSize=91mil|YSize=63mil|CornerRadius=17.75mil|HoleSize=0mil|Usage=FLASHONLY|Rotation=0.000|XOffset=0mil|YOffset=0mil|HoleType=Round|Shape=RoundedRectangle|*
%AMROUNDEDRECTD56*
21,1,0.09100,0.02750,0,0,0.0*
21,1,0.05550,0.06300,0,0,0.0*
1,1,0.03550,0.02775,-0.01375*
1,1,0.03550,-0.02775,-0.01375*
1,1,0.03550,-0.02775,0.01375*
1,1,0.03550,0.02775,0.01375*
%
%ADD56ROUNDEDRECTD56*%
%ADD57R,0.04737X0.04737*%
%ADD58R,0.04737X0.04737*%
%ADD59C,0.08674*%
%ADD60R,0.06706X0.06706*%
%ADD61C,0.06706*%
%ADD62R,0.06706X0.06706*%
%ADD63C,0.11800*%
%ADD64C,0.13300*%
%ADD65C,0.10642*%
%ADD66C,0.13595*%
%ADD67C,0.07099*%
%ADD68O,0.07099X0.02769*%
%ADD69R,0.04737X0.10249*%
%ADD70R,0.13792X0.10249*%
%ADD71O,0.02965X0.06312*%
%ADD72R,0.04147X0.02375*%
%ADD73O,0.03162X0.09658*%
G04:AMPARAMS|DCode=74|XSize=90.68mil|YSize=70.99mil|CornerRadius=19.75mil|HoleSize=0mil|Usage=FLASHONLY|Rotation=90.000|XOffset=0mil|YOffset=0mil|HoleType=Round|Shape=RoundedRectangle|*
%AMROUNDEDRECTD74*
21,1,0.09068,0.03150,0,0,90.0*
21,1,0.05118,0.07099,0,0,90.0*
1,1,0.03950,0.01575,0.02559*
1,1,0.03950,0.01575,-0.02559*
1,1,0.03950,-0.01575,-0.02559*
1,1,0.03950,-0.01575,0.02559*
%
%ADD74ROUNDEDRECTD74*%
G04:AMPARAMS|DCode=75|XSize=78.87mil|YSize=82.8mil|CornerRadius=21.72mil|HoleSize=0mil|Usage=FLASHONLY|Rotation=90.000|XOffset=0mil|YOffset=0mil|HoleType=Round|Shape=RoundedRectangle|*
%AMROUNDEDRECTD75*
21,1,0.07887,0.03937,0,0,90.0*
21,1,0.03543,0.08280,0,0,90.0*
1,1,0.04343,0.01969,0.01772*
1,1,0.04343,0.01969,-0.01772*
1,1,0.04343,-0.01969,-0.01772*
1,1,0.04343,-0.01969,0.01772*
%
%ADD75ROUNDEDRECTD75*%
G04:AMPARAMS|DCode=76|XSize=23.75mil|YSize=61.15mil|CornerRadius=7.94mil|HoleSize=0mil|Usage=FLASHONLY|Rotation=90.000|XOffset=0mil|YOffset=0mil|HoleType=Round|Shape=RoundedRectangle|*
%AMROUNDEDRECTD76*
21,1,0.02375,0.04528,0,0,90.0*
21,1,0.00787,0.06115,0,0,90.0*
1,1,0.01587,0.02264,0.00394*
1,1,0.01587,0.02264,-0.00394*
1,1,0.01587,-0.02264,-0.00394*
1,1,0.01587,-0.02264,0.00394*
%
%ADD76ROUNDEDRECTD76*%
G04:AMPARAMS|DCode=77|XSize=82.8mil|YSize=82.8mil|CornerRadius=22.7mil|HoleSize=0mil|Usage=FLASHONLY|Rotation=90.000|XOffset=0mil|YOffset=0mil|HoleType=Round|Shape=RoundedRectangle|*
%AMROUNDEDRECTD77*
21,1,0.08280,0.03740,0,0,90.0*
21,1,0.03740,0.08280,0,0,90.0*
1,1,0.04540,0.01870,0.01870*
1,1,0.04540,0.01870,-0.01870*
1,1,0.04540,-0.01870,-0.01870*
1,1,0.04540,-0.01870,0.01870*
%
%ADD77ROUNDEDRECTD77*%
%ADD78R,0.05524X0.07493*%
%ADD79R,0.08871X0.10642*%
%ADD80R,0.07296X0.05524*%
%ADD81R,0.04737X0.04540*%
%ADD82R,0.04540X0.04737*%
%ADD83R,0.05524X0.08477*%
D58*
X337000Y303248D02*
D03*
Y296752D02*
D03*
X355000Y416752D02*
D03*
Y423248D02*
D03*
X275000Y406752D02*
D03*
Y413248D02*
D03*
X235000Y406752D02*
D03*
Y413248D02*
D03*
X335000Y416752D02*
D03*
Y423248D02*
D03*
X265000Y448248D02*
D03*
Y441752D02*
D03*
X225000Y448248D02*
D03*
Y441752D02*
D03*
X379000Y261752D02*
D03*
Y268248D02*
D03*
X296000Y245752D02*
D03*
Y252248D02*
D03*
X385000Y245752D02*
D03*
Y252248D02*
D03*
X264000Y245752D02*
D03*
Y252248D02*
D03*
X315000Y416752D02*
D03*
Y423248D02*
D03*
X255000Y406752D02*
D03*
Y413248D02*
D03*
X215000Y406752D02*
D03*
Y413248D02*
D03*
X346000Y268752D02*
D03*
Y275248D02*
D03*
X255000Y245752D02*
D03*
Y252248D02*
D03*
X339000Y268752D02*
D03*
Y275248D02*
D03*
X225000Y245752D02*
D03*
Y252248D02*
D03*
X332000Y268752D02*
D03*
Y275248D02*
D03*
X215000Y245752D02*
D03*
Y252248D02*
D03*
X295000Y416752D02*
D03*
Y423248D02*
D03*
X245000Y448248D02*
D03*
Y441752D02*
D03*
X205000Y448248D02*
D03*
Y441752D02*
D03*
X304000Y245752D02*
D03*
Y252248D02*
D03*
X178000Y245752D02*
D03*
Y252248D02*
D03*
X409000Y168752D02*
D03*
Y175248D02*
D03*
D59*
X427000Y227000D02*
D03*
Y237000D02*
D03*
Y247000D02*
D03*
D60*
X203000Y281000D02*
D03*
D61*
Y271000D02*
D03*
X193000Y281000D02*
D03*
Y271000D02*
D03*
X183000Y281000D02*
D03*
Y271000D02*
D03*
X447000Y278000D02*
D03*
D62*
Y268000D02*
D03*
D63*
X350000Y205000D02*
D03*
X370000D02*
D03*
X360000Y145000D02*
D03*
X390000Y205000D02*
D03*
X380000Y145000D02*
D03*
X400000D02*
D03*
X340000D02*
D03*
X320000D02*
D03*
X330000Y205000D02*
D03*
X310000D02*
D03*
X375000Y397500D02*
D03*
X355000D02*
D03*
X365000Y457500D02*
D03*
X335000Y397500D02*
D03*
X345000Y457500D02*
D03*
X325000D02*
D03*
X300000Y145000D02*
D03*
X280000D02*
D03*
X290000Y205000D02*
D03*
X270000D02*
D03*
X285000Y457500D02*
D03*
X305000D02*
D03*
X295000Y397500D02*
D03*
X315000D02*
D03*
X260000Y145000D02*
D03*
X240000D02*
D03*
X250000Y205000D02*
D03*
X230000D02*
D03*
X245000Y457500D02*
D03*
X265000D02*
D03*
X255000Y397500D02*
D03*
X275000D02*
D03*
X220000Y145000D02*
D03*
X200000D02*
D03*
X210000Y205000D02*
D03*
X190000D02*
D03*
X205000Y457500D02*
D03*
X225000D02*
D03*
X215000Y397500D02*
D03*
X235000D02*
D03*
D64*
X438400Y138500D02*
D03*
X185000Y460000D02*
D03*
D65*
X447000Y399500D02*
D03*
Y461500D02*
D03*
D66*
X435000Y453000D02*
D03*
Y408000D02*
D03*
D67*
X400000Y448000D02*
D03*
X410000Y443000D02*
D03*
X400000Y438000D02*
D03*
X410000Y433000D02*
D03*
X400000Y428000D02*
D03*
X410000Y423000D02*
D03*
X400000Y418000D02*
D03*
X410000Y413000D02*
D03*
D68*
X217331Y312740D02*
D03*
Y309000D02*
D03*
Y305260D02*
D03*
X208669Y312740D02*
D03*
Y309000D02*
D03*
Y305260D02*
D03*
D69*
X425055Y281583D02*
D03*
X416000D02*
D03*
X406945D02*
D03*
D70*
X416000Y304417D02*
D03*
D71*
X410000Y216878D02*
D03*
X400000D02*
D03*
X410000Y239122D02*
D03*
X400000D02*
D03*
X290000Y216878D02*
D03*
X280000D02*
D03*
X290000Y239122D02*
D03*
X280000D02*
D03*
X390000Y216878D02*
D03*
X380000D02*
D03*
X390000Y239122D02*
D03*
X380000D02*
D03*
X270000Y216878D02*
D03*
X260000D02*
D03*
X270000Y239122D02*
D03*
X260000D02*
D03*
X370000Y216878D02*
D03*
X360000D02*
D03*
X370000Y239122D02*
D03*
X360000D02*
D03*
X250000Y216878D02*
D03*
X240000D02*
D03*
X250000Y239122D02*
D03*
X240000D02*
D03*
X350000Y216878D02*
D03*
X340000D02*
D03*
X350000Y239122D02*
D03*
X340000D02*
D03*
X230000Y216878D02*
D03*
X220000D02*
D03*
X230000Y239122D02*
D03*
X220000D02*
D03*
X330000Y216878D02*
D03*
X320000D02*
D03*
X330000Y239122D02*
D03*
X320000D02*
D03*
X210000Y216878D02*
D03*
X200000D02*
D03*
X210000Y239122D02*
D03*
X200000D02*
D03*
X310000Y216878D02*
D03*
X300000D02*
D03*
X310000Y239122D02*
D03*
X300000D02*
D03*
X190000Y216878D02*
D03*
X180000D02*
D03*
X190000Y239122D02*
D03*
X180000D02*
D03*
D72*
X396260Y250559D02*
D03*
Y248000D02*
D03*
Y245441D02*
D03*
X403740D02*
D03*
Y248000D02*
D03*
Y250559D02*
D03*
X276260D02*
D03*
Y248000D02*
D03*
Y245441D02*
D03*
X283740D02*
D03*
Y248000D02*
D03*
Y250559D02*
D03*
X356260D02*
D03*
Y248000D02*
D03*
Y245441D02*
D03*
X363740D02*
D03*
Y248000D02*
D03*
Y250559D02*
D03*
X236260D02*
D03*
Y248000D02*
D03*
Y245441D02*
D03*
X243740D02*
D03*
Y248000D02*
D03*
Y250559D02*
D03*
X316260D02*
D03*
Y248000D02*
D03*
Y245441D02*
D03*
X323740D02*
D03*
Y248000D02*
D03*
Y250559D02*
D03*
X196260D02*
D03*
Y248000D02*
D03*
Y245441D02*
D03*
X203740D02*
D03*
Y248000D02*
D03*
Y250559D02*
D03*
D73*
X372500Y358524D02*
D03*
X382500D02*
D03*
X372500Y336476D02*
D03*
X382500D02*
D03*
X302500Y358524D02*
D03*
X312500D02*
D03*
X302500Y336476D02*
D03*
X312500D02*
D03*
X232500Y358524D02*
D03*
X242500D02*
D03*
X232500Y336476D02*
D03*
X242500D02*
D03*
X355000Y358524D02*
D03*
X365000D02*
D03*
X355000Y336476D02*
D03*
X365000D02*
D03*
X285000Y358524D02*
D03*
X295000D02*
D03*
X285000Y336476D02*
D03*
X295000D02*
D03*
X215000Y358524D02*
D03*
X225000D02*
D03*
X215000Y336476D02*
D03*
X225000D02*
D03*
X337500Y358524D02*
D03*
X347500D02*
D03*
X337500Y336476D02*
D03*
X347500D02*
D03*
X267500Y358524D02*
D03*
X277500D02*
D03*
X267500Y336476D02*
D03*
X277500D02*
D03*
X197500Y358524D02*
D03*
X207500D02*
D03*
X197500Y336476D02*
D03*
X207500D02*
D03*
X320000Y358524D02*
D03*
X330000D02*
D03*
X320000Y336476D02*
D03*
X330000D02*
D03*
X250000Y358524D02*
D03*
X260000D02*
D03*
X250000Y336476D02*
D03*
X260000D02*
D03*
X180000Y358524D02*
D03*
X190000D02*
D03*
X180000Y336476D02*
D03*
X190000D02*
D03*
D74*
X188508Y323205D02*
D03*
Y298795D02*
D03*
D75*
X178488Y296039D02*
D03*
X178469Y325961D02*
D03*
D76*
X189000Y305882D02*
D03*
Y308441D02*
D03*
Y311000D02*
D03*
Y313559D02*
D03*
Y316118D02*
D03*
D77*
X178469Y306276D02*
D03*
Y315724D02*
D03*
D78*
X403209Y187500D02*
D03*
X391791D02*
D03*
D79*
X428000Y162701D02*
D03*
Y175299D02*
D03*
Y188701D02*
D03*
Y201299D02*
D03*
X444000Y244299D02*
D03*
Y231701D02*
D03*
X377500Y371201D02*
D03*
Y383799D02*
D03*
X307500Y371201D02*
D03*
Y383799D02*
D03*
X237500Y371201D02*
D03*
Y383799D02*
D03*
X360000Y371201D02*
D03*
Y383799D02*
D03*
X290000Y371201D02*
D03*
Y383799D02*
D03*
X220000Y371201D02*
D03*
Y383799D02*
D03*
X342500Y371201D02*
D03*
Y383799D02*
D03*
X272500Y371201D02*
D03*
Y383799D02*
D03*
X202500Y371201D02*
D03*
Y383799D02*
D03*
X325000Y371201D02*
D03*
Y383799D02*
D03*
X255000Y371201D02*
D03*
Y383799D02*
D03*
X185000Y371201D02*
D03*
Y383799D02*
D03*
D80*
X355000Y446398D02*
D03*
Y433602D02*
D03*
X275000Y436398D02*
D03*
Y423602D02*
D03*
X235000Y436398D02*
D03*
Y423602D02*
D03*
X335000Y446398D02*
D03*
Y433602D02*
D03*
X265000Y413602D02*
D03*
Y426398D02*
D03*
X225000Y413602D02*
D03*
Y426398D02*
D03*
X315000Y446398D02*
D03*
Y433602D02*
D03*
X255000Y436398D02*
D03*
Y423602D02*
D03*
X215000Y436398D02*
D03*
Y423602D02*
D03*
X295000Y446398D02*
D03*
Y433602D02*
D03*
X245000Y413602D02*
D03*
Y426398D02*
D03*
X205000Y418602D02*
D03*
Y431398D02*
D03*
D81*
X266150Y326000D02*
D03*
X259850D02*
D03*
X274850Y285000D02*
D03*
X281150D02*
D03*
X195850Y295000D02*
D03*
X202150D02*
D03*
D82*
X293000Y304850D02*
D03*
Y311150D02*
D03*
X331000Y296850D02*
D03*
Y303150D02*
D03*
D83*
X396000Y294177D02*
D03*
Y303823D02*
D03*
X436000Y286823D02*
D03*
Y277177D02*
D03*
M02*
